<svg width="48" height="101" viewBox="0 0 48 101" fill="none" xmlns="http://www.w3.org/2000/svg">
<circle cx="2.4" cy="2.4" r="2.4" transform="matrix(-1 0 0 1 47.9951 86.3984)" fill="#A1CC03"/>
<circle cx="2.4" cy="2.4" r="2.4" transform="matrix(-1 0 0 1 47.9951 76.8047)" fill="#A1CC03"/>
<circle cx="2.4" cy="2.4" r="2.4" transform="matrix(-1 0 0 1 47.9951 67.2031)" fill="#A1CC03"/>
<circle cx="2.4" cy="2.4" r="2.4" transform="matrix(-1 0 0 1 47.9951 57.6016)" fill="#A1CC03"/>
<circle cx="2.4" cy="2.4" r="2.4" transform="matrix(-1 0 0 1 47.9951 48)" fill="#A1CC03"/>
<circle cx="2.4" cy="2.4" r="2.4" transform="matrix(-1 0 0 1 47.9951 38.3984)" fill="#A1CC03"/>
<circle cx="2.4" cy="2.4" r="2.4" transform="matrix(-1 0 0 1 47.9951 28.8047)" fill="#A1CC03"/>
<circle cx="2.4" cy="2.4" r="2.4" transform="matrix(-1 0 0 1 47.9951 19.2031)" fill="#A1CC03"/>
<circle cx="2.4" cy="2.4" r="2.4" transform="matrix(-1 0 0 1 47.9951 9.60156)" fill="#A1CC03"/>
<g opacity="0.6">
<circle cx="2.4" cy="2.4" r="2.4" transform="matrix(-1 0 0 1 30.7139 96)" fill="#A1CC03"/>
<circle cx="2.4" cy="2.4" r="2.4" transform="matrix(-1 0 0 1 30.7139 86.3984)" fill="#A1CC03"/>
<circle cx="2.4" cy="2.4" r="2.4" transform="matrix(-1 0 0 1 30.7139 76.7969)" fill="#A1CC03"/>
<circle cx="2.4" cy="2.4" r="2.4" transform="matrix(-1 0 0 1 30.7139 67.2031)" fill="#A1CC03"/>
<circle cx="2.4" cy="2.4" r="2.4" transform="matrix(-1 0 0 1 30.7139 57.6016)" fill="#A1CC03"/>
<circle cx="2.4" cy="2.4" r="2.4" transform="matrix(-1 0 0 1 30.7139 48)" fill="#A1CC03"/>
<circle cx="2.4" cy="2.4" r="2.4" transform="matrix(-1 0 0 1 30.7139 38.3984)" fill="#A1CC03"/>
<circle cx="2.4" cy="2.4" r="2.4" transform="matrix(-1 0 0 1 30.7139 28.7969)" fill="#A1CC03"/>
<circle cx="2.4" cy="2.4" r="2.4" transform="matrix(-1 0 0 1 30.7139 19.2031)" fill="#A1CC03"/>
<circle cx="2.4" cy="2.4" r="2.4" transform="matrix(-1 0 0 1 30.7139 9.60156)" fill="#A1CC03"/>
<circle cx="2.4" cy="2.4" r="2.4" transform="matrix(-1 0 0 1 30.7139 0)" fill="#A1CC03"/>
</g>
<g opacity="0.2">
<circle cx="2.4" cy="2.4" r="2.4" transform="matrix(-1 0 0 1 13.4404 86.3984)" fill="#A1CC03"/>
<circle cx="2.4" cy="2.4" r="2.4" transform="matrix(-1 0 0 1 13.4404 76.8047)" fill="#A1CC03"/>
<circle cx="2.4" cy="2.4" r="2.4" transform="matrix(-1 0 0 1 13.4404 67.2031)" fill="#A1CC03"/>
<circle cx="2.4" cy="2.4" r="2.4" transform="matrix(-1 0 0 1 13.4404 57.6016)" fill="#A1CC03"/>
<circle cx="2.4" cy="2.4" r="2.4" transform="matrix(-1 0 0 1 13.4404 48)" fill="#A1CC03"/>
<circle cx="2.4" cy="2.4" r="2.4" transform="matrix(-1 0 0 1 13.4404 38.3984)" fill="#A1CC03"/>
<circle cx="2.4" cy="2.4" r="2.4" transform="matrix(-1 0 0 1 13.4404 28.8047)" fill="#A1CC03"/>
<circle cx="2.4" cy="2.4" r="2.4" transform="matrix(-1 0 0 1 13.4404 19.2031)" fill="#A1CC03"/>
<circle cx="2.4" cy="2.4" r="2.4" transform="matrix(-1 0 0 1 13.4404 9.60156)" fill="#A1CC03"/>
</g>
<g opacity="0.8">
<circle cx="2.4" cy="2.4" r="2.4" transform="matrix(-1 0 0 1 39.3545 91.2031)" fill="#A1CC03"/>
<circle cx="2.4" cy="2.4" r="2.4" transform="matrix(-1 0 0 1 39.3545 81.6016)" fill="#A1CC03"/>
<circle cx="2.4" cy="2.4" r="2.4" transform="matrix(-1 0 0 1 39.3545 72.0078)" fill="#A1CC03"/>
<circle cx="2.4" cy="2.4" r="2.4" transform="matrix(-1 0 0 1 39.3545 62.4062)" fill="#A1CC03"/>
<circle cx="2.4" cy="2.4" r="2.4" transform="matrix(-1 0 0 1 39.3545 52.8047)" fill="#A1CC03"/>
<circle cx="2.4" cy="2.4" r="2.4" transform="matrix(-1 0 0 1 39.3545 43.2031)" fill="#A1CC03"/>
<circle cx="2.4" cy="2.4" r="2.4" transform="matrix(-1 0 0 1 39.3545 33.6016)" fill="#A1CC03"/>
<circle cx="2.4" cy="2.4" r="2.4" transform="matrix(-1 0 0 1 39.3545 24.0078)" fill="#A1CC03"/>
<circle cx="2.4" cy="2.4" r="2.4" transform="matrix(-1 0 0 1 39.3545 14.4062)" fill="#A1CC03"/>
<circle cx="2.4" cy="2.4" r="2.4" transform="matrix(-1 0 0 1 39.3545 4.80469)" fill="#A1CC03"/>
</g>
<g opacity="0.4">
<circle cx="2.4" cy="2.4" r="2.4" transform="matrix(-1 0 0 1 22.0732 91.2031)" fill="#A1CC03"/>
<circle cx="2.4" cy="2.4" r="2.4" transform="matrix(-1 0 0 1 22.0732 81.6016)" fill="#A1CC03"/>
<circle cx="2.4" cy="2.4" r="2.4" transform="matrix(-1 0 0 1 22.0732 72.0078)" fill="#A1CC03"/>
<circle cx="2.4" cy="2.4" r="2.4" transform="matrix(-1 0 0 1 22.0732 62.4062)" fill="#A1CC03"/>
<circle cx="2.4" cy="2.4" r="2.4" transform="matrix(-1 0 0 1 22.0732 52.8047)" fill="#A1CC03"/>
<circle cx="2.4" cy="2.4" r="2.4" transform="matrix(-1 0 0 1 22.0732 43.2031)" fill="#A1CC03"/>
<circle cx="2.4" cy="2.4" r="2.4" transform="matrix(-1 0 0 1 22.0732 33.6016)" fill="#A1CC03"/>
<circle cx="2.4" cy="2.4" r="2.4" transform="matrix(-1 0 0 1 22.0732 24.0078)" fill="#A1CC03"/>
<circle cx="2.4" cy="2.4" r="2.4" transform="matrix(-1 0 0 1 22.0732 14.4062)" fill="#A1CC03"/>
<circle cx="2.4" cy="2.4" r="2.4" transform="matrix(-1 0 0 1 22.0732 4.80469)" fill="#A1CC03"/>
</g>
<g opacity="0.1">
<circle cx="2.4" cy="2.4" r="2.4" transform="matrix(-1 0 0 1 4.7998 81.6016)" fill="#A1CC03"/>
<circle cx="2.4" cy="2.4" r="2.4" transform="matrix(-1 0 0 1 4.7998 72)" fill="#A1CC03"/>
<circle cx="2.4" cy="2.4" r="2.4" transform="matrix(-1 0 0 1 4.7998 62.3984)" fill="#A1CC03"/>
<circle cx="2.4" cy="2.4" r="2.4" transform="matrix(-1 0 0 1 4.7998 52.7969)" fill="#A1CC03"/>
<circle cx="2.4" cy="2.4" r="2.4" transform="matrix(-1 0 0 1 4.7998 43.1953)" fill="#A1CC03"/>
<circle cx="2.4" cy="2.4" r="2.4" transform="matrix(-1 0 0 1 4.7998 33.6016)" fill="#A1CC03"/>
<circle cx="2.4" cy="2.4" r="2.4" transform="matrix(-1 0 0 1 4.7998 24)" fill="#A1CC03"/>
<circle cx="2.4" cy="2.4" r="2.4" transform="matrix(-1 0 0 1 4.7998 14.3984)" fill="#A1CC03"/>
</g>
</svg>
