<svg width="48" height="101" viewBox="0 0 48 101" fill="none" xmlns="http://www.w3.org/2000/svg">
<circle cx="2.4" cy="88.7984" r="2.4" fill="#A1CC03"/>
<circle cx="2.4" cy="79.2047" r="2.4" fill="#A1CC03"/>
<circle cx="2.4" cy="69.6031" r="2.4" fill="#A1CC03"/>
<circle cx="2.4" cy="60.0016" r="2.4" fill="#A1CC03"/>
<circle cx="2.4" cy="50.4" r="2.4" fill="#A1CC03"/>
<circle cx="2.4" cy="40.7984" r="2.4" fill="#A1CC03"/>
<circle cx="2.4" cy="31.2047" r="2.4" fill="#A1CC03"/>
<circle cx="2.4" cy="21.6031" r="2.4" fill="#A1CC03"/>
<circle cx="2.4" cy="12.0016" r="2.4" fill="#A1CC03"/>
<g opacity="0.6">
<circle cx="19.6812" cy="98.4" r="2.4" fill="#A1CC03"/>
<circle cx="19.6812" cy="88.7984" r="2.4" fill="#A1CC03"/>
<circle cx="19.6812" cy="79.1969" r="2.4" fill="#A1CC03"/>
<circle cx="19.6812" cy="69.6031" r="2.4" fill="#A1CC03"/>
<circle cx="19.6812" cy="60.0016" r="2.4" fill="#A1CC03"/>
<circle cx="19.6812" cy="50.4" r="2.4" fill="#A1CC03"/>
<circle cx="19.6812" cy="40.7984" r="2.4" fill="#A1CC03"/>
<circle cx="19.6812" cy="31.1969" r="2.4" fill="#A1CC03"/>
<circle cx="19.6812" cy="21.6031" r="2.4" fill="#A1CC03"/>
<circle cx="19.6812" cy="12.0016" r="2.4" fill="#A1CC03"/>
<circle cx="19.6812" cy="2.4" r="2.4" fill="#A1CC03"/>
</g>
<g opacity="0.2">
<circle cx="36.9547" cy="88.7984" r="2.4" fill="#A1CC03"/>
<circle cx="36.9547" cy="79.2047" r="2.4" fill="#A1CC03"/>
<circle cx="36.9547" cy="69.6031" r="2.4" fill="#A1CC03"/>
<circle cx="36.9547" cy="60.0016" r="2.4" fill="#A1CC03"/>
<circle cx="36.9547" cy="50.4" r="2.4" fill="#A1CC03"/>
<circle cx="36.9547" cy="40.7984" r="2.4" fill="#A1CC03"/>
<circle cx="36.9547" cy="31.2047" r="2.4" fill="#A1CC03"/>
<circle cx="36.9547" cy="21.6031" r="2.4" fill="#A1CC03"/>
<circle cx="36.9547" cy="12.0016" r="2.4" fill="#A1CC03"/>
</g>
<g opacity="0.8">
<circle cx="11.0406" cy="93.6031" r="2.4" fill="#A1CC03"/>
<circle cx="11.0406" cy="84.0016" r="2.4" fill="#A1CC03"/>
<circle cx="11.0406" cy="74.4078" r="2.4" fill="#A1CC03"/>
<circle cx="11.0406" cy="64.8063" r="2.4" fill="#A1CC03"/>
<circle cx="11.0406" cy="55.2047" r="2.4" fill="#A1CC03"/>
<circle cx="11.0406" cy="45.6031" r="2.4" fill="#A1CC03"/>
<circle cx="11.0406" cy="36.0016" r="2.4" fill="#A1CC03"/>
<circle cx="11.0406" cy="26.4078" r="2.4" fill="#A1CC03"/>
<circle cx="11.0406" cy="16.8062" r="2.4" fill="#A1CC03"/>
<circle cx="11.0406" cy="7.20469" r="2.4" fill="#A1CC03"/>
</g>
<g opacity="0.4">
<circle cx="28.3219" cy="93.6031" r="2.4" fill="#A1CC03"/>
<circle cx="28.3219" cy="84.0016" r="2.4" fill="#A1CC03"/>
<circle cx="28.3219" cy="74.4078" r="2.4" fill="#A1CC03"/>
<circle cx="28.3219" cy="64.8063" r="2.4" fill="#A1CC03"/>
<circle cx="28.3219" cy="55.2047" r="2.4" fill="#A1CC03"/>
<circle cx="28.3219" cy="45.6031" r="2.4" fill="#A1CC03"/>
<circle cx="28.3219" cy="36.0016" r="2.4" fill="#A1CC03"/>
<circle cx="28.3219" cy="26.4078" r="2.4" fill="#A1CC03"/>
<circle cx="28.3219" cy="16.8062" r="2.4" fill="#A1CC03"/>
<circle cx="28.3219" cy="7.20469" r="2.4" fill="#A1CC03"/>
</g>
<g opacity="0.1">
<circle cx="45.5953" cy="84.0016" r="2.4" fill="#A1CC03"/>
<circle cx="45.5953" cy="74.4" r="2.4" fill="#A1CC03"/>
<circle cx="45.5953" cy="64.7984" r="2.4" fill="#A1CC03"/>
<circle cx="45.5953" cy="55.1969" r="2.4" fill="#A1CC03"/>
<circle cx="45.5953" cy="45.5953" r="2.4" fill="#A1CC03"/>
<circle cx="45.5953" cy="36.0016" r="2.4" fill="#A1CC03"/>
<circle cx="45.5953" cy="26.4" r="2.4" fill="#A1CC03"/>
<circle cx="45.5953" cy="16.7984" r="2.4" fill="#A1CC03"/>
</g>
</svg>
