<?xml version="1.0" ?><svg id="Livello_1" style="enable-background:new 0 0 100 100;" version="1.1" height="60" width="60" viewBox="0 0 100 100" xml:space="preserve" xmlns="http://www.w3.org/2000/svg" xmlns:xlink="http://www.w3.org/1999/xlink"><path d="M64.9,66.8c-0.5,0-1-0.2-1.4-0.6L33.7,36.6c-0.8-0.8-0.8-2,0-2.8c0.8-0.8,2-0.8,2.8,0l29.8,29.7c0.8,0.8,0.8,2,0,2.8  C65.9,66.6,65.4,66.8,64.9,66.8z"/><path d="M35.1,66.8c-0.5,0-1-0.2-1.4-0.6c-0.8-0.8-0.8-2,0-2.8l29.8-29.7c0.8-0.8,2-0.8,2.8,0c0.8,0.8,0.8,2,0,2.8L36.5,66.3  C36.1,66.6,35.6,66.8,35.1,66.8z"/></svg>