<svg width="36" height="36" viewBox="0 0 36 36" fill="none" xmlns="http://www.w3.org/2000/svg">
<rect width="35.062" height="35.062" rx="8" fill="#1B1B1E"/>
<path d="M15.9973 18.5664C15.9374 18.5664 14.6197 18.5664 14.0208 18.5664C13.7014 18.5664 13.6016 18.4466 13.6016 18.1471C13.6016 17.3485 13.6016 16.53 13.6016 15.7314C13.6016 15.412 13.7213 15.3122 14.0208 15.3122H15.9973C15.9973 15.2523 15.9973 14.0944 15.9973 13.5553C15.9973 12.7568 16.137 11.9981 16.5363 11.2994C16.9555 10.5807 17.5545 10.1015 18.3131 9.82203C18.8122 9.64236 19.3113 9.5625 19.8504 9.5625H21.8068C22.0863 9.5625 22.2061 9.68229 22.2061 9.96178V12.2377C22.2061 12.5172 22.0863 12.637 21.8068 12.637C21.2678 12.637 20.7288 12.637 20.1897 12.6569C19.6507 12.6569 19.3712 12.9165 19.3712 13.4755C19.3513 14.0744 19.3712 14.6534 19.3712 15.2723H21.6871C22.0065 15.2723 22.1263 15.392 22.1263 15.7115V18.1271C22.1263 18.4466 22.0265 18.5464 21.6871 18.5464C20.9683 18.5464 19.4311 18.5464 19.3712 18.5464V25.0547C19.3712 25.3941 19.2714 25.5139 18.912 25.5139C18.0735 25.5139 17.255 25.5139 16.4165 25.5139C16.1171 25.5139 15.9973 25.3941 15.9973 25.0946C15.9973 22.9984 15.9973 18.6262 15.9973 18.5664Z" fill="white"/>
</svg>
