<svg width="15" height="14" viewBox="0 0 15 14" fill="none" xmlns="http://www.w3.org/2000/svg">
<path d="M5.99628 9.06547C5.4268 8.64118 5.30917 7.83784 5.73874 7.25997C7.03576 5.49762 8.00087 3.54246 8.61738 1.45191C8.81754 0.762868 9.53515 0.359253 10.2182 0.551524C10.9013 0.743795 11.2936 1.45985 11.0935 2.14889C10.3959 4.53963 9.29285 6.77896 7.80928 8.78074C7.36902 9.37424 6.54265 9.47394 6.00934 9.06294L5.99628 9.06547Z" fill="#E475FA"/>
<path d="M0.918174 6.84434L0.802176 2.54871C0.782483 1.75152 1.39884 1.0889 2.17257 1.06339C2.95648 1.03937 3.60488 1.66293 3.62607 2.44975L3.74207 6.7454C3.76176 7.54259 3.14541 8.20519 2.37168 8.2307C1.60815 8.25768 0.937867 7.64153 0.918174 6.84434Z" fill="#E475FA"/>
<path d="M8.95885 11.1239L12.411 9.86727C13.0521 9.63556 13.7563 9.95607 13.9863 10.5766C14.218 11.2058 13.8878 11.9004 13.2554 12.1305L9.80331 13.3871C9.16217 13.6188 8.45803 13.2983 8.22796 12.6778C7.99944 12.0659 8.3177 11.3556 8.95885 11.1239Z" fill="#E475FA"/>
</svg>
