<svg width="150" height="150" viewBox="0 0 217 188" fill="none" xmlns="http://www.w3.org/2000/svg">
<g clip-path="url(#clip0_3778_18850)">
<path d="M185.838 140.685C181.989 140.685 178.575 139.993 175.669 138.626C171.685 136.748 168.709 133.55 167.505 129.845C166.232 125.931 167.039 122.027 167.944 119.447C169.749 114.292 173.509 109.769 178.262 107.049C183.02 104.325 188.832 103.368 194.211 104.414C201.73 105.878 207.113 109.983 209.371 115.965C211.564 121.776 209.726 128.929 204.795 133.764C200.615 137.868 194.449 140.309 187.428 140.643C186.892 140.667 186.36 140.681 185.833 140.681L185.838 140.685ZM189.859 105.827C186.136 105.827 182.395 106.794 179.181 108.63C174.806 111.135 171.34 115.291 169.679 120.042C168.867 122.361 168.135 125.843 169.25 129.273C170.299 132.499 172.926 135.302 176.452 136.967C179.475 138.389 183.141 139.012 187.34 138.812C193.908 138.501 199.65 136.241 203.508 132.453C207.86 128.186 209.562 121.669 207.655 116.602C206.222 112.804 202.663 107.919 193.861 106.203C192.545 105.948 191.202 105.822 189.859 105.822V105.827Z" fill="#101010"/>
<path d="M188.252 145.586C185.561 145.586 182.879 145.108 180.378 144.127C174.137 141.686 169.15 136.169 167.364 129.726C167.228 129.238 167.513 128.736 168.003 128.601C168.488 128.471 168.996 128.75 169.132 129.238C170.769 135.137 175.336 140.19 181.05 142.426C186.764 144.661 193.561 144.057 198.785 140.845C204.01 137.633 207.606 131.855 208.166 125.761C208.213 125.259 208.665 124.887 209.164 124.934C209.668 124.98 210.041 125.426 209.995 125.928C209.384 132.585 205.461 138.897 199.751 142.402C196.327 144.508 192.287 145.586 188.252 145.586Z" fill="#101010"/>
<path d="M207.005 135.027C206.58 135.027 206.202 134.735 206.109 134.307C206.002 133.814 206.314 133.326 206.809 133.219C208.875 132.773 211.94 131.267 213.288 129.621C214.659 127.943 215.112 125.707 214.44 123.922C213.736 122.049 211.707 120.822 209.906 121.194C209.407 121.291 208.926 120.975 208.819 120.483C208.717 119.99 209.034 119.502 209.533 119.4C212.224 118.851 215.131 120.552 216.157 123.276C217.057 125.661 216.488 128.603 214.706 130.774C213.027 132.829 209.58 134.488 207.196 135.004C207.131 135.018 207.065 135.023 207 135.023L207.005 135.027Z" fill="#101010"/>
<path d="M208.918 130.392C208.643 130.392 208.368 130.267 208.186 130.03C207.878 129.63 207.957 129.054 208.363 128.747C208.843 128.38 209.301 128.036 209.627 127.622C209.921 127.245 210.07 126.836 210.038 126.497C210.01 126.227 209.814 125.962 209.618 125.925C209.119 125.832 208.787 125.358 208.881 124.861C208.974 124.363 209.45 124.029 209.949 124.126C210.943 124.308 211.75 125.228 211.861 126.302C211.95 127.12 211.666 127.989 211.073 128.747C210.602 129.346 210 129.802 209.473 130.202C209.305 130.327 209.114 130.388 208.918 130.388V130.392Z" fill="#101010"/>
<path d="M188.626 150.999C184.158 150.999 179.465 150.218 174.623 148.661C171.442 147.638 166.87 145.862 163.857 142.237C161.273 139.131 160.116 134.901 160.755 130.918C161.394 126.939 163.824 123.28 167.248 121.133C167.677 120.863 168.246 120.993 168.512 121.421C168.783 121.849 168.652 122.411 168.223 122.681C165.238 124.549 163.12 127.738 162.565 131.206C162.005 134.674 163.017 138.36 165.266 141.065C167.976 144.319 172.225 145.965 175.183 146.913C181.503 148.944 187.535 149.604 193.109 148.879C199.407 148.056 205.074 145.383 209.067 141.353C212.286 138.104 213.704 134.297 212.86 131.169C212.729 130.681 213.018 130.179 213.508 130.048C213.998 129.918 214.502 130.206 214.632 130.695C215.649 134.455 214.059 138.922 210.373 142.641C206.096 146.959 200.05 149.823 193.347 150.697C191.803 150.896 190.231 150.999 188.626 150.999Z" fill="#101010"/>
<path d="M194.761 110.311C190.502 108.996 183.734 109.572 179.909 111.855C176.084 114.137 173.299 118.088 172.45 122.448C171.867 125.428 172.221 128.714 174.022 131.164C175.967 133.814 179.265 135.115 182.493 135.771C187.605 136.816 193.156 136.51 197.714 133.981C202.276 131.452 205.607 126.437 205.247 121.249C204.888 116.061 201.921 112.524 194.756 110.311H194.761Z" fill="#101010"/>
<path d="M182.754 127.036C181.891 126.441 181.854 126.506 181.047 125.334C180.212 123.698 180.1 122.443 181.327 120.584C182.157 119.156 179.983 117.887 179.134 119.31C176.97 122.15 177.698 126.659 180.86 128.453C181.691 128.844 183.216 129.755 183.958 128.872C184.737 127.579 183.174 127.319 182.754 127.036Z" fill="white"/>
</g>
<path d="M94.5309 175.33C90.3407 175.164 86.1506 174.994 81.9604 174.828C80.0288 174.832 80.0288 177.776 81.9604 177.789C86.1506 177.954 90.3407 178.124 94.5309 178.29C95.3244 178.308 96.0308 177.601 96.0134 176.808C96.0134 176.014 95.3375 175.312 94.5309 175.325V175.33Z" fill="#101010"/>
<path d="M82.6525 170.215C80.8604 170.11 79.0684 170.053 77.272 169.992C75.711 169.966 75.7066 172.43 77.272 172.408C79.0509 172.473 80.8343 172.534 82.6132 172.556C83.5376 172.443 84.9721 172.962 85.4343 171.876C86.0098 170.141 83.7556 170.285 82.6525 170.219V170.215Z" fill="#101010"/>
<path d="M104.755 171.87C103.926 170.92 102.339 171.321 101.197 171.051C97.2857 170.785 93.2917 170.131 89.4068 170.165C88.2731 170.571 88.6437 172.389 89.8472 172.346C94.639 172.603 99.4963 173.453 104.271 173.309C104.829 173.113 105.06 172.367 104.755 171.87Z" fill="#101010"/>
<path d="M116.451 166.761C104.87 165.771 93.2589 165.1 81.639 164.777C78.3775 164.681 75.1205 164.607 71.859 164.555C71.5582 164.555 71.2704 164.677 71.0611 164.886C70.3591 165.549 70.8823 166.844 71.859 166.813C86.8581 167.014 101.901 168.056 116.848 168.714C117.855 168.352 117.532 166.726 116.455 166.765L116.451 166.761Z" fill="#101010"/>
<path d="M39.0162 138.42C38.7938 138.411 38.5758 138.398 38.3578 138.368C38.3534 138.368 38.3447 138.368 38.3404 138.368C38.179 138.337 37.7387 138.263 37.5686 138.198C36.5265 138.058 36.871 137.518 35.358 137.644C34.0979 137.945 33.8581 139.794 34.9961 140.408C36.5047 141.211 39.413 141.965 40.6644 140.461C41.3097 139.327 40.1891 138.224 39.0206 138.416L39.0162 138.42Z" fill="#101010"/>
<path d="M31.356 133.889C31.2732 133.099 30.6061 132.507 30.3052 131.791C29.5858 130.226 29.9608 130.728 29.5902 129.21C29.0364 127.392 26.1456 127.876 26.1543 129.764C26.2372 131.813 27.1092 133.945 28.8446 135.131C29.8431 135.964 31.5392 135.249 31.3604 133.889H31.356Z" fill="#101010"/>
<path d="M136.053 7.7561C134.662 7.07591 133.341 9.0598 134.466 10.1106C136.481 12.0727 137.117 13.359 137.763 16.5768C138.011 17.5884 139.48 17.7802 139.986 16.8689C140.71 13.5988 138.704 9.66151 136.053 7.76046V7.7561Z" fill="#101010"/>
<path d="M144.872 30.6415C144.759 29.9089 144.842 29.0587 144.249 28.5137C143.206 27.3931 141.162 28.239 141.214 29.7694C141.401 30.8726 141.345 32.1545 141.977 33.1093C142.618 34.0512 144.153 33.9203 144.698 32.9437C145.081 32.246 144.903 31.4001 144.876 30.6415H144.872Z" fill="#101010"/>
<path d="M34.0233 148.15C31.7734 148.15 29.6849 147.797 27.8841 146.933C25.4904 145.787 23.8248 143.842 22.9266 141.152C12.4708 109.872 5.8389 82.8295 0.737452 50.7253C-0.0648263 45.6718 -0.622933 40.7622 1.32608 36.2974C4.41311 29.2295 12.3225 26.2907 20.402 24.1716C59.3823 13.9426 87.9417 7.36303 118.982 1.4593L119.51 1.35902C124.018 0.500057 130.833 -0.803646 134.936 0.661385C143.656 3.7833 145.697 13.4281 147.502 21.9436C152.896 47.3941 156.576 67.438 160.199 91.127C160.779 94.9291 161.145 98.6048 159.222 101.749C157.243 104.997 153.463 106.392 150.703 107.412L53.9756 143.109C47.9891 145.329 40.3674 148.154 34.0189 148.154L34.0233 148.15ZM25.7345 140.214C26.3799 142.141 27.5004 143.467 29.166 144.261C34.9128 147.016 45.7697 142.987 52.951 140.328L149.682 104.631C152.73 103.506 155.364 102.398 156.702 100.205C158.102 97.9072 157.77 94.8114 157.278 91.5718C153.663 67.9438 149.992 47.9479 144.611 22.554C142.972 14.8015 141.11 6.01136 133.946 3.44756C130.606 2.25286 124.014 3.51296 120.072 4.26728L119.54 4.36756C88.5695 10.2538 60.0712 16.8247 21.1607 27.0363C13.8006 28.9679 6.6281 31.5709 4.04249 37.4834C2.41177 41.2113 2.935 45.6544 3.66315 50.2588C8.73408 82.1886 15.3354 109.095 25.7302 140.21L25.7345 140.214Z" fill="#101010"/>
<path d="M37.0754 135.029C36.792 135.029 36.5129 134.959 36.2601 134.824C35.8415 134.597 35.5363 134.209 35.4142 133.752C31.272 118.133 27.1472 100.527 23.1533 83.4958C20.0226 70.1492 16.7874 56.3491 13.6175 43.8222C13.5041 43.3775 13.5739 42.9066 13.8137 42.5098C14.0491 42.1174 14.4372 41.834 14.8819 41.7293L133.214 13.3138C133.658 13.2048 134.125 13.2833 134.517 13.5231C134.905 13.7629 135.185 14.1466 135.289 14.5914C138.476 28.1298 141.28 41.8819 143.992 55.1806C146.695 68.4574 149.495 82.1833 152.673 95.6695C152.878 96.5371 152.381 97.4179 151.535 97.697C140.909 101.163 129.643 104.813 118.062 108.558C91.1725 117.257 63.3718 126.252 37.6248 134.938C37.446 134.999 37.2585 135.029 37.0754 135.029ZM17.3716 44.6681C20.4151 56.7677 23.5021 69.9486 26.4975 82.7109C30.3345 99.0704 34.2936 115.966 38.2658 131.092C63.5419 122.585 90.7104 113.795 117.002 105.288C128.034 101.717 138.786 98.2376 148.963 94.9195C145.924 81.8781 143.229 68.6623 140.622 55.8695C138.027 43.1464 135.35 30.0047 132.333 17.0592L17.3716 44.6681Z" fill="#101010"/>
<path d="M88.2662 156.323C87.6689 156.323 87.0672 156.223 86.4698 155.97C84.0412 154.941 83.4046 152.054 83.095 150.672L79.2319 133.175C79.0575 132.377 79.5589 131.588 80.3568 131.409C81.1635 131.23 81.9439 131.736 82.1227 132.534L85.9858 150.031C86.2911 151.405 86.7227 152.861 87.6253 153.245C88.3447 153.55 89.3955 153.214 90.4202 152.844C97.1654 150.406 103.876 147.638 110.386 144.607L107.02 122.902C106.893 122.095 107.447 121.337 108.258 121.21C109.073 121.097 109.823 121.638 109.95 122.449L113.486 145.253C113.586 145.902 113.246 146.539 112.653 146.818C105.751 150.075 98.6087 153.035 91.4274 155.63C90.4507 155.983 89.3694 156.327 88.2662 156.327V156.323Z" fill="#101010"/>
<path d="M90.2267 154.673C89.5596 154.673 88.9492 154.22 88.7879 153.539L83.4946 131.498C83.3027 130.705 83.7954 129.903 84.589 129.711C85.3825 129.528 86.1848 130.007 86.3767 130.805L91.67 152.846C91.8618 153.64 91.3691 154.438 90.5756 154.634C90.4578 154.66 90.3445 154.673 90.2267 154.673Z" fill="#101010"/>
<path d="M84.9968 182.871C84.5869 182.871 84.1814 182.7 83.8937 182.378C72.9713 170.217 64.6477 162.003 56.0624 154.913C55.6787 154.595 55.4782 154.106 55.5349 153.609C55.5915 153.112 55.8924 152.676 56.3328 152.454C64.748 148.168 73.6341 144.736 82.7513 142.255C83.5405 142.037 84.3515 142.504 84.5695 143.293C84.7831 144.082 84.321 144.893 83.5318 145.111C75.3346 147.344 67.3292 150.361 59.6945 154.089C67.6039 160.79 75.4436 168.578 85.3936 179.613L147.348 153.212C140.171 146.201 132.78 138.994 125.311 131.852C120.192 133.195 111.123 136.447 111.027 136.482C110.26 136.757 109.41 136.356 109.135 135.588C108.86 134.821 109.261 133.971 110.029 133.696C110.447 133.548 120.332 130.007 125.394 128.778C125.887 128.656 126.401 128.795 126.763 129.148C135 137.014 143.136 144.963 151.006 152.65C151.359 152.994 151.516 153.496 151.425 153.98C151.333 154.464 151.006 154.874 150.548 155.07L85.5767 182.757C85.3892 182.836 85.193 182.875 84.9968 182.875V182.871Z" fill="#101010"/>
<path d="M85.5869 187.997C85.2163 187.997 84.85 187.858 84.571 187.592C81.2136 184.418 77.8344 181.296 74.4553 178.178C69.9163 173.988 65.2203 169.65 60.7032 165.289C57.6728 162.359 54.3198 158.418 55.3183 153.905C55.4927 153.107 56.2863 152.606 57.0842 152.78C57.8821 152.954 58.3879 153.748 58.2091 154.546C57.5246 157.629 60.2802 160.768 62.7568 163.162C67.2522 167.504 71.9351 171.825 76.461 176.007C79.6047 178.911 82.7571 181.823 85.8877 184.771L141.559 160.545C146.237 158.509 148.736 156.29 148.784 154.127C148.801 153.321 149.464 152.68 150.266 152.68H150.301C151.121 152.697 151.766 153.377 151.749 154.193C151.67 157.646 148.64 160.694 142.745 163.262L86.1755 187.875C85.9837 187.958 85.7831 187.997 85.5825 187.997H85.5869Z" fill="#101010"/>
<path d="M133.976 38.0377C133.976 38.0377 133.989 38.0638 133.989 38.0769H133.993C133.993 38.0769 133.98 38.0507 133.976 38.0377ZM88.9786 40.9503C73.2339 45.28 58.649 49.8015 45.2762 54.323C44.7094 54.5149 44.051 54.3492 43.8243 53.9524C42.6775 51.9293 42.2938 49.5486 38.1691 50.1939C34.7419 50.7259 31.1971 52.2694 28.0141 53.3333C25.1669 54.2838 22.3153 55.2736 19.5771 56.3898C19.0975 56.586 18.8795 56.9915 19.0452 57.349C19.0626 57.3839 19.0801 57.4188 19.0975 57.4537C19.0975 57.4537 19.0975 57.458 19.1019 57.4624C19.3068 57.8374 19.9303 57.9987 20.4753 57.8505C24.8922 56.6296 29.2132 55.1907 33.5691 53.887C35.675 53.2548 38.6574 51.7854 40.2271 53.2722C40.9465 53.9568 41.1079 55.3041 41.7314 56.1107C42.2241 56.756 43.1615 56.695 43.8243 56.32C43.9376 56.3723 44.0597 56.4116 44.1992 56.429C44.1992 56.429 44.5175 56.477 44.8969 56.3811C75.2963 48.6504 92.8766 43.6493 136.579 32.0162C136.675 31.99 136.797 31.9595 136.876 31.9377C136.858 31.9116 136.723 31.6674 136.71 31.6412C136.3 30.9174 135.685 29.823 135.663 29.7838C135.659 29.7707 135.572 29.6225 135.567 29.6094C135.463 29.6312 135.275 29.6704 135.166 29.6966C116.483 33.6818 100.756 37.7194 88.9786 40.959V40.9503Z" fill="#101010"/>
<path d="M26.5203 46.4038C25.7834 45.9983 25.0945 46.4082 24.7544 47.0404C24.519 47.0404 24.2835 47.1451 24.1527 47.3892C23.0626 49.3819 26.4244 50.9559 27.2964 48.7976C27.6365 47.9473 27.3444 46.8617 26.5203 46.4038Z" fill="#101010"/>
<path d="M34.6317 45.8048C34.1826 44.9197 33.1274 44.4139 32.2031 44.9197C32.1246 44.9633 32.0592 45.02 31.9894 45.0723C31.8019 45.081 31.6188 45.1769 31.5054 45.4124C31.3267 45.783 31.1435 46.1493 30.9778 46.5242C30.8645 46.7815 30.8122 47.1172 30.9953 47.3614C31.6101 48.168 32.6129 48.6259 33.6201 48.2988C34.6753 47.9587 35.1244 46.7728 34.6273 45.8048H34.6317Z" fill="#101010"/>
<path d="M40.3066 43.2972C39.8793 43.0748 39.4083 43.0704 38.9898 43.2187C38.8982 43.2012 38.8154 43.1751 38.7064 43.2056C37.6861 43.5195 37.2152 44.8058 37.8343 45.7084C38.3881 46.515 39.6874 46.8158 40.4504 46.1313C41.2266 45.4337 41.305 43.816 40.3066 43.2972Z" fill="#101010"/>
<path d="M68.1296 61.4712C65.7184 60.4684 61.4628 62.6441 59.1606 63.2589C54.6216 64.471 50.1088 65.7747 45.6396 67.2092C44.8242 67.4709 44.8286 68.3429 45.2951 68.792C44.846 69.1975 44.6106 69.8472 44.9986 70.5317C46.3285 72.8993 47.5014 75.3149 48.3298 77.9092C48.8967 79.6925 48.9054 82.0514 49.712 83.7039C50.4184 85.1515 51.2991 85.6355 52.9081 85.5526C54.7829 85.4524 57.0328 84.1574 58.7856 83.5164C60.9832 82.7141 63.1807 81.9031 65.3783 81.0965C67.3491 80.3727 71.0901 79.8844 72.0799 77.7086C72.4156 76.963 71.8706 75.0053 71.779 74.4908C71.3735 72.1188 70.9506 69.7512 70.5189 67.388C70.1832 65.5393 70.2661 62.3563 68.1383 61.4712H68.1296ZM67.5845 67.2964C67.9682 69.446 69.6164 74.3469 68.4086 76.1782C67.118 78.1316 63.4598 78.6374 61.2491 79.4353C60.0108 79.88 53.9283 82.9278 52.9996 82.4351C51.7308 81.7636 51.1683 76.9805 50.6102 75.4849C49.7687 73.2263 48.6699 71.1073 47.4316 69.0405C47.3706 68.9402 47.2921 68.8879 47.2267 68.8138C52.6377 67.7194 58.0051 66.4462 63.3551 65.0815C63.8696 64.9507 66.3593 63.9652 66.7692 64.2094C67.4886 64.6411 67.4581 66.5552 67.5889 67.2921L67.5845 67.2964Z" fill="#101010"/>
<path d="M94.0975 54.9725C93.8054 54.2836 93.1601 53.7734 92.3622 54.0132C87.1255 55.5916 82.0285 57.6017 76.77 59.1583C76.6392 59.1975 76.5477 59.2629 76.4692 59.3414C75.6974 58.744 74.3327 58.9969 74.4373 60.2309C74.8908 65.4239 76.8878 70.6954 78.5446 75.6137C78.7975 76.3637 79.5693 76.8476 80.3629 76.6165L98.0348 71.4802C98.7978 71.2579 99.212 70.4556 99.0202 69.7013C97.7296 64.6739 96.1206 59.76 94.0975 54.9812V54.9725ZM91.8912 57.0174C93.4391 60.9808 94.7777 64.9922 95.8765 69.1039C90.9015 70.5341 85.9221 71.9642 80.9428 73.39C79.6347 69.1257 78.6711 64.6783 77.1189 60.5317C77.1319 60.5317 77.145 60.5317 77.1625 60.5317C82.0415 59.2019 87.0035 58.2601 91.8912 57.0174Z" fill="#101010"/>
<path d="M121.935 51.1833C121.355 49.6921 120.783 47.307 119.039 46.714C117.029 46.0251 113.968 47.7561 112.124 48.3622C108.85 49.4392 105.571 50.5162 102.331 51.6978C101.677 51.9376 101.629 52.6265 101.956 53.0276C101.642 53.3372 101.459 53.7776 101.62 54.3313C102.606 57.7672 103.539 61.2248 104.581 64.6432C105.034 66.1301 105.296 67.7085 106.996 68.1096C109.024 68.5892 111.832 66.9018 113.698 66.2739C117.047 65.1403 120.395 64.011 123.748 62.8904C124.533 62.6288 124.878 61.9094 124.725 61.1245C124.075 57.7323 123.182 54.4098 121.93 51.1833H121.935ZM109.15 64.8307C107.759 65.2013 108.23 65.4106 107.485 64.5081C106.914 63.8192 106.822 62.1928 106.56 61.2859C105.819 58.709 105.082 56.1277 104.341 53.5509C104.276 53.3285 104.175 53.1497 104.053 53.0058C105.946 52.5785 107.834 52.1338 109.722 51.6716C111.871 51.144 114.413 50.054 116.611 49.9275C118.159 49.8403 118.102 49.6921 118.913 51.3838C119.375 52.3474 119.698 53.3982 120.038 54.4142C120.718 56.4417 121.237 58.5128 121.69 60.597C117.544 62.062 113.38 63.7058 109.15 64.8307Z" fill="#101010"/>
<path d="M70.4274 82.5695C65.0949 84.2831 59.1258 85.8092 54.1726 88.4427C53.5926 88.7523 53.8543 89.838 54.5475 89.7377C60.0981 88.9398 65.7925 86.6856 71.1076 84.9284C72.6032 84.4357 71.9404 82.0812 70.4274 82.5652V82.5695Z" fill="#101010"/>
<path d="M73.0288 87.9313C67.2864 89.1391 60.9074 91.0445 55.7362 93.8482C55.1083 94.1883 55.5966 95.0167 56.2027 94.912C62.0323 93.9136 68.0668 92.091 73.7395 90.4036C75.344 89.9283 74.6333 87.5956 73.0288 87.9313Z" fill="#101010"/>
<path d="M98.2051 74.4031C95.4974 74.6342 92.9074 75.855 90.3654 76.7925C87.4833 77.8563 84.5882 78.8984 81.7322 80.0365C80.7119 80.442 81.1087 81.9898 82.2118 81.7064C85.1811 80.9477 88.1243 80.0844 91.0718 79.2473C93.6836 78.506 96.5003 77.9915 98.8286 76.5744C99.7748 75.9989 99.3911 74.2984 98.2051 74.4031Z" fill="#101010"/>
<path d="M99.4045 80.3715C93.9543 81.0386 88.02 83.9948 82.9404 86.0441C81.9462 86.4453 82.3299 87.9452 83.4113 87.6749C86.3806 86.9205 89.3194 86.0311 92.2625 85.1808C94.883 84.4221 97.6473 83.8989 100.037 82.5603C101.005 82.0197 100.586 80.2276 99.4089 80.3759L99.4045 80.3715Z" fill="#101010"/>
<path d="M123.95 66.8166C118.683 67.7453 113.224 70.1478 108.14 71.8701C107.024 72.2494 107.508 73.8235 108.642 73.6098C113.944 72.607 120.122 71.5431 124.975 69.1362C126.366 68.4473 125.263 66.5855 123.955 66.8166H123.95Z" fill="#101010"/>
<path d="M126.486 70.2368C120.434 71.6451 114.238 74.3136 108.461 76.6071C107.371 77.0387 107.798 78.6825 108.971 78.386C114.988 76.8599 121.555 75.3818 127.275 72.9794C128.937 72.2817 128.318 69.8095 126.486 70.2368Z" fill="#101010"/>
<path d="M67.4227 109.643C64.1133 110.903 60.5205 112.459 57.4945 114.291C56.7751 114.727 57.2765 115.887 58.0919 115.647C61.4841 114.653 65.0639 113.057 68.225 111.474C69.2322 110.968 68.4823 109.242 67.4184 109.647L67.4227 109.643Z" fill="#101010"/>
<path d="M69.3064 106.177C66.3895 106.722 63.4986 108.009 60.8346 109.295C60.0018 109.696 60.6383 111.179 61.4973 110.804C64.2355 109.613 67.0086 108.933 69.8602 108.113C71.129 107.747 70.5578 105.942 69.3021 106.177H69.3064Z" fill="#101010"/>
<path d="M129.06 24.1752C126.051 24.4456 122.829 25.915 119.973 26.8786C119.044 27.1925 119.441 28.5703 120.392 28.3392C123.326 27.6372 126.832 27.1707 129.522 25.8016C130.281 25.4135 129.906 24.0968 129.055 24.1752H129.06Z" fill="#101010"/>
<path d="M129.751 20.6507C128.792 21.0082 128.007 21.6884 127.044 22.0896C126.106 22.482 125.121 22.7131 124.127 22.9049C123.329 23.0575 123.695 24.2217 124.471 24.104C125.548 23.9383 126.599 23.6854 127.641 23.3889C128.574 23.1229 129.704 22.8962 130.488 22.325C131.273 21.7538 130.794 20.2583 129.751 20.6507Z" fill="#101010"/>
<defs>
<clipPath id="clip0_3778_18850">
<rect width="56" height="47" fill="white" transform="translate(160.582 104)"/>
</clipPath>
</defs>
</svg>
