<svg width="150" height="150" viewBox="0 0 232 211" fill="none" xmlns="http://www.w3.org/2000/svg">
<path fill-rule="evenodd" clip-rule="evenodd" d="M85.3283 49.8583C84.2821 49.5488 83.2312 49.2247 82.185 48.9152L82.2142 48.9059C83.5638 48.3002 84.4573 49.1399 85.3561 49.9457L85.3283 49.8583Z" fill="#101010"/>
<path fill-rule="evenodd" clip-rule="evenodd" d="M82.1984 48.9093C81.6886 48.6701 81.198 48.4408 80.6882 48.2015C80.7181 48.1439 80.7333 48.0909 80.7632 48.0332C81.2531 48.3109 81.733 48.6078 82.2229 48.8855L82.1938 48.8948L82.1984 48.9093Z" fill="#101010"/>
<g clip-path="url(#clip0_3778_18917)">
<path fill-rule="evenodd" clip-rule="evenodd" d="M11.2703 152.674C10.1033 154.198 8.84291 155.646 8.01721 157.415C7.60594 158.303 6.92959 159.064 6.46822 159.938C5.70637 161.397 4.92322 162.847 3.888 164.139C3.69003 164.382 3.55873 164.719 3.50553 165.033C3.35813 165.898 4.06939 166.392 4.9533 166.082C5.05072 166.041 5.14499 165.992 5.3485 165.889C7.33833 167.512 9.25596 169.069 11.1693 170.637C16.2018 174.729 21.2225 178.835 26.9606 181.941C27.9673 182.488 28.8983 183.19 29.851 183.839C30.8037 184.487 31.6873 185.245 32.6854 185.812C34.2708 186.706 35.769 187.708 37.1971 188.836C38.2299 189.653 39.2875 190.426 40.5131 190.968C41.1084 191.229 41.6342 191.661 42.155 192.059C43.1657 192.824 44.1334 193.635 45.1409 194.392C45.6202 194.755 46.122 195.109 46.6628 195.366C48.3342 196.171 49.9926 197.008 51.6143 197.904C52.2261 198.246 52.7724 198.14 53.1734 197.521C53.3998 197.178 53.5721 196.938 53.9997 196.864C54.3054 196.815 54.6406 196.647 54.8556 196.424C55.4511 195.785 56.1255 195.166 56.3573 194.291C56.6293 193.303 57.1873 192.512 57.8136 191.737C58.1871 191.262 58.6769 190.791 58.8074 190.242C59.1066 189.004 59.8906 188.1 60.6269 187.146C61.1285 186.493 61.6408 185.845 62.1042 185.165C62.4114 184.7 62.3711 184.143 61.9513 183.817C61.0195 183.071 60.2084 182.151 58.9761 181.823C58.4676 181.685 57.9773 181.379 57.5501 181.056C56.0601 179.928 54.6174 178.745 53.1199 177.619C51.8445 176.666 50.5735 175.701 49.2216 174.859C47.6389 173.866 46.0196 172.934 44.6018 171.704C41.8415 169.32 38.6577 167.564 35.5373 165.728C34.3511 165.028 33.2197 164.269 32.11 163.457C30.7431 162.454 29.3506 161.452 27.8867 160.595C26.9845 160.066 26.093 159.542 25.276 158.88C23.6984 157.586 22.0195 156.449 20.2199 155.486C19.6388 155.175 19.0601 154.828 18.5705 154.399C17.5977 153.555 16.4798 153.038 15.2727 152.602C14.4151 152.284 13.5422 152.37 12.6945 152.18C12.0622 152.04 11.6406 152.191 11.2659 152.684L11.2703 152.674ZM16.7172 155.215C18.0292 156.109 19.3014 157.055 20.6845 157.867C21.8111 158.531 22.8222 159.402 23.9023 160.165C24.8018 160.792 25.6838 161.461 26.6416 161.975C28.1059 162.77 29.4239 163.742 30.7171 164.759C31.8402 165.645 32.985 166.477 34.2524 167.161C36.1317 168.187 37.9657 169.294 39.7834 170.425C40.5716 170.914 41.2896 171.529 42.0131 172.116C44.1114 173.808 46.2756 175.385 48.5655 176.82C50.5119 178.047 52.2836 179.551 54.1211 180.939C54.9097 181.533 55.6821 182.152 56.4502 182.781C57.094 183.304 57.7221 183.79 58.6076 183.902C58.9981 183.949 59.3461 184.315 59.7843 184.58C59.5856 184.946 59.4717 185.241 59.2843 185.488C58.832 186.111 58.3307 186.701 57.8753 187.317C57.6158 187.664 57.2719 188.021 57.1765 188.423C56.9254 189.481 56.2616 190.273 55.6563 191.119C55.2083 191.731 54.9102 192.448 54.5174 193.108C53.9823 193.995 53.4227 194.866 52.8525 195.732C52.8201 195.781 52.5815 195.697 52.3543 195.66C53.0408 194.462 53.3818 193.198 54.0861 192.063C54.6158 191.204 54.7817 190.111 55.0655 189.109C55.1365 188.858 55.0828 188.563 55.0161 188.3C54.9806 188.174 54.8085 188.017 54.6784 188.001C54.5482 187.986 54.3104 188.112 54.282 188.213C54.0971 188.926 53.5185 189.416 53.2476 190.051C52.696 191.36 51.6047 192.393 51.3352 193.848C51.269 194.194 50.9404 194.482 50.6936 194.859C50.4123 194.757 50.1307 194.717 49.918 194.568C49.2663 194.111 49.2198 193.874 49.5593 193.193C49.7095 192.9 49.9311 192.631 49.995 192.321C50.0466 192.088 49.9752 191.73 49.8202 191.592C49.6683 191.462 49.3074 191.464 49.0806 191.533C48.5927 191.694 48.272 192.085 48.0386 192.537C47.9175 192.773 47.8028 193.024 47.6589 193.332C46.752 193.043 46.1914 192.362 45.563 191.938C45.6169 191.165 45.7138 190.516 45.6901 189.873C45.673 189.351 44.9559 189.114 44.5575 189.468C44.3954 189.606 44.298 189.815 44.188 189.994C44.106 190.134 44.0528 190.28 43.9467 190.51C43.243 190.18 42.6713 189.724 42.08 189.179C42.3359 188.886 42.5552 188.652 42.7532 188.41C42.963 188.154 43.1728 187.898 43.3613 187.633C43.4895 187.456 43.6113 187.263 43.6649 187.055C43.7493 186.711 43.6573 186.388 43.3457 186.193C43.0479 186.009 42.6818 185.978 42.4314 186.242C41.8714 186.84 41.2518 187.401 41.0649 188.256C41.044 188.353 40.9731 188.436 40.8855 188.605C39.5818 188.255 38.6662 187.317 37.6997 186.489C38.1799 185.324 38.4298 184.116 39.3152 183.223C39.3539 183.189 39.3905 183.129 39.3972 183.082C39.5091 181.923 40.3053 181.111 40.8685 180.186C40.9785 180.007 41.0226 179.777 41.04 179.567C41.0888 179.096 40.6213 178.72 40.1784 178.862C39.9741 178.922 39.7354 179.004 39.6053 179.156C38.8568 180.019 37.954 180.787 37.7542 182.01C37.7254 182.172 37.6817 182.34 37.6071 182.477C37.119 183.371 36.6201 184.261 36.0748 185.249C35.2144 184.862 34.3596 184.445 33.644 183.794C33.8868 182.862 35.102 182.333 34.4747 181.22C33.2546 180.984 32.957 182.142 32.1729 182.711C31.4112 182.599 30.913 182.024 30.2948 181.499C30.5408 181.077 30.7897 180.726 30.9746 180.348C31.1856 179.906 31.0522 179.38 30.7011 179.175C30.3212 178.964 29.9493 179.024 29.6357 179.306C29.3178 179.598 29.0307 179.922 28.6127 180.354C28.2817 180.176 28.0529 180.052 27.8592 179.948C27.8754 179.756 27.8612 179.639 27.9034 179.55C28.1498 179.067 28.4602 178.61 28.6534 178.105C28.7326 177.895 28.6549 177.522 28.5053 177.355C28.2647 177.077 27.8841 177.158 27.6052 177.355C27.3414 177.546 27.1316 177.802 26.8973 178.042C26.6319 178.312 26.3771 178.587 26.0762 178.899C25.0415 178.391 24.09 177.892 23.1365 177.199C23.3668 176.405 23.8637 175.825 24.4103 175.321C25.1975 174.593 25.4869 173.562 26.123 172.747C26.3415 172.47 26.2156 172.108 25.917 171.881C25.612 171.639 25.2775 171.683 25.0145 171.917C24.7321 172.168 24.4899 172.473 24.2415 172.763C23.3573 173.806 22.4731 174.849 21.5491 175.944C20.8398 175.643 20.3163 175.175 19.6745 174.678C19.9182 174.293 20.1627 173.952 20.3583 173.578C20.5614 173.202 20.7763 172.811 20.8835 172.395C21.0049 171.929 20.4787 171.56 20.0342 171.782C19.7514 171.928 19.497 172.141 19.2702 172.378C18.9307 172.724 18.6325 173.105 18.2981 173.484C17.4788 173.194 16.9525 172.657 16.4164 172.159C16.3954 171.586 16.8368 171.356 17.0643 170.995C17.2638 170.673 17.5241 170.369 17.7024 170.038C17.8644 169.732 17.8675 169.404 17.6012 169.128C17.3488 168.863 16.9196 168.85 16.5643 169.159C16.2357 169.447 15.9549 169.786 15.6603 170.113C15.4442 170.354 15.2589 170.626 14.9931 170.959C14.6538 170.74 14.3528 170.549 14.0976 170.383C14.1106 170.183 14.0857 170.062 14.1279 169.973C14.439 169.392 14.7671 168.83 15.0782 168.249C15.2435 167.95 15.3791 167.602 15.0217 167.382C14.6856 167.171 14.4139 167.426 14.1583 167.657C13.6322 168.126 13.0923 168.583 12.5362 169.064C11.8415 168.819 11.3523 168.328 10.7791 167.784C11.011 167.413 11.1924 167.089 11.4195 166.79C12.1172 165.87 12.8562 164.985 13.5294 164.049C13.9656 163.45 13.9789 162.853 13.6755 162.531C13.3445 162.185 12.674 162.353 12.1148 162.995C11.5362 163.653 11.0129 164.359 10.4683 165.056C10.0948 165.531 9.72883 166.003 9.31553 166.53C8.01851 165.964 7.09537 165.029 5.95885 164.238C6.44817 162.99 7.25229 161.946 7.83391 160.792C8.44907 159.571 9.16007 158.389 9.90185 157.238C10.6113 156.137 11.4229 155.089 12.1726 154.041C13.9475 153.646 15.4043 154.276 16.7239 155.168L16.7172 155.215Z" fill="#101010"/>
<path fill-rule="evenodd" clip-rule="evenodd" d="M14.9689 156.155C15.9954 157.461 17.3974 158.15 18.9547 158.579C19.0624 158.605 19.3389 158.444 19.3349 158.393C19.3179 158.206 19.2524 157.924 19.1246 157.872C18.0252 157.462 17.1112 156.779 16.2027 156.068C15.8626 155.805 15.4863 155.54 14.9278 155.723C14.9456 155.953 14.9192 156.079 14.9732 156.145L14.9689 156.155Z" fill="#101010"/>
<path fill-rule="evenodd" clip-rule="evenodd" d="M49.2887 182.623C49.4379 183.187 49.6727 183.723 49.9149 184.256C49.9591 184.361 50.1875 184.38 50.5252 184.511C50.5436 183.612 50.4228 182.948 50.1288 182.313C50.014 182.062 49.8321 181.777 49.547 181.958C49.3797 182.064 49.2354 182.434 49.2918 182.631L49.2887 182.623Z" fill="#101010"/>
<path fill-rule="evenodd" clip-rule="evenodd" d="M52.2557 184.471C52.3035 184.522 52.4372 184.483 52.5354 184.486C52.8253 184.231 52.8268 183.648 52.5061 183.369C52.4477 183.314 52.1771 183.384 52.1242 183.468C51.9117 183.822 51.9981 184.174 52.2557 184.471Z" fill="#101010"/>
</g>
<path d="M45.024 38.2916C47.4154 37.2965 51.2274 35.5906 53.4531 34.5718C55.7025 33.5293 57.6677 32.7948 57.8571 32.9133C58.0465 33.0318 58.3543 34.1453 58.5201 35.4484C58.7095 36.7278 58.8989 37.7466 58.9699 37.7466C59.041 37.7466 61.3613 36.7989 64.1316 35.638C72.4423 32.1314 96.5695 22.4174 106.869 18.4133C112.197 16.3283 117.358 14.267 118.376 13.7695C121.147 12.4664 121.975 12.7507 122.378 15.1436C122.993 18.7923 127.871 29.3594 132.014 36.0881C142.551 53.1233 162.984 75.0392 181.524 89.2075C192.699 97.7607 204.325 104.632 213.488 108.138C214.175 108.399 214.648 108.825 214.506 109.038C214.056 109.749 206.669 107.001 199.779 103.565C171.342 89.4208 137.105 55.9664 123.467 28.9803C121.857 25.8054 120.199 22.133 119.75 20.7825C119.276 19.361 118.731 18.437 118.447 18.5554C115.535 19.7638 100.642 25.6396 87.8562 30.5914C79.214 33.9558 71.1401 37.3439 69.9088 38.102C67.5885 39.571 65.2207 42.9591 63.9658 46.5367C62.048 52.0808 65.1971 60.1601 73.5788 71.201C78.3616 77.5033 78.2906 78.5694 73.271 76.8399C69.3169 75.4657 63.7291 71.6511 61.456 68.7606C59.7986 66.6756 61.1246 66.723 63.7527 68.8791C66.523 71.1299 70.4061 73.7124 71.803 74.21C72.7738 74.5653 72.7028 74.4232 69.9088 70.6086C68.796 69.0923 67.0676 66.415 66.0494 64.6617C62.0243 57.7671 56.6969 43.8831 56.176 38.9787C56.0103 37.5097 55.7261 36.3014 55.513 36.3014C55.2999 36.3014 53.6188 36.8937 51.7483 37.6519C47.1076 39.4999 41.3066 41.3716 40.1938 41.3716C38.5127 41.3716 40.2885 40.2107 44.9766 38.2442L45.024 38.2916ZM39.8387 48.7875C39.8387 48.7875 39.957 49.0718 39.957 49.4272C39.957 50.6119 42.3011 58.1699 43.8164 61.937C45.4028 65.8464 48.7887 71.3668 53.2163 77.2663C56.7443 81.9575 58.6148 83.7582 59.9644 83.7582C61.314 83.7582 61.4087 82.7868 60.4142 78.0008C60.0354 76.2001 59.6329 73.4518 59.4671 71.7933C59.0883 67.339 58.8042 65.799 58.3543 65.799C57.5493 65.799 57.3835 68.6184 57.8808 73.9493C58.1649 76.9346 58.5201 79.8015 58.6858 80.299C59.2304 82.1234 57.4546 80.0147 53.7609 74.4943C48.7413 66.9836 44.6925 58.0277 42.8457 50.2328C42.4432 48.5269 41.7328 46.2998 41.2593 45.2573C40.7857 44.1911 40.4069 43.1486 40.4069 42.8643C40.4069 42.035 39.6019 41.7981 39.3414 42.5326C39.1994 42.9117 39.1994 43.7883 39.3414 44.4991C39.5782 45.7311 39.4125 45.8496 33.8009 48.4795C30.6282 49.9721 28 51.37 28 51.5596C28 52.4362 29.0181 52.2941 34.2035 50.5645C37.2341 49.5694 39.7676 48.7401 39.8387 48.7401V48.7875ZM213.677 118.729L209.629 116.62L211.973 115.151C214.317 113.682 214.932 112.735 213.535 112.735C212.281 112.735 205.248 116.241 201.105 118.942C188.651 127.069 173.45 142.28 161.966 158.059C153.537 169.668 145.937 178.553 144.421 178.553C143.687 178.553 135.448 174.81 125.527 169.953C113.38 164.006 95.8118 151.093 81.6054 137.636C75.3073 131.665 61.1009 114.772 55.371 106.432C46.4683 93.4249 34.2508 69.4003 32.1199 60.6102C31.5753 58.4068 31.1491 57.7434 30.5808 58.312C30.0362 58.857 30.2967 61.25 31.4095 66.2255C36.145 87.1463 48.9544 112.024 66.8071 134.982C79.5455 151.378 97.043 168.602 111.391 178.909C120.673 185.59 132.512 192.011 140.775 194.854C145.061 196.323 145.7 196.347 148.186 195.115C153.608 192.39 159.883 185.661 170.49 171.209C187.703 147.729 202.289 132.163 212.92 125.884C214.577 124.913 216.377 123.823 216.969 123.467C218.981 122.235 218.129 121.003 213.701 118.705L213.677 118.729Z" fill="#101010"/>
<path d="M104.355 66.8201C103.249 65.5794 102.794 64.8369 102.832 64.3689C102.874 63.935 102.957 63.909 103.502 64.1952C104.261 64.5619 104.53 64.8427 105.316 66.1345C106.016 67.2635 106.06 67.3619 105.993 67.7127C105.951 67.9692 105.823 68.0628 105.61 67.9937C105.414 67.9284 104.961 67.5295 104.337 66.8049L104.355 66.8201ZM93.4329 77.7158C93.8137 77.7443 94.0612 77.4776 93.8973 77.22C93.7111 76.9131 91.613 75.5536 91.2661 75.5215C90.8173 75.5001 90.5031 75.6192 90.3694 75.8223C90.1934 76.1158 90.4955 76.5479 91.0778 76.8645C91.803 77.2348 93.086 77.6836 93.4329 77.7158ZM121.864 62.6701C122.272 61.1319 122.294 60.8376 122.126 60.5459C121.788 59.9286 121.365 59.9905 120.993 60.7171C120.724 61.2781 120.46 63.557 120.61 64.177C120.704 64.5966 120.764 64.6763 120.975 64.7227C121.31 64.8077 121.356 64.7513 121.864 62.6701ZM131.423 74.446C132.211 75.4282 132.479 75.8639 133.545 77.8822C136.102 82.6988 137.726 87.9746 137.959 92.2459C138.056 94.1946 138.006 95.2137 137.682 96.571C137.319 98.0528 136.959 98.7266 136.292 99.0891C135.268 99.661 134.153 99.5038 132.926 98.6022C132.292 98.1192 131.316 97.1397 131.066 96.7192C130.962 96.5412 130.942 96.6808 130.967 97.2624C131.054 98.2671 130.868 98.8022 130.394 99.0412C130.182 99.1495 129.846 99.2194 129.62 99.1917C129.167 99.1363 128.108 98.5263 127.367 97.8313L126.861 97.4208L127.105 97.962C127.523 99.0177 127.95 100.829 128.025 101.731C128.177 103.537 127.535 104.481 126.097 104.529C125.429 104.548 124.07 104.194 123.198 103.736C122.927 103.61 122.709 103.495 122.709 103.495C122.709 103.495 123.07 104.162 123.531 104.972C124.457 106.627 124.553 106.892 124.416 107.559C124.349 107.91 124.23 108.094 124.003 108.222C123.32 108.603 122.655 108.312 121.239 107.07C120.572 106.487 120.294 106.345 120.405 106.642C121.021 108.296 121.053 109.444 120.564 110.2C120.087 110.903 119.086 111.026 118.12 110.492L117.666 110.248L117.922 111.235C118.126 112.055 118.154 112.327 117.992 112.756C117.667 113.77 116.664 114.203 115.902 113.647C115.531 113.377 113.507 111.236 112.509 110.053C111.609 108.979 109.873 106.637 108.875 105.11C108.368 104.355 107.801 103.522 107.618 103.249C107.216 102.673 107.189 102.246 107.475 101.855C107.673 101.611 107.772 101.566 108.103 101.617C108.627 101.699 109.006 102.037 110.069 103.523C112.606 106.984 115.781 110.962 116.534 111.604C116.778 111.802 116.778 111.802 116.768 111.545C116.739 110.93 116.452 109.637 116.237 109.213C116.107 108.952 115.741 108.406 115.409 108.011C114.696 107.09 113.204 104.446 112.783 103.357C112.425 102.381 112.353 101.512 112.623 100.796C112.878 100.099 113.538 99.6686 114.352 99.7373L114.907 99.7819L114.545 99.2702C112.105 95.9191 110.88 93.866 111.025 93.2665C111.119 92.8442 111.38 92.7135 111.923 92.8109C112.729 92.9664 113.58 94.0623 116.206 98.2185C118.076 101.2 119.458 102.945 121.921 105.348C122.991 106.404 123.01 106.419 122.878 105.969C122.801 105.719 122.359 104.769 121.906 103.872C121.219 102.535 120.989 102.13 120.607 101.758C119.304 100.452 117.676 97.4792 117.618 96.2481C117.547 94.8809 118.525 93.867 119.712 94.0511C120.952 94.2467 122.843 95.9373 123.791 97.6415C124.364 98.6981 124.461 99.3065 124.167 100.128C124.009 100.591 123.902 100.723 123.512 100.936C122.977 101.25 122.955 101.201 124.188 102.171C125.069 102.885 126.156 103.269 126.577 103.018C127.047 102.745 127.093 101.349 126.651 100.055C126.525 99.6728 126.048 98.5375 125.6 97.5195C123.874 93.5947 123.564 92.2527 124.009 90.4014C124.275 89.308 124.615 88.7738 125.313 88.3737C126.01 87.9736 126.459 87.995 127.497 88.4009C128.641 88.8302 128.978 89.1039 128.959 89.587C128.958 89.7418 128.735 89.7481 127.992 89.7062C127.212 89.6339 126.94 89.6626 126.583 89.8721C126.015 90.1898 125.921 90.6122 126.083 92.0213C126.208 93.2452 126.713 94.309 127.899 95.9881C128.764 97.2199 129.422 97.9409 129.773 98.007C129.931 98.0419 129.966 97.8835 129.903 97.2716C129.772 95.8248 129.521 94.7172 128.978 93.2795C128.32 91.5618 128.299 91.3578 128.776 91.1528C129.401 90.8807 129.577 91.0855 131.37 94.1612L132.955 96.8808L133.724 97.5042C134.56 98.1205 135.343 98.3816 135.861 98.241C136.228 98.1335 136.309 97.9188 136.577 96.0175C136.966 93.2786 136.429 89.7267 134.933 85.3653C133.054 79.7898 130.867 75.8965 128.425 73.6969C123.485 69.2521 116.522 68.8699 109.315 72.6204C106.674 73.9988 104.859 75.3932 102.738 77.6618C99.6738 80.9407 97.86 84.019 96.8229 87.6339C96.5081 88.7497 96.1755 90.1938 96.0907 90.8729C95.5783 94.9136 96.3696 100.105 98.0604 104.189C98.697 105.702 100.056 107.896 101.11 109.125C104.272 112.812 109.156 115.871 114.098 117.326C116.045 117.876 117.371 118.08 119.974 118.166C122.818 118.261 123.825 118.361 125.15 118.72C127.165 119.263 128.682 120.152 130.561 121.895L131.438 122.73L131.729 121.72C132.089 120.548 132.825 119.182 133.545 118.332L134.048 117.712L133.565 116.853C133.275 116.368 132.84 115.486 132.54 114.899C131.705 113.131 130.65 112.057 129.797 112.112C129.506 112.126 129.328 112.231 129.012 112.504C128.4 113.067 127.53 113.297 125.999 113.269C124.727 113.266 124.625 113.277 124.196 113.614C123.847 113.891 123.68 113.943 123.503 113.893C123.165 113.774 123.22 113.476 123.613 112.954C125.386 110.653 127.536 109.842 129.218 110.833C129.951 111.271 130.436 111.478 130.332 111.3C130.291 111.235 130.228 110.623 130.195 109.974C130.118 108.384 130.588 106.771 131.512 105.402C132.482 103.976 133.87 102.266 134.073 102.244C134.209 102.23 134.223 102.366 134.186 102.834C134.153 103.181 134.169 104.348 134.198 105.462C134.303 108.32 133.96 109.164 132.184 110.434C131.254 111.082 130.946 111.424 131.072 111.651C131.113 111.716 131.345 111.966 131.592 112.198C131.933 112.505 132.421 113.244 133.374 114.828C134.1 116.04 134.718 117.04 134.771 117.052C134.808 117.082 135.21 116.816 135.673 116.475C137.29 115.325 139.327 114.578 140.972 114.542C141.451 114.525 141.859 114.482 141.874 114.464C141.89 114.445 141.461 113.785 140.954 113.031C139.418 110.788 138.212 107.908 137.475 104.755C137.049 102.944 136.98 101.611 137.197 100.042C137.212 100.023 137.243 99.9854 137.314 100.012C137.352 100.043 137.473 100.391 137.568 100.81C138.249 104.261 140.08 108.707 142.208 112.023C143.597 114.179 144.129 115.171 144.051 115.42C144.013 115.544 142.876 116.523 141.418 117.708C140.005 118.837 137.866 120.592 136.696 121.574C135.525 122.557 134.07 123.776 133.432 124.256C132.813 124.75 132.274 125.185 132.209 125.227C131.864 125.538 131.397 125.347 131.085 124.813C130.683 124.082 127.583 121.659 125.851 120.691C124.612 119.997 123.526 119.802 120.527 119.706C117.08 119.589 115.93 119.435 113.788 118.819C109.045 117.464 104.565 114.826 101.065 111.364C99.6693 109.982 98.6541 108.628 97.6649 106.859C96.0846 104.019 95.0846 100.808 94.6113 96.8715C93.7333 89.8329 95.4868 83.9945 100.202 78.2216C101.787 76.2671 104.248 73.9627 106.172 72.6255C108.047 71.3108 109.978 70.3852 112.472 69.5722C116.327 68.3062 119.951 68.1301 123.294 69.0661C125.221 69.6016 126.357 70.1176 127.948 71.2213C129.572 72.3215 130.464 73.1381 131.61 74.5981L131.423 74.446ZM130.737 110.226L131.033 109.937C131.17 109.768 131.523 109.524 131.785 109.394C132.369 109.057 132.972 108.237 133.14 107.532C133.214 107.25 133.27 106.299 133.319 105.434C133.334 104.573 133.347 103.868 133.313 103.871C133.226 103.863 131.842 106.106 131.531 106.757C131.193 107.48 130.752 109.21 130.763 109.811L130.755 110.241L130.737 110.226ZM128.801 111.616C128.697 111.438 127.792 111.327 127.27 111.434C126.715 111.544 126.226 111.802 125.539 112.304L125.22 112.544L126.118 112.586C126.6 112.604 127.216 112.574 127.45 112.515C127.904 112.415 128.901 111.76 128.835 111.612L128.801 111.616ZM117.786 104.736L116.652 102.725L115.909 102.185C115.501 101.884 115.024 101.591 114.828 101.526C114.651 101.476 114.44 101.429 114.391 101.452C114.148 101.597 114.597 102.616 115.779 104.759C117.103 107.111 117.562 107.733 118.698 108.592C119.167 108.972 119.216 108.95 119.244 108.724C119.264 108.584 119.212 108.074 119.095 107.605C118.931 106.849 118.798 106.554 117.786 104.736ZM122.568 99.6093C123.136 99.2916 121.47 96.7867 120.052 95.8538C119.462 95.4692 119.092 95.5427 119.088 96.007C119.088 96.5054 120.471 98.5934 121.067 99.046C121.607 99.4529 122.322 99.7212 122.549 99.5941L122.568 99.6093ZM87.116 88.7956C86.0309 88.6008 85.6875 88.6027 85.3089 88.7629C84.915 88.9419 84.8352 89.0019 84.8174 89.3303C84.7914 89.7454 84.9601 89.8823 85.6643 90.0485C86.1764 90.1835 88.2309 89.9495 88.6213 89.7365C89.2544 89.3776 88.7589 89.069 87.1312 88.7768L87.116 88.7956ZM136.194 69.5607C135.7 69.5957 135.51 69.7532 134.493 70.8915C133.507 71.9922 133.284 72.4969 133.686 72.7294C134.072 72.9808 134.439 72.8733 135.406 72.2557C136.469 71.5594 136.88 71.052 136.916 70.3953C136.928 69.8441 136.655 69.5292 136.213 69.5759L136.194 69.5607ZM89.7789 105.011C89.7789 105.011 89.9606 104.94 90.0181 104.831C90.336 104.248 88.3485 104.131 87.216 104.646C86.7237 104.869 86.583 105.004 86.4597 105.31C86.2555 105.829 86.4638 106.186 86.9654 106.219C87.2596 106.239 87.5737 106.12 88.4835 105.612C89.1166 105.253 89.6887 104.969 89.7754 104.977L89.7789 105.011ZM106.392 98.6699C105.93 97.5158 104.943 97.2762 104.298 98.1863C103.996 98.5962 104.036 99.3137 104.375 99.7762C104.752 100.269 105.479 100.485 105.934 100.23C106.389 99.9762 106.606 99.2487 106.373 98.6547L106.392 98.6699ZM140.951 82.5823C139.766 82.587 139.252 82.7616 139.302 83.0828C139.352 83.404 139.604 83.5148 140.931 83.7185C142.502 83.9651 143.155 83.965 143.595 83.7296C144.065 83.4566 144.086 83.1622 143.662 82.8805C143.275 82.6291 142.563 82.5497 140.951 82.5823ZM95.3515 114.269C94.7159 114.938 94.0046 116.542 93.9173 117.531C93.8086 118.814 94.9674 119.224 95.5576 118.114C95.9061 117.493 96.5782 114.672 96.4906 114.321C96.3292 113.754 95.8616 113.717 95.3515 114.269ZM135.179 127.044C135.529 126.767 136.582 125.813 137.524 124.958C138.467 124.102 140.752 122.091 142.598 120.505C144.445 118.918 146.099 117.455 146.263 117.214C146.607 116.714 146.505 116.226 146.023 116.053C145.685 115.935 145.408 116.084 144.173 117.108C143.668 117.539 142.706 118.38 142.045 118.965C141.402 119.565 139.4 121.306 137.598 122.836C134.566 125.425 132.681 127.136 132.55 127.373C132.451 127.572 132.764 127.952 133.066 128.04C133.487 128.133 134.389 127.712 135.198 127.059L135.179 127.044ZM146.954 118.928C146.776 119.033 146.222 119.486 145.738 119.967C145.252 120.414 143.636 121.907 142.161 123.266C135.595 129.251 134.856 130.085 135.543 130.58C135.805 130.793 135.854 130.77 136.431 130.366C138.131 129.19 147.463 120.868 148.028 120.018C148.521 119.295 147.716 118.487 146.954 118.928ZM149.838 122.078C150.068 122.483 149.913 122.98 149.489 123.197C148.985 123.474 148.98 123.594 149.291 124.283C150.381 126.694 148.646 130.211 145.462 131.99C144.39 132.585 143.557 132.844 142.515 132.903C141.73 132.951 140.42 132.574 139.986 132.19C139.705 131.962 139.686 131.947 139.291 132.281C138.638 132.779 137.937 132.647 137.976 132.024C138.014 131.556 144.863 124.991 148.077 122.332C148.917 121.642 149.544 121.559 149.838 122.078ZM148.199 124.519C148.113 124.356 148.129 124.337 146.399 125.894C143.301 128.679 140.826 131.002 140.889 131.115C140.993 131.293 141.923 131.487 142.505 131.46C143.615 131.395 144.413 131.139 145.429 130.499C146.943 129.514 147.957 128.187 148.393 126.578C148.557 125.993 148.47 124.988 148.218 124.534L148.199 124.519Z" fill="#101010"/>
<path d="M228.985 0.933692C227.675 0.215092 225.287 0.02715 223.593 0.513587C222.569 0.801028 222.239 0.801027 221.942 0.491476C221.117 -0.370844 220.071 -0.138681 217.331 1.50857C214.91 2.96788 208.274 7.88753 205.247 10.4856C203.322 12.1328 203.267 12.1991 203.553 12.4976C203.916 12.8846 203.784 12.962 209.275 8.94885C213.6 5.78701 219.191 2.19401 220.214 1.91762C220.808 1.75179 220.786 1.79601 219.873 2.53672C219.334 2.96788 217.826 4.09554 216.528 5.02419C209.991 9.70062 203.52 14.6755 203.487 15.0404C203.443 15.5158 203.916 15.4052 205.027 14.7087C208.791 12.3318 213.325 15.2725 213.776 20.3801C213.93 22.0937 213.809 22.2927 211.96 23.5641L211.19 24.0947L211.135 22.9671C211.058 21.3751 210.64 20.1259 209.737 18.7108C207.724 15.571 204.62 15.1178 202.023 17.5721C201.594 17.9811 195.915 22.6244 189.4 27.9089C178.407 36.8195 169.515 44.105 165.993 47.1121C165.179 47.8086 164.287 48.704 163.99 49.1352C163.693 49.5664 162.934 51.4237 162.306 53.292C161.679 55.1604 161.118 56.7745 161.063 56.885C160.92 57.1835 161.03 57.6257 161.305 57.9242C161.448 58.079 162.504 57.9906 163.968 57.7142C165.311 57.4599 167.259 57.0951 168.326 56.8961C170.428 56.5092 171.87 55.9674 171.716 55.6137C171.672 55.5031 171.341 55.4478 171.011 55.5031C167.259 56.0669 165.058 54.884 165.003 52.2639C164.981 51.3131 165.069 51.0478 165.586 50.5614C166.367 49.8206 167.688 49.4337 168.986 49.5664C169.845 49.6548 170.12 49.7875 170.747 50.4619C171.484 51.2468 172.178 52.9714 172.2 54.077C172.211 54.7182 172.75 55.2378 173.168 55.0167C173.63 54.7845 183.007 47.499 187.243 44.0939C191.48 40.6778 203.993 30.6395 206.777 28.4285C207.933 27.4998 209.198 26.4938 209.594 26.1732C210.013 25.8304 210.574 25.5872 210.948 25.5762C211.289 25.5762 211.707 25.5319 211.861 25.4988C212.015 25.4656 214.448 23.6415 217.298 21.4414C224.198 16.1127 227.973 13.3378 228.655 13.1057C229.876 12.6856 231.802 9.07046 231.978 6.88149C232.176 4.37192 230.999 2.01712 229.029 0.933692H228.985ZM201.066 26.14C194.188 31.6566 176.58 45.8739 174.61 47.5101L173.322 48.5824L173.498 49.5664C173.74 50.9815 174.797 51.3131 175.094 50.0639C175.204 49.6216 175.468 49.3232 176.294 48.7262C176.877 48.3061 179.353 46.3492 181.774 44.3814C184.206 42.4135 189.279 38.3451 193.076 35.3049C196.873 32.2757 201.187 28.7933 202.694 27.544C206.326 24.5259 208.868 22.5138 209.022 22.5138C209.088 22.5138 209.11 22.8786 209.088 23.3209C209.033 24.0947 208.978 24.1611 207.669 25.1671C206.909 25.742 203.861 28.2405 200.857 30.739C197.863 33.2265 192.878 37.3612 189.775 39.9039C186.671 42.4577 181.818 46.5151 178.99 48.9141C176.162 51.3131 173.806 53.292 173.762 53.3031C173.718 53.3031 173.597 52.9493 173.498 52.496C172.959 50.1523 170.813 47.5322 168.876 46.8689L167.919 46.5372L168.755 45.9291C169.217 45.5864 171.605 43.7402 174.082 41.8055C176.558 39.8708 183.447 34.4094 189.422 29.6556C195.387 24.9018 200.934 20.5238 201.737 19.9269C202.551 19.3188 203.52 18.5339 203.916 18.1801C204.466 17.6716 204.752 17.5499 205.214 17.6384C206.161 17.8263 207.382 18.6887 207.911 19.551C208.34 20.2585 208.34 20.3249 207.79 20.7671C207.47 21.0213 204.466 23.4425 201.099 26.14H201.066ZM229.832 3.43221C231.12 5.54379 230.548 8.86041 228.578 10.7288C228.171 11.1157 226.773 12.177 225.474 13.0836C224.176 13.9901 221.722 15.8474 220.016 17.2183C218.299 18.5892 216.516 20.0042 216.032 20.3691L215.152 21.0435L214.932 19.9821C214.734 19.0203 214.767 18.8766 215.306 18.4565C215.636 18.2022 217.54 16.7982 219.565 15.3278C224.132 11.9891 228.677 7.84331 229.084 6.61616C229.579 5.11263 228.963 3.89654 227.863 4.21714C226.927 4.48247 225.023 6.00812 224.572 6.84833C224.198 7.54482 224.319 8.26342 224.836 8.39608C225.045 8.45136 224.99 8.55086 224.671 8.7388C224.22 8.99307 220.863 11.3479 217.067 14.0675C216.043 14.7972 214.943 15.6595 214.591 15.9911L213.963 16.5881L212.676 15.2173C211.212 13.6585 210.101 13.0836 208.406 13.0283C207.658 13.0062 207.492 12.9398 207.779 12.7961C207.999 12.6856 209.892 11.381 211.971 9.89962C218.332 5.37796 220.104 4.08448 221.249 3.08949C222.58 1.93973 224.583 1.30958 226.311 1.49752C227.62 1.64124 229.315 2.56989 229.843 3.43221H229.832Z" fill="#101010"/>
<defs>
<clipPath id="clip0_3778_18917">
<rect width="58.0603" height="46.8711" fill="white" transform="translate(43.1953 139) rotate(67.1577)"/>
</clipPath>
</defs>
</svg>
