<svg width="150" height="150" viewBox="0 0 167 165" fill="none" xmlns="http://www.w3.org/2000/svg">
<path d="M164.919 162.046C164.326 162.245 163.527 162.654 162.705 162.747C159.849 163.051 156.981 163.408 154.114 163.461C143.309 163.659 132.516 163.765 121.711 163.87C109.418 163.989 97.1243 164.042 84.8431 164.148C73.4331 164.241 62.0351 164.452 50.6251 164.452C42.4336 164.452 34.2421 164.095 26.0506 164.069C21.8762 164.069 17.714 164.452 13.5396 164.65C10.6598 164.782 7.7922 164.941 4.91248 164.994C1.02847 165.047 0 163.91 0 159.627C0 157.354 0.0967976 155.067 0.205695 152.794C0.689683 142.537 1.18577 132.266 1.66976 122.009C2.17795 111.276 2.58933 100.543 3.19432 89.8233C3.9445 76.5128 4.39219 63.2023 4.1502 49.8786C4.1139 47.8827 4.18649 45.8735 4.34379 43.8908C4.98507 35.5106 4.0776 27.1569 4.0292 18.7899C4.0171 16.2653 4.96088 14.613 6.66693 13.3177C10.4662 10.4626 14.326 7.68681 18.1495 4.88459C18.8029 4.40875 19.5168 3.98577 20.0492 3.37775C21.9246 1.27609 24.2236 0.416918 26.8492 0.205431C30.0556 -0.058929 33.2258 -0.058929 36.4564 0.152559C44.3454 0.681278 52.2223 1.64619 60.1597 0.575534C62.5191 0.258302 64.9996 0.813457 67.4074 1.14391C76.4822 2.39961 85.5932 2.78294 94.7285 2.47892C104.106 2.16169 113.483 1.76515 122.884 2.55823C127.64 2.95477 132.455 2.55823 137.247 2.59788C141.772 2.62432 146.297 2.7565 150.835 2.80937C154.404 2.84903 157.962 2.79615 161.531 2.83581C164.12 2.86224 164.749 3.44384 164.943 6.29892C165.657 17.0187 166.697 27.712 166.552 38.4979C166.468 44.5782 166.903 50.6584 166.964 56.7387C167.024 62.4357 166.927 68.1194 166.867 73.8163C166.806 79.2225 166.71 84.6287 166.637 90.048C166.516 99.4592 166.359 108.87 166.274 118.282C166.214 125.499 166.298 132.716 166.177 139.933C166.105 144.017 165.73 148.101 165.488 152.173C165.306 155.279 165.125 158.385 164.907 162.06L164.919 162.046ZM2.25054 161.253C3.12172 161.385 3.9324 161.623 4.75518 161.623C7.7922 161.623 10.8413 161.57 13.8784 161.465C17.8591 161.319 21.7916 160.156 25.8328 160.751C27.6357 161.015 29.4749 161.121 31.3019 161.134C38.1624 161.187 45.023 161.187 51.8956 161.187C66.3547 161.214 80.8139 161.253 95.2609 161.253C115.213 161.253 135.154 161.28 155.106 161.214C157.308 161.214 159.619 161.729 161.858 160.54C161.979 157.38 162.184 154.287 162.196 151.181C162.233 144.466 162.088 137.752 162.16 131.037C162.305 115.466 162.499 99.8954 162.753 84.3246C162.862 77.7685 163.14 71.2124 163.37 64.6563C163.503 60.9553 163.733 57.2542 163.854 53.5532C163.939 50.9889 164.011 48.4246 163.902 45.8603C163.648 40.1634 163.225 34.4664 162.959 28.7695C162.692 23.0725 162.584 17.3624 162.317 11.6522C162.221 9.5241 161.882 7.39601 161.676 5.54549C154.162 5.54549 147.035 5.54549 139.909 5.54549C139.304 5.54549 138.675 5.42653 138.082 5.53227C132.262 6.52362 126.43 5.61158 120.598 5.6248C115.286 5.6248 109.95 5.21504 104.65 5.51906C92.5385 6.20639 80.4388 6.25926 68.3754 4.75241C64.201 4.2237 60.0871 3.60245 55.9127 4.46162C55.6586 4.51449 55.3924 4.51449 55.1262 4.48806C48.0721 4.11795 41.0301 3.70819 33.9759 3.37775C31.6528 3.272 29.3055 3.36453 26.8734 3.36453C26.6072 4.40875 26.3652 5.30757 26.1474 6.20639C25.3005 9.69594 24.4535 13.1855 23.6307 16.6882C23.183 18.6181 22.7232 20.5347 22.3844 22.4909C21.9851 24.7512 21.356 25.4914 19.3837 24.7777C17.1816 23.9846 15.1004 22.7553 13.0435 21.5789C11.168 20.495 9.67976 18.6445 7.53811 18.1158C7.35661 18.4066 7.18722 18.552 7.17512 18.7106C7.12672 19.464 7.07832 20.2307 7.10252 20.9973C7.42921 30.4746 7.59861 39.9519 7.21142 49.4424C6.80003 59.5013 7.32032 69.5602 6.63063 79.6323C5.78365 92.0439 5.48116 104.495 4.83988 116.933C4.38009 125.948 3.7751 134.936 3.24272 143.951C3.14592 145.656 3.06122 147.361 2.96443 149.08C2.73453 153.045 2.50464 157.024 2.26264 161.306L2.25054 161.253ZM23.0378 5.13574C18.0648 8.54597 13.5275 11.639 8.60288 15.0096C12.4143 17.6267 15.8869 20.0192 19.5047 22.5042C20.7026 16.6222 21.8158 11.1367 23.0378 5.13574Z" fill="#101010"/>
<path d="M137.965 81.5968C137.809 77.6484 137.378 74.5614 136.502 71.0197C136.166 69.6676 135.866 68.2438 135.83 67.837C135.794 67.4302 135.543 66.7003 135.279 66.2097C135.015 65.7192 134.427 64.391 133.959 63.2304C130.422 54.472 123.478 46.2041 114.867 40.4728C112.096 38.6302 106.495 35.8184 104.852 35.4355C104.205 35.2919 103.173 34.9569 102.526 34.6937C100.619 33.9159 96.8409 32.9707 93.9985 32.5519C91.5519 32.193 84.2002 31.834 83.6485 32.0494C83.5166 32.0973 81.8975 32.2767 80.0386 32.4323C76.0089 32.7793 73.7062 33.4852 67.5298 36.2731C59.9982 39.6592 55.7406 42.5308 50.7635 47.5562C45.4505 52.9165 42.0685 58.2051 38.9383 66.0542C36.5997 71.8931 36 75.5305 36 83.583C36.024 105.407 50.3197 124.767 71.4276 131.575C76.9924 133.37 82.5931 134.147 88.6496 133.956C105.284 133.442 120.083 125.245 129.342 111.426C135.183 102.703 138.373 91.6954 137.965 81.5968ZM50.5236 114.25C49.876 113.711 46.8178 109.523 45.5705 107.477C40.3895 98.9223 37.9789 88.8118 38.6984 78.7491L38.8544 76.6313L39.9337 76.7629C40.7732 76.8587 41.0851 76.8108 41.3369 76.5236C41.6008 76.2125 41.5888 76.0809 41.253 75.71C41.0251 75.4587 40.4974 75.2075 40.0297 75.1118L39.2022 74.9562L39.3581 73.7717C39.8378 70.1223 41.6607 64.75 43.8914 60.3827C47.4654 53.4071 53.0422 47.3049 60.214 42.5428C64.6395 39.5994 68.5372 37.6132 72.351 36.3688C74.9415 35.5193 75.3373 35.4475 76.1169 35.6868C76.7645 35.8902 77.2442 35.8782 77.9878 35.6868C81.3218 34.7655 89.0094 34.4903 93.4828 35.1364C94.8141 35.3278 96.8169 35.6987 97.9802 35.962C99.6353 36.3449 100.043 36.5243 99.9471 36.7995C99.7552 37.3021 88.5297 81.6806 87.966 84.1693C87.4263 86.5623 86.7547 88.7041 86.5388 88.7041C86.4669 88.7041 85.6154 88.5007 84.6679 88.2375C83.7085 87.9862 82.6891 87.7708 82.4012 87.7708C81.8376 87.7708 81.7056 88.2853 82.1734 88.6443C82.4972 88.9075 85.2676 90.0083 85.9032 90.1279C86.1551 90.1758 85.0397 91.0732 82.869 92.5688C72.9387 99.4128 65.2631 104.689 61.6172 107.154C59.3745 108.674 56.0404 110.959 54.2055 112.227C51.4111 114.166 50.8234 114.489 50.5236 114.25ZM128.335 106.819C123.31 115.279 115.298 122.398 106.351 126.382C99.7912 129.302 93.9506 130.534 86.6588 130.534C78.8993 130.534 72.5069 129.086 65.6949 125.784C61.1255 123.57 55.5847 119.658 52.4545 116.427L51.579 115.518L57.5636 111.234C74.8696 98.8505 87.1505 90.3194 87.4863 90.463C87.6782 90.5467 92.9192 92.2697 99.1316 94.3157C105.356 96.3618 114.495 99.2812 119.472 100.813C129.114 103.792 129.654 103.972 129.654 104.366C129.654 104.51 129.054 105.623 128.335 106.831V106.819ZM133.936 92.174C133.408 94.8063 132.316 98.4078 131.381 100.633C130.577 102.536 130.517 102.631 129.93 102.488C129.594 102.416 125.241 101.004 120.227 99.365C107.323 95.1293 104.468 94.208 99.6113 92.7483C93.9506 91.0373 88.6256 89.3382 88.7096 89.2545C89.0214 88.9673 102.298 82.7814 107.767 80.3644C127.435 71.7017 131.249 70.0027 131.993 69.6078C132.436 69.3685 132.868 69.1651 132.952 69.1651C133.024 69.1651 133.324 70.1582 133.6 71.3906C135.111 77.9714 135.243 85.7726 133.947 92.174H133.936ZM45.6304 78.462C44.5151 78.462 42.992 77.3732 43.3398 76.8108C43.4597 76.6194 43.9274 76.5715 44.7909 76.6672C47.0936 76.9065 47.8252 78.462 45.6304 78.462ZM52.7783 80.185C51.9268 81.2139 48.4128 79.7901 48.8686 78.6056C49.1324 77.9235 51.3631 78.3304 52.4545 79.2756C52.9942 79.7303 53.0422 79.8739 52.7783 80.185ZM55.6447 80.6516C55.7526 80.3525 55.9925 80.3166 56.784 80.4482C58.7629 80.7712 59.8662 81.6088 59.2546 82.3267C58.8708 82.7814 58.0193 82.7215 56.9759 82.1951C55.9085 81.6447 55.4648 81.1302 55.6447 80.6516ZM62.3608 82.8053C62.8165 82.6139 64.6635 82.901 65.395 83.26C66.6783 83.9061 65.7908 84.8872 64.1598 84.612C62.6966 84.3608 61.4973 83.1523 62.3608 82.7933V82.8053ZM68.909 85.1146C69.0409 84.7676 69.2808 84.7078 70.2762 84.7915C71.9792 84.9231 72.9147 85.4017 72.9147 86.1316C72.9147 86.5982 72.7708 86.7299 72.2191 86.7897C70.7559 86.9572 68.6212 85.8803 68.921 85.1026L68.909 85.1146ZM75.3613 87.5076C74.6177 87.0529 74.5937 87.0051 74.9895 86.7179C75.4812 86.3589 77.3881 86.4906 78.5754 86.9692C79.5109 87.3401 79.5948 88.1058 78.7433 88.4887C78.1077 88.7759 76.8844 88.4169 75.3613 87.4956V87.5076Z" fill="#101010"/>
</svg>
