<svg width="150" height="150" viewBox="0 0 260 201" fill="none" xmlns="http://www.w3.org/2000/svg">
<path d="M43.907 200.02C42.848 200.02 41.6971 200.02 40.4361 200.02C35.3736 200.007 31.4313 195.397 31.064 189.055C30.3049 175.943 29.8703 145.739 29.454 133.823C29.4296 133.099 29.8948 132.485 30.4947 132.454C31.0824 132.424 31.5966 132.988 31.6272 133.713C32.0373 145.61 32.472 175.795 33.231 188.871C33.5187 193.874 36.4877 197.374 40.4422 197.386C47.231 197.404 50.8243 197.368 54.6135 197.318C57.6682 197.282 131.794 197.245 137.083 197.232C137.683 197.232 138.166 197.822 138.166 198.546C138.166 199.271 137.683 199.866 137.083 199.866C131.806 199.878 57.6804 199.915 54.6319 199.952C51.5344 199.989 48.5777 200.026 43.907 200.026V200.02Z" fill="#101010"/>
<path d="M219.332 197.485C220.415 197.369 221.591 197.234 222.876 197.086C228.049 196.503 231.569 191.475 231.25 185.134C231.14 182.899 229.487 146.264 228.612 134.373C228.557 133.649 228.018 133.09 227.4 133.127C226.8 133.164 226.329 133.784 226.384 134.508C227.259 146.381 228.955 183.955 229.022 185.195C229.273 190.205 226.629 194.017 222.582 194.471C215.647 195.257 211.98 195.619 208.099 196.006C204.977 196.313 147.336 196.571 141.937 197.16L141.405 197.222C140.419 198.498 141.252 199.886 142.219 199.781C147.612 199.198 205.246 198.94 208.362 198.633C211.527 198.32 214.551 198.02 219.326 197.492L219.332 197.485Z" fill="#101010"/>
<path d="M40.3198 56.5121C39.2608 56.5919 38.11 56.6779 36.855 56.77C31.7987 57.1567 28.0951 62.0433 28.0462 68.4033C27.9421 81.5467 29.0134 111.726 29.1909 123.654C29.2031 124.378 29.699 124.961 30.2928 124.943C30.8804 124.931 31.3702 124.329 31.3579 123.605C31.1743 111.695 30.103 81.5406 30.2132 68.4278C30.2499 63.4123 33.0352 59.6982 36.9897 59.4036C43.7662 58.8879 47.3535 58.6608 51.1366 58.4275C54.1851 58.2372 140.182 55.9105 145.459 55.536L145.979 55.4992C147.008 54.2653 146.273 52.841 145.33 52.9086C140.06 53.283 54.0688 55.6097 51.0264 55.8C47.935 55.9903 44.9844 56.1745 40.3198 56.5183V56.5121Z" fill="#101010"/>
<path d="M171.959 102.532C166.451 92.3364 158.373 83.6789 148.226 78.0342C139.295 73.0673 128.988 70.6168 118.792 71.496C108.314 72.3966 98.6886 76.8846 90.6666 83.6177C81.8714 90.9974 75.1014 100.987 71.78 112.012C68.3971 123.234 68.6971 135.334 73.2054 146.206C75.5483 151.853 79.0156 156.988 82.9484 161.642C86.8189 166.215 91.2859 170.267 96.2022 173.678C105.527 180.15 116.793 184.287 128.238 183.865C133.961 183.651 139.574 182.282 144.757 179.852C149.984 177.397 154.585 173.812 158.824 169.925C166.652 162.737 173.185 153.897 176.693 143.78C180.411 133.074 180.084 121.444 176.209 110.828C175.67 109.357 175.072 107.906 174.422 106.48C174.076 105.728 173.718 105.114 173.201 104.474C172.746 103.91 172.037 103.317 171.705 102.693C171.614 102.526 171.365 102.68 171.456 102.84C171.622 103.149 171.671 103.638 171.759 103.982C171.859 104.372 171.959 104.761 172.053 105.159C172.249 105.966 172.541 106.655 172.88 107.414C173.516 108.834 174.087 110.288 174.599 111.755C175.565 114.517 176.303 117.364 176.788 120.25C177.666 125.508 177.615 130.935 176.625 136.164C174.713 146.283 169.53 155.449 162.719 163.07C155.47 171.183 146.511 178.342 135.738 180.817C125.044 183.271 113.819 181.034 104.17 176.051C93.9516 170.773 85.251 162.57 79.0445 152.892C72.8059 143.163 70.3097 131.466 71.8653 120.014C73.3622 108.988 78.3825 98.4622 85.8144 90.2229C92.8203 82.4532 102.02 76.2798 112.257 73.8448C121.767 71.5775 131.889 72.454 141.022 75.8625C151.221 79.6722 160.011 86.7404 166.443 95.5017C168.196 97.8876 169.772 100.4 171.194 102.995C171.476 103.509 172.246 103.039 171.972 102.531L171.959 102.532Z" fill="#101010"/>
<path d="M106.034 102.733C99.6396 100.819 93.1048 104.659 86.9028 106.019C81.2694 107.322 77.0519 108.998 72.796 111.64C70.9349 117.681 70.1182 124.031 70.5407 130.406C71.0551 128.864 71.3133 127.259 72.8986 126.49C72.868 127.063 73.2036 127.849 72.9684 128.604C73.4248 127.292 73.7277 125.391 74.9063 124.88C74.9063 124.88 81.3134 133.122 82.2271 133.945C84.6176 135.617 90.9731 134.844 89.9483 139.386C97.5421 137.148 93.2378 142.072 91.8707 145.827C91.6276 146.773 92.3438 147.582 91.918 148.323C91.2796 149.437 89.5296 149.911 89.0958 150.842C87.1799 154.178 89.759 152.605 91.6173 153.483C93.863 154.383 92.9443 157.016 94.9316 159.046C95.8385 159.87 97.8631 161.328 99.1427 162.365C100.422 163.396 102.493 163.906 103.537 165.692C104.231 166.883 104.08 169.562 104.751 171.134C105.27 172.126 104.441 173.225 105.963 173.317C107.097 173.576 109.607 169.889 110.23 168.966C111.903 166.569 111.454 167.691 110.799 165.738C110.318 164.173 109.206 163.532 108.946 161.41C108.686 159.288 108.418 157.35 107.945 155.594C107.326 153.061 106.148 153.572 108.551 151.793C110.155 150.541 110.886 151.159 111.936 149.496C112.765 148.396 113.045 146.877 113.683 145.763C112.639 143.977 113.726 141.734 113.07 139.78C112.116 136.46 111.082 137.743 108.784 137.804C106.866 137.88 105.389 137.026 103.457 137.3C101.53 137.568 99.4856 139.752 98.4789 137.393C98.471 137.583 98.4563 137.774 98.6391 137.98C92.2893 135.302 104.739 131.819 105.847 129.194C106.729 127.133 106.581 123.096 107.097 120.828C107.893 117.035 108.296 116.676 111.469 114.752C113.652 113.348 115.888 111.179 115.109 108.058C114.163 104.548 109.238 103.686 106.041 102.732L106.034 102.733Z" fill="white"/>
<path d="M106.167 102.235C102.883 101.29 99.4964 101.751 96.2553 102.652C92.8758 103.587 89.6088 104.836 86.1971 105.652C82.6863 106.492 79.2534 107.635 76.016 109.247C75.2755 109.613 74.5444 110.004 73.8294 110.422C73.4649 110.628 73.101 110.84 72.7452 111.066C72.3131 111.339 72.2791 111.539 72.1395 112.034C71.5984 113.85 71.155 115.697 70.808 117.562C70.0225 121.794 69.7528 126.118 70.0278 130.414C70.0675 131.013 70.8684 131.115 71.0548 130.548C71.5044 129.168 71.7874 127.676 73.1807 126.947C72.9157 126.797 72.6507 126.647 72.3924 126.497C72.392 127.168 72.6385 127.807 72.4756 128.474C72.3187 129.134 73.2681 129.371 73.4819 128.739C73.8514 127.638 74.0359 125.905 75.1811 125.33C74.9455 125.272 74.7026 125.208 74.4671 125.151C76.0965 127.251 77.738 129.336 79.4122 131.411C80.1753 132.351 80.9078 133.457 81.8133 134.268C82.9351 135.28 84.8225 135.437 86.2243 135.805C87.0848 136.03 88.0216 136.275 88.7324 136.827C89.5235 137.439 89.6456 138.321 89.4487 139.256C89.3719 139.636 89.6999 140.01 90.0933 139.889C90.6646 139.724 93.6272 138.675 93.8024 139.816C93.8796 140.316 93.5641 140.944 93.3716 141.384C93.0802 142.05 92.746 142.693 92.4258 143.342C92.0936 144.006 91.7687 144.675 91.4934 145.367C91.327 145.797 91.2723 146.195 91.3321 146.657C91.4133 147.265 91.7127 147.825 91.2519 148.352C90.604 149.102 89.5879 149.413 88.9392 150.156C88.4417 150.721 87.9137 151.723 87.8966 152.497C87.8699 153.984 89.8239 153.591 90.7607 153.768C93.1246 154.23 92.8356 157.078 93.9797 158.718C94.5715 159.567 95.4429 160.171 96.2487 160.795C97.1415 161.478 98.023 162.182 98.9151 162.859C100.517 164.074 102.861 164.611 103.387 166.822C103.647 167.935 103.688 169.082 103.922 170.204C104.021 170.662 104.204 171.07 104.336 171.511C104.459 171.926 104.394 172.353 104.483 172.777C104.648 173.54 105.344 173.877 106.085 173.857C106.705 173.842 107.235 173.403 107.675 173.006C108.839 171.941 109.751 170.589 110.642 169.301C111.026 168.747 111.667 168.127 111.864 167.464C111.995 167.024 111.773 166.694 111.593 166.312C111.208 165.503 110.957 164.688 110.481 163.916C109.81 162.818 109.529 161.829 109.36 160.552C109.08 158.364 108.85 155.995 107.911 153.975C107.746 153.612 107.517 153.418 107.764 153.115C108.31 152.43 109.298 151.837 110.096 151.506C110.881 151.183 111.542 150.9 112.081 150.203C112.781 149.299 113.186 148.289 113.594 147.232C113.75 146.83 114.166 146.26 114.197 145.837C114.215 145.611 114.108 145.486 114.021 145.292C113.856 144.922 113.776 144.53 113.742 144.127C113.652 142.95 113.912 141.772 113.774 140.594C113.612 139.254 113.009 137.14 111.387 137.011C110.781 136.963 110.178 137.145 109.584 137.225C108.491 137.375 107.449 137.222 106.38 137.004C105.318 136.792 104.24 136.622 103.166 136.831C102.331 136.996 101.584 137.43 100.79 137.734C99.9179 138.065 99.362 138.046 98.9327 137.134C98.701 136.642 97.9725 136.925 97.9667 137.407C97.9595 137.739 98.0238 137.977 98.2006 138.257C98.4333 138.017 98.6727 137.776 98.9048 137.529C98.1988 137.227 97.013 136.723 97.5385 135.83C98.088 134.907 99.2826 134.286 100.168 133.75C101.373 133.027 102.625 132.373 103.821 131.636C104.681 131.109 105.741 130.495 106.25 129.577C106.668 128.816 106.808 127.854 106.926 127.008C107.087 125.854 107.173 124.686 107.272 123.518C107.431 121.665 107.631 119.484 108.547 117.827C109.381 116.313 111.194 115.657 112.515 114.678C114.063 113.533 115.47 111.996 115.737 110.011C116.467 104.619 110.01 103.368 106.174 102.235C105.526 102.042 105.263 103.058 105.91 103.244C109.217 104.22 115.925 105.412 114.605 110.375C113.592 114.163 108.758 114.471 107.352 117.912C106.603 119.742 106.369 121.785 106.206 123.74C106.108 124.915 106.03 126.095 105.829 127.261C105.714 127.936 105.608 128.76 105.162 129.306C104.452 130.177 103.287 130.748 102.335 131.297C101.121 131.995 99.8753 132.648 98.7035 133.429C97.8226 134.012 96.6442 134.795 96.3764 135.899C96.0612 137.204 97.3849 138.007 98.388 138.442C98.833 138.634 99.3908 138.199 99.0922 137.714C99.0613 137.609 99.0372 137.503 99.0064 137.397L98.0404 137.67C98.9278 139.58 100.594 138.946 102.13 138.291C103.153 137.849 104.111 137.692 105.222 137.859C106.422 138.037 107.572 138.382 108.798 138.341C109.539 138.321 110.249 138.121 110.979 138.061C111.623 138.01 111.93 138.312 112.204 138.887C112.777 140.09 112.805 141.314 112.726 142.616C112.657 143.816 112.657 144.961 113.239 146.048C113.235 145.872 113.231 145.696 113.233 145.52C112.439 146.968 112.164 149.219 110.642 150.144C110.145 150.444 109.564 150.577 109.051 150.852C108.391 151.209 107.745 151.708 107.195 152.224C106.521 152.854 106.511 153.424 106.881 154.22C107.552 155.651 107.825 157.229 108.075 158.783C108.245 159.877 108.311 161.003 108.541 162.084C108.709 162.887 109.072 163.61 109.5 164.306C109.888 164.938 110.164 165.54 110.429 166.232C110.522 166.48 110.633 166.713 110.752 166.952C110.794 167.036 110.875 167.238 110.875 167.177C110.867 167.36 110.261 168.058 110.083 168.3C109.751 168.766 109.433 169.239 109.101 169.699C108.378 170.707 107.577 171.891 106.54 172.598C106.097 172.9 105.54 172.936 105.488 172.284C105.434 171.537 105.193 170.958 105.007 170.245C104.619 168.732 104.776 166.995 104.059 165.576C103.301 164.073 101.729 163.356 100.344 162.553C98.8952 161.715 97.588 160.539 96.2742 159.498C95.5621 158.932 94.9202 158.393 94.505 157.554C94.1073 156.754 93.971 155.866 93.6582 155.037C93.1605 153.711 92.1338 152.906 90.7354 152.707C90.2149 152.637 89.685 152.677 89.1705 152.6C89.1023 152.593 88.8901 152.499 88.9457 152.581C88.8098 152.371 89.2056 151.735 89.2965 151.564C89.6922 150.792 90.1657 150.46 90.8747 149.983C91.4827 149.576 92.1782 149.1 92.4582 148.387C92.8044 147.526 92.1724 146.681 92.4243 145.822C92.6153 145.166 92.9903 144.526 93.2938 143.912C93.8112 142.871 94.4222 141.821 94.7207 140.686C94.9257 139.9 94.9006 138.974 94.1002 138.539C92.8709 137.87 91.0106 138.524 89.8091 138.874C90.026 139.083 90.2368 139.299 90.4537 139.508C90.8182 137.75 90.192 136.288 88.5585 135.496C86.9819 134.733 85.2102 134.585 83.5715 134.01C82.3737 133.588 81.743 132.621 80.9651 131.669C79.8178 130.266 78.6884 128.841 77.5658 127.415C76.8301 126.479 76.0944 125.543 75.3654 124.607C75.1793 124.368 74.9283 124.291 74.6514 124.428C73.2033 125.149 72.9439 127.079 72.4816 128.467C72.8148 128.555 73.1547 128.643 73.4879 128.732C73.6736 127.954 73.4351 127.26 73.4381 126.48C73.4365 126.06 72.9902 125.854 72.6497 126.031C70.9996 126.894 70.5976 128.615 70.0531 130.262C70.3957 130.309 70.7376 130.349 71.0802 130.396C70.8483 126.733 70.9992 123.045 71.5548 119.418C71.829 117.636 72.1988 115.864 72.6523 114.118C72.8272 113.436 72.929 112.226 73.5169 111.822C74.1998 111.354 74.959 110.973 75.6907 110.588C78.7582 108.966 82.0333 107.797 85.3861 106.933C87.0331 106.51 88.6794 106.149 90.3043 105.64C91.877 105.151 93.4369 104.602 95.0096 104.112C98.5483 103.012 102.264 102.193 105.917 103.243C106.564 103.429 106.827 102.42 106.18 102.234L106.167 102.235Z" fill="#101010"/>
<path d="M149.396 80.865L148.501 84.1463C144.551 84.0406 137.313 92.728 134.496 95.6328C131.478 98.8964 128.374 104.005 135.446 104.449C138.92 104.988 142.214 101.65 145.562 102.832C144.585 105.83 141.693 108.458 139.133 110.083C140.766 110.536 142.574 109.427 143.658 107.909C142.346 114.03 150.122 109.429 150.421 112.679C150.768 115.003 140.137 115.858 147.067 119.067C145.743 119.742 144.94 121.177 143.898 121.769C142.097 122.878 141.299 122.193 139.698 122.942C137.256 123.926 133.371 126.226 131.954 128.74C131.027 130.818 137.066 135.18 139.497 136.319C140.572 136.93 140.92 139.253 141.994 139.857C143.427 140.669 145.185 140.479 146.742 140.648C148.934 140.944 153.016 140.406 154.682 142.062C155.474 142.748 154.905 145.028 155.854 146.275C157.96 148.408 158.887 146.337 160.32 147.142C164.259 149.37 161.492 151.355 162.871 155.208C165.075 160.95 168.368 157.605 169.231 153.127C169.974 149.285 169.279 144.638 165.973 142.53C166.825 140.175 169.667 138.467 169.961 136.269C170.254 134.071 168.197 131.011 166.883 129.564C163.703 126.819 155.548 124.668 153.534 120.689C152.194 118.038 151.048 115.029 154.972 113.931C156.036 116.664 158.865 114.415 159.013 117.104C161.738 116.038 169.229 121.753 168.376 116.539C167.638 112.811 160.111 116.127 167.09 110.847C162.709 108.135 160.101 118.249 156.583 111.059C155.161 108.125 161.733 108.91 163.86 106.8C164.544 106.006 165.542 106.326 166.71 105.098C167.393 104.297 168.915 100.608 170.59 101.07C165.157 91.6936 158.041 84.6068 150.152 79.7795C149.761 80.1237 149.493 80.4893 149.398 80.8851L149.396 80.865Z" fill="white"/>
<path d="M148.891 80.7301C148.596 81.8236 148.293 82.9179 147.997 84.0114C148.166 83.8792 148.33 83.7545 148.499 83.6223C146.092 83.606 143.826 85.6084 142.13 87.0929C139.867 89.0611 137.825 91.2716 135.79 93.4813C134.096 95.3248 132.201 97.1206 131.171 99.4465C130.735 100.425 130.423 101.561 130.791 102.608C131.198 103.767 132.327 104.379 133.452 104.68C135.43 105.2 137.377 105.079 139.297 104.413C141.263 103.735 143.316 102.648 145.433 103.337C145.31 103.126 145.187 102.908 145.058 102.697C144.04 105.686 141.444 107.972 138.86 109.627C138.491 109.86 138.546 110.478 138.996 110.582C141.003 111.052 142.867 109.829 144.028 108.269C143.734 108.102 143.441 107.935 143.148 107.774C142.808 109.441 143.008 111.238 144.888 111.727C146.297 112.094 147.827 111.588 149.212 111.992C149.623 112.113 150.031 112.472 149.878 112.901C149.736 113.308 149.032 113.636 148.66 113.829C147.396 114.498 145.801 114.902 144.754 115.921C143.123 117.508 145.52 118.914 146.811 119.517C146.807 119.212 146.804 118.914 146.794 118.61C145.123 119.53 144.24 121.448 142.276 121.875C141.575 122.027 140.855 121.991 140.166 122.195C139.398 122.421 138.64 122.809 137.919 123.172C136.408 123.94 134.953 124.859 133.666 125.97C132.776 126.737 131.293 127.983 131.336 129.287C131.372 130.388 132.243 131.398 132.954 132.154C133.937 133.201 135.076 134.11 136.247 134.941C136.8 135.34 137.372 135.716 137.955 136.071C138.437 136.362 139.1 136.58 139.492 136.981C140.508 138.018 140.536 139.716 141.945 140.422C143.525 141.219 145.484 141.077 147.208 141.223C148.816 141.353 150.452 141.23 152.053 141.496C152.7 141.608 153.371 141.764 153.934 142.121C154.677 142.595 154.631 143.352 154.712 144.157C154.875 145.788 155.532 147.423 157.349 147.749C157.927 147.854 158.459 147.705 159.013 147.562C159.81 147.36 160.305 147.649 160.945 148.161C162.157 149.131 162.072 150.312 161.971 151.731C161.857 153.43 162.11 155.004 162.898 156.531C163.402 157.511 164.191 158.577 165.357 158.751C168.176 159.167 169.49 154.881 169.824 152.822C170.45 148.95 169.729 144.388 166.24 142.074L166.489 142.666C167.418 140.269 170.325 138.805 170.513 136.089C170.613 134.724 170.015 133.341 169.377 132.171C168.782 131.085 168.03 129.853 167.083 129.04C165.147 127.377 162.578 126.421 160.328 125.278C158.099 124.146 155.327 122.845 154.064 120.559C153.494 119.518 152.898 118.29 152.817 117.085C152.713 115.571 153.787 114.827 155.119 114.429L154.475 114.067C154.9 115.074 155.588 115.737 156.671 115.954C157.539 116.125 158.405 115.997 158.495 117.099C158.526 117.415 158.814 117.725 159.16 117.602C160.55 117.104 162.421 118.041 163.715 118.487C164.94 118.907 166.673 119.682 167.961 119.112C169.268 118.534 169.178 116.558 168.539 115.51C167.86 114.399 166.555 114.123 165.38 113.862C165.187 113.82 164.883 113.681 164.713 113.678C164.585 113.677 164.659 113.737 164.696 113.707C164.962 113.463 165.17 113.11 165.448 112.852C166.054 112.29 166.713 111.783 167.366 111.284C167.673 111.05 167.716 110.599 167.349 110.378C165.639 109.363 163.968 110.019 162.514 111.147C161.567 111.879 159.953 113.775 158.618 112.933C158.207 112.676 157.902 112.259 157.639 111.859C157.368 111.446 156.834 110.774 156.909 110.245C157.012 109.516 158.327 109.289 158.881 109.146C159.994 108.858 161.143 108.662 162.233 108.275C162.703 108.112 163.177 107.916 163.596 107.65C164.091 107.33 164.439 106.895 164.999 106.683C165.767 106.389 166.527 106.083 167.084 105.437C167.411 105.059 167.648 104.595 167.902 104.163C168.341 103.414 169.339 101.308 170.451 101.549C170.894 101.647 171.266 101.176 171.029 100.773C165.962 92.0782 158.986 84.5707 150.396 79.2918C150.194 79.163 149.93 79.2301 149.763 79.3823C149.349 79.7694 149.052 80.1719 148.883 80.7173C148.684 81.3607 149.691 81.6258 149.89 80.9825C150.008 80.6115 150.233 80.3653 150.512 80.1137L149.879 80.2042C158.318 85.3831 165.153 92.7691 170.13 101.31C170.321 101.054 170.517 100.79 170.708 100.534C169.472 100.272 168.566 101.277 167.913 102.183C167.19 103.19 166.73 104.605 165.635 105.271C165.068 105.612 164.381 105.701 163.838 106.088C163.334 106.45 162.968 106.846 162.385 107.094C161.232 107.589 159.954 107.785 158.748 108.089C157.851 108.314 156.63 108.599 156.1 109.452C155.495 110.42 156.204 111.562 156.738 112.383C157.265 113.191 157.982 114 158.977 114.158C159.808 114.284 160.587 113.901 161.25 113.442C162.874 112.317 164.668 109.989 166.824 111.271C166.82 110.966 166.817 110.668 166.807 110.364C165.89 111.059 164.893 111.762 164.144 112.644C163.835 113.007 163.498 113.481 163.656 113.987C163.951 114.899 165.49 114.888 166.229 115.118C166.766 115.281 167.318 115.531 167.624 116.022C167.907 116.482 168.108 117.485 167.75 117.954C167.439 118.358 166.729 118.219 166.309 118.139C165.51 117.989 164.726 117.715 163.956 117.447C162.452 116.933 160.459 115.995 158.854 116.569C159.073 116.737 159.293 116.904 159.519 117.071C159.437 116.05 158.992 115.315 157.961 115.079C156.918 114.845 155.946 114.922 155.458 113.765C155.351 113.504 155.115 113.311 154.813 113.402C153.685 113.739 152.545 114.3 152.029 115.423C151.59 116.368 151.72 117.46 152.006 118.427C152.738 120.875 154.131 122.707 156.233 124.136C158.612 125.755 161.295 126.841 163.823 128.194C164.887 128.765 166.061 129.359 166.838 130.298C167.806 131.461 168.685 132.816 169.161 134.26C169.403 134.994 169.563 135.778 169.348 136.538C169.145 137.27 168.654 137.902 168.184 138.477C167.167 139.718 166.037 140.848 165.452 142.37C165.367 142.595 165.52 142.837 165.701 142.962C168.755 144.987 169.329 149.164 168.782 152.533C168.573 153.828 168.189 155.12 167.491 156.24C167.072 156.912 166.298 157.891 165.385 157.678C164.133 157.39 163.418 155.449 163.149 154.385C162.815 153.07 163.052 151.799 163.061 150.47C163.065 149.23 162.609 148.184 161.639 147.4C161.138 146.99 160.532 146.542 159.879 146.432C159.336 146.337 158.836 146.536 158.306 146.65C157.567 146.819 156.958 146.616 156.397 146.076C155.777 145.48 155.763 144.533 155.683 143.735C155.625 143.151 155.592 142.49 155.27 141.974C154.949 141.464 154.347 141.117 153.811 140.893C152.484 140.335 150.986 140.282 149.569 140.241C148.153 140.2 146.749 140.083 145.337 140.014C144.461 139.973 143.558 139.935 142.729 139.618C141.894 139.302 141.577 138.642 141.204 137.88C140.923 137.299 140.65 136.669 140.184 136.2C139.801 135.812 139.282 135.627 138.816 135.361C136.666 134.133 134.251 132.492 132.846 130.403C132.616 130.06 132.274 129.552 132.338 129.112C132.431 128.486 133.176 127.829 133.599 127.4C134.931 126.054 136.569 125.009 138.24 124.143C138.933 123.782 139.66 123.411 140.408 123.187C141.155 122.963 141.952 123.019 142.709 122.821C143.578 122.592 144.367 122.106 145.015 121.492C145.762 120.787 146.378 119.987 147.294 119.489C147.621 119.307 147.632 118.75 147.278 118.582C146.69 118.309 145.454 117.843 145.215 117.149C145.118 116.854 145.507 116.557 145.818 116.35C147.034 115.544 148.476 115.169 149.702 114.382C150.699 113.747 151.416 112.543 150.42 111.498C149.507 110.546 147.831 110.815 146.649 110.819C145.973 110.819 145.118 110.85 144.53 110.448C143.768 109.921 143.958 108.784 144.11 108.01C144.207 107.553 143.569 107.061 143.23 107.515C142.306 108.753 140.85 109.936 139.21 109.544C139.255 109.865 139.3 110.179 139.346 110.5C142.171 108.685 144.902 106.196 146.014 102.933C146.108 102.653 145.891 102.377 145.639 102.293C142.314 101.21 139.51 103.904 136.271 103.957C134.983 103.978 132.99 103.845 132.054 102.8C131.369 102.036 131.604 100.941 131.957 100.079C132.847 97.9029 134.598 96.2232 136.158 94.5286C137.992 92.5356 139.827 90.5425 141.811 88.697C142.93 87.6566 144.099 86.6517 145.381 85.8253C146.282 85.2403 147.33 84.6406 148.439 84.6448C148.669 84.6488 148.882 84.4784 148.941 84.2557C149.236 83.1622 149.539 82.0679 149.835 80.9744C150.013 80.3263 149.007 80.0612 148.829 80.7093L148.891 80.7301Z" fill="#101010"/>
<path d="M152.393 173.978C156.233 171.032 159.862 167.734 163.13 164.134C162.722 163.768 162.396 163.15 162.196 162.161C159.961 162.784 158.085 164.694 155.756 164.995C153.113 165.388 151.667 162.687 148.25 163.991C148.636 160.429 146.466 157.583 143.343 161.217C142.334 162.538 144.476 170.224 139.626 166.4C136.417 169.717 137.155 176.067 131.604 175.898C129.19 175.883 127.342 172.951 124.606 173.021C121.87 173.099 121.447 175.283 119.534 175.82C116.34 176.716 113.797 175.006 111.641 178.373C111.331 178.925 111.28 179.561 111.313 180.222C124.878 184.846 139.641 183.753 152.399 173.978L152.393 173.978Z" fill="white"/>
<path d="M152.661 174.428C156.551 171.436 160.201 168.136 163.505 164.498C163.694 164.29 163.702 163.964 163.492 163.761C163.013 163.294 162.841 162.654 162.696 162.018C162.635 161.746 162.314 161.575 162.051 161.656C159.441 162.446 156.943 165.23 154.04 164.308C153.16 164.03 152.356 163.555 151.46 163.313C150.327 163 149.195 163.099 148.1 163.494C148.319 163.662 148.539 163.829 148.765 163.996C148.903 162.546 148.729 160.741 147.615 159.673C146.494 158.599 145.004 159.04 143.917 159.922C142.848 160.788 142.548 161.495 142.497 162.815C142.455 163.876 142.559 164.984 142.347 166.035C142.284 166.347 142.197 166.83 141.842 166.933C141.258 167.1 140.384 166.34 139.982 166.035C139.762 165.867 139.454 165.824 139.247 166.048C137.646 167.746 137.033 169.99 136.099 172.062C135.667 173.013 135.152 174.007 134.303 174.641C133.417 175.306 132.13 175.55 131.053 175.319C129.824 175.056 128.808 174.155 127.758 173.521C126.643 172.847 125.449 172.39 124.126 172.543C122.884 172.688 121.963 173.349 121.073 174.177C120.665 174.557 120.26 174.964 119.743 175.198C119.013 175.529 118.14 175.583 117.345 175.608C115.917 175.656 114.45 175.518 113.14 176.199C111.598 176.997 110.725 178.528 110.781 180.237C110.785 180.48 110.946 180.667 111.169 180.74C121.8 184.33 133.392 184.368 143.73 179.775C146.906 178.359 149.887 176.549 152.656 174.442C153.183 174.037 152.653 173.135 152.12 173.547C147.494 177.074 142.26 179.733 136.603 181.139C131.322 182.455 125.797 182.676 120.415 181.907C117.357 181.468 114.357 180.725 111.434 179.737C111.566 179.907 111.69 180.071 111.822 180.241C111.788 179.228 112.064 178.475 112.79 177.758C113.294 177.261 113.896 176.936 114.598 176.791C115.916 176.524 117.296 176.744 118.628 176.55C119.887 176.37 120.778 175.887 121.699 175.029C122.706 174.088 123.762 173.366 125.218 173.599C127.587 173.972 129.116 176.353 131.591 176.437C133.836 176.517 135.538 175.371 136.588 173.436C137.774 171.244 138.236 168.643 139.99 166.787C139.747 166.791 139.497 166.795 139.254 166.799C140.045 167.411 141.254 168.347 142.322 167.881C143.15 167.513 143.355 166.517 143.442 165.702C143.56 164.653 143.489 163.603 143.552 162.553C143.574 162.233 143.584 161.859 143.738 161.573C144.092 160.927 145.15 160.15 145.899 160.082C147.727 159.913 147.831 162.836 147.719 164.013C147.691 164.341 148.084 164.62 148.384 164.516C149.526 164.103 150.586 164.099 151.722 164.513C152.605 164.831 153.431 165.311 154.361 165.496C157.352 166.077 159.668 163.494 162.331 162.692L161.686 162.329C161.87 163.151 162.146 163.943 162.759 164.539C162.755 164.296 162.75 164.045 162.746 163.802C159.502 167.373 155.936 170.624 152.115 173.561C151.588 173.966 152.118 174.869 152.651 174.456L152.661 174.428Z" fill="#101010"/>
<path d="M126.047 79.3921C130.202 78.2306 132.967 79.5257 136.218 77.5804C137.057 77.0491 138.258 76.0207 139.508 74.7368C126.394 70.2431 112.362 71.2084 100.883 77.495C93.8929 81.2446 87.7602 86.467 82.8704 92.6287C84.9218 91.4542 86.7643 89.8804 88.657 88.4711C93.3202 85.4424 94.2794 85.1701 99.0569 86.2501C100.604 86.854 100.64 88.226 102.732 88.3282C105.145 88.3439 106.936 86.118 109.078 85.1716C111.313 84.5479 113.319 84.3334 115.646 84.0257C119.478 82.9506 122.315 80.7825 126.06 79.3841L126.047 79.3921Z" fill="#101010"/>
<path d="M126.188 79.906C128.649 79.2461 131.152 79.5442 133.635 79.1057C136.211 78.6444 138.107 76.9297 139.885 75.1185C140.173 74.8253 140.005 74.3678 139.642 74.2483C131.759 71.5753 123.296 70.7425 115.074 72.1016C106.898 73.4493 99.3298 77.0942 92.7876 82.1408C88.9614 85.0923 85.512 88.5009 82.4917 92.2798C82.1374 92.7218 82.598 93.4076 83.1337 93.0896C86.1543 91.3368 88.6627 88.8561 91.7542 87.2046C92.7228 86.6875 93.7429 86.2803 94.8521 86.2234C96.0891 86.1605 97.3511 86.4135 98.5548 86.6928C99.7384 86.974 100.3 88.1307 101.4 88.5897C102.741 89.1534 104.202 88.7631 105.419 88.099C106.886 87.2947 108.127 85.9913 109.772 85.5487C111.595 85.0611 113.486 84.8513 115.354 84.61C117.155 84.3753 118.95 83.4094 120.558 82.5978C122.417 81.6594 124.242 80.6498 126.195 79.912C126.82 79.6733 126.543 78.6642 125.912 78.9036C122.533 80.1841 119.512 82.3434 116.042 83.3823C114.336 83.892 112.459 83.9039 110.711 84.262C109.909 84.4236 109.094 84.5798 108.368 84.9575C107.623 85.3438 106.944 85.8523 106.255 86.3279C104.96 87.2234 103.18 88.4114 101.585 87.5344C101.128 87.2821 100.794 86.8547 100.403 86.5212C99.8852 86.0783 99.3579 85.8059 98.6948 85.6623C96.4707 85.1803 94.3343 84.8997 92.1851 85.8401C88.6313 87.3955 85.9123 90.2701 82.5921 92.2019L83.234 93.0118C88.499 86.4126 95.124 80.9106 102.694 77.1569C109.82 73.6173 117.861 72.1341 125.785 72.5804C130.413 72.8418 134.98 73.7802 139.366 75.2654L139.123 74.3952C137.333 76.2212 135.51 77.854 132.886 78.1711C130.536 78.4607 128.214 78.2799 125.905 78.9043C125.253 79.078 125.537 80.0864 126.188 79.9127L126.188 79.906Z" fill="#101010"/>
<path d="M102.37 76.6905C102.335 77.6901 102.583 78.6817 102.602 79.6827C102.625 80.724 102.609 81.7759 102.699 82.8105C102.713 82.9447 102.927 82.9977 102.953 82.8461C103.155 81.7619 103.238 80.6355 103.195 79.5352C103.16 78.5697 103.13 77.4681 102.606 76.6194C102.541 76.5107 102.37 76.5616 102.362 76.6844L102.37 76.6905Z" fill="white"/>
<path d="M105.678 76.1226C105.657 77.3987 105.748 78.6499 105.835 79.922C105.924 81.1464 105.839 82.3882 105.955 83.6167C105.978 83.8381 106.265 83.877 106.339 83.6664C107.165 81.327 106.614 78.387 105.884 76.0952C105.846 75.9838 105.679 76.0005 105.678 76.1226Z" fill="white"/>
<path d="M108.294 88.2461C107.666 91.1551 107.162 94.0855 106.48 96.9864C106.443 97.1528 106.678 97.2105 106.73 97.0562C107.73 94.2862 108.478 91.2296 108.411 88.2682C108.404 88.2011 108.308 88.1904 108.294 88.2528L108.294 88.2461Z" fill="#101010"/>
<path d="M111.513 102.852C111.559 102.841 111.539 102.775 111.493 102.787C111.447 102.798 111.467 102.863 111.513 102.852Z" fill="#101010"/>
<path d="M113.244 86.8158C112.589 88.5755 112.554 90.6526 112.361 92.5083C112.147 94.5492 111.966 96.5934 111.697 98.6262C111.663 98.8939 112.047 99.0181 112.121 98.7397C112.591 96.829 112.8 94.8633 112.996 92.9056C113.187 90.9076 113.598 88.8675 113.634 86.8648C113.637 86.6273 113.325 86.6179 113.25 86.8151L113.244 86.8158Z" fill="#101010"/>
<path d="M112.231 158.077C114.103 154.027 115.551 149.796 116.847 145.532C117.508 143.366 118.107 141.178 118.636 138.977C119.156 136.817 119.702 134.641 119.94 132.429C119.952 132.285 119.735 132.273 119.7 132.398C119.08 134.568 118.654 136.793 118.089 138.984C117.534 141.133 116.931 143.268 116.285 145.392C115.001 149.641 113.473 153.812 112.078 158.025C112.045 158.109 112.187 158.17 112.225 158.085L112.231 158.077Z" fill="#101010"/>
<path d="M122.459 101.847C122.826 100.041 123.105 98.2448 123.355 96.4172C123.477 95.5444 123.605 94.6709 123.741 93.7967C123.887 92.8944 124.12 91.9833 124.123 91.0682C124.128 90.7831 123.749 90.7736 123.664 91.0058C123.037 92.6407 122.964 94.6064 122.745 96.336C122.517 98.1682 122.401 99.9823 122.376 101.828C122.381 101.875 122.449 101.882 122.459 101.84L122.459 101.847Z" fill="#101010"/>
<path d="M115.007 72.5736C115.71 73.3163 116.285 74.2007 116.741 75.1172C117.197 76.0202 117.404 77.0092 117.755 77.9498C117.848 78.2048 118.187 78.1505 118.215 77.8834C118.469 75.703 117.057 73.344 115.161 72.3616C115.033 72.2932 114.908 72.4615 115.006 72.5669L115.007 72.5736Z" fill="white"/>
<path d="M111.294 73.9086C111.892 75.1633 112.518 76.3475 113.295 77.4962C113.367 77.6042 113.512 77.5083 113.461 77.3982C112.869 76.1429 112.173 74.9929 111.402 73.8436C111.354 73.7738 111.253 73.8382 111.294 73.9086Z" fill="white"/>
<path d="M132.397 79.6456C132.812 81.4879 133.724 83.2464 134.31 85.0445C134.916 86.9151 135.371 88.8279 135.958 90.7004C136.009 90.8715 136.318 90.8541 136.291 90.6535C136.034 88.626 135.534 86.6702 134.907 84.7272C134.348 82.9942 133.699 80.9721 132.435 79.6214C132.42 79.6026 132.389 79.6261 132.397 79.6456Z" fill="#101010"/>
<path d="M130.698 90.8767C130.945 93.1357 131.053 95.3678 131.139 97.6361C131.145 97.832 131.407 97.8193 131.429 97.6342C131.699 95.4048 131.186 93.0505 130.851 90.8546C130.842 90.7674 130.682 90.7835 130.691 90.8707L130.698 90.8767Z" fill="#101010"/>
<path d="M135.538 105.401C135.869 111.277 136.5 117.102 135.655 122.967C135.642 123.036 135.753 123.066 135.766 122.997C136.85 117.149 136.642 111.233 135.717 105.376C135.707 105.276 135.534 105.3 135.544 105.394L135.538 105.401Z" fill="#101010"/>
<path d="M171.094 102.033C171.953 106.02 173.07 109.886 173.486 113.964C173.91 118.062 173.87 122.118 173.327 126.205C173.307 126.342 173.509 126.41 173.549 126.264C174.544 122.234 174.607 117.938 174.108 113.834C173.628 109.857 172.831 105.674 171.225 101.986C171.19 101.908 171.074 101.967 171.095 102.04L171.094 102.033Z" fill="#101010"/>
<path d="M154.55 163.159C155.796 161.029 156.901 158.709 157.658 156.343C157.946 155.44 158.191 154.514 158.402 153.585C158.737 152.074 159.156 150.46 159.081 148.902C159.069 148.713 158.818 148.63 158.721 148.809C157.516 151.017 157.445 153.68 156.917 156.098C156.384 158.537 155.271 160.776 154.479 163.132C154.463 163.175 154.534 163.202 154.557 163.165L154.55 163.159Z" fill="#101010"/>
<path d="M150.2 158.342C150.844 156.272 151.249 154.103 151.733 151.988C151.973 150.941 152.226 149.899 152.494 148.862C152.747 147.881 153.075 146.832 152.946 145.815C152.929 145.647 152.726 145.58 152.626 145.732C152.1 146.55 151.94 147.583 151.771 148.528C151.572 149.639 151.378 150.743 151.165 151.848C150.751 153.991 150.249 156.128 149.924 158.282C149.901 158.453 150.138 158.524 150.188 158.35L150.2 158.342Z" fill="#101010"/>
<path d="M105.227 176.818C106.804 177.114 108.552 176.966 110.143 176.786C111.506 176.636 112.858 176.372 114.166 175.942C117.123 174.969 119.691 173.153 121.991 171.086C122.078 171.009 121.961 170.852 121.86 170.923C119.375 172.696 116.836 174.462 113.911 175.412C112.615 175.834 111.269 176.09 109.912 176.24C108.361 176.402 106.758 176.325 105.232 176.6C105.119 176.618 105.123 176.801 105.233 176.817L105.227 176.818Z" fill="#101010"/>
<path d="M126.699 168.853C128.312 168.027 129.829 166.845 131.275 165.765C132.67 164.724 134.137 163.649 135.207 162.254C135.303 162.129 135.171 161.899 135.014 162.016C133.586 163.074 132.304 164.307 130.892 165.383C129.461 166.476 127.896 167.384 126.48 168.489C126.266 168.652 126.447 168.973 126.699 168.853Z" fill="#101010"/>
<path d="M131.288 161.295C133.473 159.701 135.257 157.408 136.937 155.294C138.306 153.572 139.607 151.788 140.706 149.875C142.277 147.143 143.59 143.996 143.329 140.783C143.309 140.588 143.032 140.582 143.025 140.786C142.854 144.002 141.73 147.015 140.122 149.778C139.026 151.656 137.75 153.424 136.37 155.094C134.676 157.14 132.649 158.956 131.087 161.105C131.004 161.222 131.176 161.388 131.289 161.302L131.288 161.295Z" fill="#101010"/>
<path d="M116.538 154.105C118.366 151.848 119.543 149.094 120.634 146.423C120.677 146.311 120.525 146.211 120.462 146.325C119.119 148.906 118.243 151.691 116.456 154.025C116.414 154.083 116.49 154.164 116.538 154.105Z" fill="#101010"/>
<path d="M122.877 134.28C123.54 132.133 123.815 129.883 124.031 127.659C124.041 127.549 123.87 127.533 123.84 127.637C123.238 129.791 123.139 132.038 122.454 134.173C122.366 134.439 122.796 134.552 122.878 134.286L122.877 134.28Z" fill="#101010"/>
<path d="M82.9848 93.3067C82.1109 95.915 82.317 98.9845 83.1645 101.576C83.2121 101.714 83.4161 101.659 83.3813 101.514C82.7899 98.7812 82.697 96.1003 83.1099 93.3416C83.1219 93.259 83.0108 93.2295 82.9848 93.3067Z" fill="#101010"/>
<path d="M77.3508 99.2627C77.2011 102.422 77.9458 105.539 78.2463 108.674C78.2598 108.808 78.4625 108.808 78.4558 108.673C78.3753 105.51 77.446 102.438 77.5469 99.2634C77.5482 99.1413 77.3588 99.14 77.3508 99.2627Z" fill="#101010"/>
<path d="M76.9097 130.981C77.4363 135.564 78.7544 140.019 80.4463 144.295C81.2869 146.413 82.2185 148.495 83.2531 150.526C84.3065 152.609 85.3933 154.689 86.7717 156.577C86.8581 156.697 87.03 156.592 86.963 156.463C85.994 154.48 84.8651 152.587 83.8647 150.627C82.7819 148.52 81.7626 146.372 80.8537 144.18C79.0922 139.951 77.6899 135.531 77.0916 130.977C77.0802 130.863 76.8976 130.861 76.9157 130.974L76.9097 130.981Z" fill="#101010"/>
<path d="M81.6804 152.176C81.665 153.505 82.4925 154.683 83.6308 155.321C83.8309 155.43 84.1037 155.186 83.9551 154.984C83.2656 154.036 82.7252 153.027 82.0878 152.06C81.9686 151.883 81.685 151.952 81.6804 152.176Z" fill="#101010"/>
<path d="M90.3975 159.194C91.8986 161.497 93.6036 163.678 95.5053 165.663C96.4866 166.689 97.5187 167.683 98.6284 168.575C99.6209 169.377 100.721 170.243 101.922 170.698C102.238 170.816 102.449 170.361 102.233 170.152C101.29 169.244 100.118 168.534 99.0843 167.73C98.0288 166.907 97.0161 166.04 96.0449 165.114C94.0871 163.243 92.346 161.175 90.7935 158.965C90.6281 158.731 90.2449 158.952 90.4049 159.201L90.3975 159.194Z" fill="#101010"/>
<path d="M87.974 146.539C88.1271 144.83 87.7704 143.158 87.5609 141.471C87.5528 141.39 87.4304 141.382 87.4324 141.47C87.5081 143.17 87.931 144.829 87.778 146.538C87.77 146.661 87.9593 146.662 87.974 146.539Z" fill="#101010"/>
<path d="M91.819 102.026C92.3005 100.223 92.5178 98.3442 92.9371 96.5267C93.333 94.8133 93.8039 93.1059 94.0206 91.3562C94.0419 91.1643 93.7575 91.1589 93.7054 91.3132C93.0807 93.036 92.6607 94.8467 92.2728 96.6407C91.8983 98.3656 91.4201 100.202 91.4905 101.984C91.4959 102.174 91.7709 102.221 91.8257 102.025L91.819 102.026Z" fill="#101010"/>
<path d="M118.893 72.3718C120.289 73.0858 121.757 73.6502 122.992 74.6379C124.255 75.643 125.177 76.9601 126.354 78.0552C126.518 78.2081 126.769 78.0136 126.655 77.815C125.818 76.347 124.543 75.0111 123.216 73.9784C121.956 73.0001 120.551 72.2667 118.923 72.2672C118.869 72.2725 118.843 72.3497 118.893 72.3718Z" fill="white"/>
<path d="M107.936 75.2434C108.93 75.7944 109.525 76.8122 110.08 77.7663C110.154 77.8944 110.378 77.8381 110.363 77.6838C110.279 76.4453 109.299 75.1611 108.07 74.8979C107.87 74.857 107.742 75.1341 107.929 75.2441L107.936 75.2434Z" fill="white"/>
<path d="M100.918 77.9153C100.008 79.687 99.6376 81.8587 99.5863 83.8426C99.5837 83.9513 99.7483 83.9754 99.7777 83.8641C100.256 81.8984 100.392 79.879 100.989 77.9421C101.005 77.8999 100.934 77.873 100.911 77.9092L100.918 77.9153Z" fill="white"/>
<path d="M99.299 90.8823C98.0228 93.1176 98.4167 95.7006 98.2928 98.1729C98.2821 98.3366 98.5243 98.3259 98.543 98.175C98.8322 95.7336 98.6632 93.3042 99.4047 90.9259C99.4254 90.8629 99.327 90.8253 99.299 90.8823Z" fill="#101010"/>
<path d="M135.3 80.1211C136.076 81.3308 136.909 82.4942 137.61 83.7589C138.295 84.9982 138.784 86.3655 139.545 87.5632C139.61 87.6651 139.816 87.6309 139.795 87.4907C139.622 86.0986 138.894 84.7688 138.2 83.5711C137.442 82.2782 136.591 81.0081 135.544 79.9272C135.423 79.797 135.203 79.9681 135.3 80.1211Z" fill="#101010"/>
<path d="M136.627 76.8139C137.237 77.505 138.058 78.0123 138.688 78.7014C139.393 79.471 140.048 80.2728 140.648 81.1343C141.785 82.7687 142.796 84.5038 143.8 86.2261C143.89 86.3864 144.177 86.2764 144.111 86.0933C143.352 84.0483 142.33 82.1448 141.026 80.3916C140.378 79.5147 139.678 78.6699 138.849 77.9533C138.243 77.4313 137.503 76.7872 136.671 76.7146C136.616 76.7066 136.603 76.7757 136.634 76.8132L136.627 76.8139Z" fill="#101010"/>
<path d="M140.99 75.5716C141.87 77.0759 142.859 78.5151 143.86 79.9395C144.805 81.2814 145.636 82.7568 146.762 83.9518C146.868 84.0632 147.058 83.9425 147.017 83.7975C146.547 82.2115 145.434 80.8796 144.427 79.5981C143.343 78.2159 142.195 76.8807 141.117 75.4911C141.063 75.422 140.94 75.4817 140.989 75.5649L140.99 75.5716Z" fill="#101010"/>
<path d="M79.0166 148.737C78.7671 147.393 78.1864 146.116 77.6553 144.861C77.0994 143.562 76.5435 142.262 76.001 140.961C74.924 138.372 74.1881 135.749 73.5112 133.038C73.4549 132.813 73.1157 132.868 73.1111 133.092C73.1184 135.863 74.1547 138.652 75.1527 141.195C75.6511 142.46 76.2009 143.699 76.7581 144.944C77.3575 146.274 77.9141 147.648 78.7062 148.876C78.8106 149.042 79.0494 148.93 79.0172 148.743L79.0166 148.737Z" fill="#101010"/>
<path d="M85.9268 92.4944C85.2238 94.1098 85.5042 95.8301 85.9793 97.4698C86.0497 97.6999 86.3982 97.604 86.3345 97.3732C85.9377 95.7731 85.8426 94.1495 85.9824 92.5091C85.979 92.4756 85.9375 92.4662 85.9201 92.495L85.9268 92.4944Z" fill="#101010"/>
<path d="M79.6515 95.6305C79.4184 96.4738 79.461 97.4386 79.4741 98.3114C79.4913 99.2923 79.5694 100.274 79.6869 101.245C79.9092 103.127 80.345 104.98 80.7459 106.824C80.7861 107.023 81.0744 106.933 81.0416 106.74C80.7122 104.869 80.3962 102.996 80.1665 101.108C80.0578 100.225 79.9884 99.3306 79.9599 98.4389C79.9354 97.5198 80.0721 96.5913 80.0349 95.6802C80.0268 95.4641 79.711 95.4145 79.6515 95.6305Z" fill="#101010"/>
<path d="M89.5019 98.7306C89.5664 97.9584 89.4135 97.1741 89.3763 96.3986C89.3378 95.6096 89.3529 94.8152 89.3886 94.0256C89.4535 92.447 89.6207 90.8784 89.7123 89.2971C89.7229 89.1334 89.4854 89.1233 89.4386 89.2635C88.9215 90.8468 88.662 92.5059 88.6052 94.1651C88.5564 95.6337 88.4843 97.4773 89.1072 98.838C89.2023 99.0453 89.4792 98.9091 89.4952 98.7313L89.5019 98.7306Z" fill="#101010"/>
<path d="M98.2823 80.0405C97.1394 81.0427 96.8579 82.887 96.7589 84.3267C96.749 84.4972 97.03 84.5368 97.06 84.3643C97.1774 83.6478 97.343 82.94 97.5574 82.2477C97.7819 81.5205 98.1563 80.8731 98.4584 80.1787C98.5071 80.0586 98.3753 79.9566 98.2756 80.0412L98.2823 80.0405Z" fill="white"/>
<path d="M148.303 141.146C147.854 142.397 147.644 143.746 147.383 145.046C147.117 146.374 146.803 147.693 146.51 149.016C145.925 151.609 145.153 154.153 144.164 156.624C144.126 156.716 144.281 156.782 144.326 156.689C145.568 154.315 146.413 151.757 147.108 149.18C147.463 147.871 147.715 146.538 147.966 145.205C148.212 143.886 148.481 142.517 148.467 141.17C148.463 141.062 148.328 141.055 148.289 141.147L148.303 141.146Z" fill="#101010"/>
<path d="M168.352 103.03C169.365 106.466 170.091 109.931 170.26 113.512C170.433 117.195 169.75 120.692 169.193 124.306C169.162 124.532 169.484 124.717 169.594 124.469C171.111 121.125 171.346 117.131 171.166 113.51C170.985 109.889 170.149 106.198 168.456 102.986C168.423 102.929 168.333 102.971 168.352 103.03Z" fill="#101010"/>
<path d="M101.727 89.49C101.649 90.3991 101.77 91.3357 101.747 92.2528C101.719 93.1907 101.637 94.1273 101.582 95.0612C101.469 96.9021 101.316 98.7404 101.237 100.585C101.225 100.871 101.656 100.861 101.676 100.581C101.81 98.6841 102.088 96.8063 102.25 94.913C102.332 93.9831 102.346 93.0398 102.333 92.0992C102.32 91.2264 102.345 90.2683 102.086 89.4337C102.025 89.2297 101.747 89.2847 101.726 89.4833L101.727 89.49Z" fill="#101010"/>
<path d="M85.6373 150.175C85.293 149.166 84.8155 148.245 84.413 147.262C83.9468 146.116 83.5515 144.936 83.2225 143.743C82.5564 141.343 81.9437 138.87 81.7813 136.372C81.7699 136.258 81.6073 136.254 81.6054 136.369C81.5363 138.917 81.8733 141.472 82.5776 143.916C82.9301 145.141 83.3421 146.353 83.8377 147.523C84.2718 148.55 84.6823 149.478 85.4835 150.259C85.5511 150.326 85.6789 150.253 85.6427 150.161L85.6373 150.175Z" fill="#101010"/>
<path d="M104.128 175.432C105.562 175.851 107.346 175.441 108.765 175.103C109.979 174.812 111.855 174.251 112.53 173.099C112.629 172.933 112.5 172.662 112.293 172.689C111.659 172.766 111.065 173.11 110.467 173.34C109.77 173.606 109.049 173.827 108.326 174.029C106.945 174.411 105.374 174.446 104.078 175.064C103.91 175.142 103.975 175.386 104.128 175.432Z" fill="#101010"/>
<path d="M110.915 135.001C111.217 131.204 112.186 127.454 113.449 123.871C114.074 122.088 114.776 120.323 115.493 118.571C116.203 116.826 117.078 115.105 117.55 113.276C117.598 113.081 117.339 112.992 117.24 113.151C116.17 114.81 115.428 116.714 114.621 118.509C113.848 120.226 113.13 121.965 112.504 123.743C111.214 127.395 110.446 131.125 110.347 134.997C110.338 135.378 110.897 135.362 110.928 134.993L110.915 135.001Z" fill="#101010"/>
<path d="M113.039 73.7822C114.569 75.5737 114.915 77.9447 116.17 79.879C116.29 80.0635 116.568 79.9408 116.526 79.7281C116.061 77.5114 115.004 75.0558 113.303 73.5185C113.124 73.3535 112.893 73.6071 113.046 73.7882L113.039 73.7822Z" fill="white"/>
<path d="M117.732 72.6502C118.1 73.9008 119.007 74.9958 119.811 75.9995C120.235 76.5262 120.64 77.0617 121.021 77.6266C121.41 78.2043 121.768 78.8732 122.28 79.3369C122.414 79.459 122.683 79.3778 122.663 79.1766C122.549 77.9005 121.536 76.7686 120.746 75.8245C119.84 74.7362 118.941 73.5252 117.917 72.5435C117.835 72.4637 117.694 72.5455 117.732 72.6569L117.732 72.6502Z" fill="white"/>
<path d="M126.054 83.7685C126.605 87.1694 126.517 90.6138 126.793 94.0421C126.814 94.2501 127.112 94.2542 127.117 94.0435C127.204 90.5924 126.91 87.1117 126.2 83.7336C126.177 83.641 126.046 83.6813 126.062 83.7745L126.054 83.7685Z" fill="#101010"/>
<path d="M118.73 86.9381C118.461 88.781 118.386 90.6589 118.282 92.5193C118.174 94.4139 117.88 96.334 117.963 98.2367C117.968 98.4192 118.228 98.4541 118.278 98.2796C118.785 96.528 118.79 94.6233 118.865 92.8132C118.948 90.8669 118.986 88.8911 118.805 86.9508C118.801 86.9106 118.732 86.8904 118.723 86.9387L118.73 86.9381Z" fill="#101010"/>
<path d="M132.348 107.126C132.1 108.9 132.139 110.712 131.878 112.486C131.62 114.226 131.396 115.97 131.131 117.711C130.876 119.417 130.621 121.123 130.312 122.821C129.993 124.561 129.55 126.347 129.423 128.115C129.404 128.333 129.759 128.433 129.847 128.228C130.522 126.609 130.88 124.784 131.221 123.062C131.552 121.376 131.862 119.678 132.069 117.969C132.285 116.213 132.441 114.469 132.453 112.7C132.466 110.869 132.674 108.971 132.485 107.146C132.477 107.073 132.352 107.038 132.341 107.127L132.348 107.126Z" fill="#101010"/>
<path d="M126.412 103.218C126.259 106.541 125.834 109.788 125.084 113.028C124.372 116.108 123.313 119.223 123.13 122.392C123.116 122.651 123.512 122.693 123.575 122.449C124.38 119.218 125.183 115.973 125.953 112.731C126.684 109.642 127.34 106.344 126.586 103.201C126.563 103.102 126.417 103.13 126.412 103.218Z" fill="#101010"/>
<path d="M114.757 172.287C119.218 170.207 122.664 166.359 125.918 162.76C129.112 159.228 131.846 155.288 134.215 151.154C134.877 150.003 135.504 148.843 136.109 147.664C136.72 146.478 137.369 145.261 137.733 143.971C137.777 143.811 137.561 143.744 137.479 143.868C136.193 145.806 135.302 148.036 134.16 150.062C133.019 152.094 131.785 154.074 130.448 155.977C127.704 159.877 124.471 163.426 121.075 166.755C119.087 168.703 116.954 170.543 114.642 172.089C114.522 172.169 114.627 172.341 114.756 172.281L114.757 172.287Z" fill="#101010"/>
<path d="M115.755 165.358C119.387 161.945 122.664 158.168 125.591 154.134C128.471 150.166 131.324 145.936 133.135 141.35C133.221 141.131 132.878 141.01 132.762 141.198C130.243 145.401 127.929 149.685 125.115 153.7C122.253 157.775 119.132 161.693 115.635 165.242C115.562 165.317 115.674 165.428 115.755 165.352L115.755 165.358Z" fill="#101010"/>
<path d="M123.43 149.725C125.453 146.107 127.117 142.349 128.454 138.434C128.501 138.293 128.283 138.207 128.215 138.336C126.304 141.997 125.162 145.974 123.315 149.662C123.275 149.734 123.39 149.797 123.43 149.725Z" fill="#101010"/>
<path d="M127.999 172.389C129.387 172.283 130.799 171.471 131.949 170.739C133.404 169.814 134.732 168.705 135.985 167.523C138.35 165.294 140.546 162.736 142.139 159.886C142.162 159.843 142.097 159.802 142.068 159.846C140.496 162.571 138.419 165.036 136.15 167.208C134.91 168.396 133.568 169.493 132.126 170.417C130.812 171.26 129.445 171.783 128.001 172.341C127.974 172.344 127.979 172.391 128.006 172.388L127.999 172.389Z" fill="#101010"/>
<path d="M159.774 161.48C160.86 160.171 161.64 158.521 161.945 156.844C161.981 156.664 161.748 156.559 161.65 156.724C160.778 158.14 160.419 159.748 159.333 161.056C159.08 161.359 159.522 161.789 159.775 161.486L159.774 161.48Z" fill="#101010"/>
<path d="M162.416 119.268C162.753 120.542 163.106 121.767 163.171 123.095C163.238 124.369 163.127 125.627 163.1 126.904C163.096 126.999 163.242 127.045 163.281 126.954C163.821 125.673 163.885 124.216 163.72 122.844C163.566 121.578 163.297 120.236 162.492 119.219C162.461 119.182 162.399 119.229 162.409 119.268L162.416 119.268Z" fill="#101010"/>
<path d="M156.558 115.809C156.64 116.831 156.775 117.841 156.864 118.862C156.948 119.836 156.991 120.801 157.241 121.751C157.294 121.942 157.567 121.895 157.575 121.704C157.674 119.797 157.52 117.515 156.697 115.775C156.663 115.71 156.558 115.741 156.559 115.816L156.558 115.809Z" fill="#101010"/>
<path d="M169.46 147.214C170.076 146.684 170.393 145.67 170.734 144.952C171.119 144.141 171.489 143.324 171.839 142.496C172.529 140.882 173.23 139.253 173.772 137.579C174.325 135.877 174.807 134.148 175.207 132.408C175.418 131.478 175.608 130.544 175.778 129.606C175.935 128.75 176.157 127.792 176.042 126.916C176.028 126.775 175.808 126.669 175.737 126.838C175.393 127.652 175.317 128.581 175.167 129.443C175.016 130.299 174.851 131.149 174.659 131.995C174.264 133.783 173.786 135.559 173.231 137.302C172.664 139.066 172.11 140.816 171.397 142.534C171.055 143.368 170.691 144.19 170.313 145.007C170.003 145.682 169.47 146.44 169.404 147.192C169.407 147.226 169.441 147.229 169.46 147.214Z" fill="#101010"/>
<path d="M169.998 134.257C170.547 132.582 170.915 130.797 171.009 129.033C171.021 128.821 170.722 128.804 170.659 128.986C170.084 130.663 169.779 132.476 169.888 134.241C169.895 134.308 169.978 134.32 169.998 134.257Z" fill="#101010"/>
<path d="M59.3926 152.395L59.9264 153.609L61.2284 153.858L60.242 154.736L60.4145 156.054L59.2668 155.389L58.0735 155.956L58.3493 154.661L57.4416 153.695L58.7595 153.563L59.3926 152.395Z" fill="#101010"/>
<path d="M183.391 91.518L184.3 93.5751L186.504 93.9913L184.836 95.4865L185.126 97.714L183.182 96.5873L181.164 97.5485L181.633 95.3534L180.091 93.7189L182.318 93.489L183.391 91.518Z" fill="#101010"/>
<path d="M61.1873 99.4213C61.1332 99.5555 61.079 99.6897 61.0182 99.8245C60.9701 99.9513 60.9227 100.085 60.8598 100.2C60.9013 100.141 60.9434 100.09 60.9849 100.031C60.9006 100.134 60.797 100.246 60.7348 100.368C60.7007 100.432 60.6807 100.502 60.6533 100.566C60.5885 100.728 60.5236 100.891 60.4662 101.059C60.5464 100.915 60.6206 100.779 60.7008 100.636C60.4433 100.899 60.3391 101.275 60.4357 101.631C60.5744 102.139 61.1124 102.451 61.6188 102.312C62.0128 102.198 62.2295 101.865 62.3966 101.509C62.5804 101.118 62.5253 100.704 62.2301 100.388C62.3132 100.677 62.3963 100.967 62.4794 101.257C62.5014 101.14 62.5234 101.022 62.5388 100.905C62.5614 100.727 62.5667 100.577 62.489 100.409C62.4194 100.253 62.3022 100.096 62.1456 100.017C61.8325 99.8581 61.4451 99.9037 61.1937 100.159C61.1141 100.242 61.0345 100.324 60.9549 100.407C61.2439 100.324 61.5329 100.241 61.8219 100.157C61.8219 100.157 61.8219 100.157 61.8152 100.158C61.6098 100.131 61.4272 100.129 61.2332 100.216C61.0385 100.297 60.8834 100.434 60.7804 100.621C60.7283 100.707 60.6828 100.793 60.6233 100.874C60.6708 100.808 60.7243 100.735 60.7717 100.669C60.7537 100.691 60.7423 100.713 60.7169 100.729L60.9175 100.573C60.9175 100.573 60.9109 100.574 60.9048 100.581C60.9824 100.546 61.054 100.519 61.1316 100.484C61.2119 100.476 61.2915 100.461 61.3711 100.446C61.4534 100.459 61.535 100.464 61.6106 100.477C61.6882 100.51 61.7652 100.536 61.8428 100.569L62.047 100.718C62.1012 100.787 62.1547 100.849 62.2023 100.919C62.2371 100.997 62.2645 101.068 62.2994 101.146C62.2994 101.146 62.2987 101.14 62.298 101.133C62.3061 101.213 62.3209 101.293 62.3356 101.373C62.3343 101.36 62.3336 101.353 62.3322 101.34C62.3202 101.422 62.3149 101.504 62.3023 101.58C62.3369 101.319 62.3348 101.095 62.1955 100.852C62.1942 100.838 62.1795 100.826 62.1788 100.82C62.221 100.971 62.2632 101.123 62.3055 101.274C62.3021 101.241 62.3121 101.206 62.3154 101.172C62.3095 101.247 62.2968 101.323 62.2915 101.405C62.3021 101.309 62.3188 101.205 62.3362 101.109C62.3575 100.985 62.3855 100.86 62.3801 100.738C62.3741 100.678 62.3674 100.611 62.368 100.55C62.3614 100.618 62.354 100.68 62.3474 100.748C62.4014 100.479 62.4622 100.208 62.5236 99.9448C62.5971 99.5986 62.4203 99.2504 62.0897 99.1208C61.7939 99.0014 61.3517 99.1067 61.2154 99.4321L61.1873 99.4213Z" fill="#101010"/>
<path d="M181.79 113.332C181.771 113.28 181.759 113.227 181.741 113.174C181.648 112.852 181.279 112.611 180.946 112.725C180.619 112.833 180.389 113.174 180.498 113.522C180.561 113.746 180.631 113.97 180.693 114.187C180.787 114.51 181.147 114.738 181.481 114.63C181.815 114.522 182.011 114.191 181.922 113.841C181.866 113.616 181.803 113.392 181.747 113.167C181.66 112.837 181.278 112.604 180.952 112.718C180.611 112.827 180.409 113.165 180.504 113.515C180.517 113.568 180.535 113.62 180.547 113.673C180.634 114.003 181.016 114.236 181.35 114.128C181.684 114.02 181.905 113.673 181.803 113.324L181.79 113.332Z" fill="#101010"/>
<path d="M154.198 182.427C154.084 182.303 153.964 182.18 153.851 182.062C153.571 181.772 153.039 181.92 152.95 182.315C152.913 182.482 152.875 182.648 152.844 182.807C152.785 183.097 152.848 183.389 153.066 183.605C153.275 183.807 153.574 183.886 153.849 183.804C154.125 183.722 154.346 183.504 154.42 183.225C154.499 182.933 154.402 182.644 154.198 182.427Z" fill="#101010"/>
<path d="M109.282 186.545C109.252 186.589 109.224 186.639 109.194 186.682C109.236 186.624 109.277 186.566 109.325 186.507C109.283 186.558 109.241 186.61 109.192 186.656C109.248 186.609 109.304 186.563 109.367 186.516C109.348 186.532 109.335 186.54 109.316 186.548C109.387 186.521 109.458 186.487 109.523 186.46C109.51 186.461 109.49 186.47 109.477 186.471C109.551 186.464 109.631 186.456 109.704 186.442C109.684 186.444 109.664 186.446 109.644 186.448C109.719 186.454 109.788 186.467 109.862 186.473C109.856 186.474 109.842 186.475 109.834 186.462C109.898 186.49 109.968 186.517 110.032 186.544C110.018 186.539 110.003 186.527 109.989 186.522C110.047 186.563 110.105 186.605 110.164 186.653C110.135 186.629 110.105 186.598 110.081 186.567C110.127 186.623 110.167 186.68 110.213 186.736C110.144 186.648 110.087 186.552 109.998 186.473C109.781 186.265 109.509 186.183 109.213 186.26C109.307 186.258 109.402 186.262 109.49 186.26C109.462 186.249 109.441 186.244 109.413 186.234C109.287 186.192 109.102 186.238 109.018 186.341C109.012 186.348 109 186.363 108.994 186.37C108.951 186.409 109.005 186.349 109.031 186.34C108.78 186.46 108.674 186.755 108.659 187.007C108.627 187.492 108.969 188.006 109.441 188.135C110.031 188.293 110.488 187.861 110.744 187.381C110.955 186.994 110.832 186.437 110.426 186.227C110.005 186.012 109.526 186.148 109.275 186.546L109.282 186.545Z" fill="#101010"/>
<path d="M25.3599 166.254C25.4011 166.25 25.3805 166.183 25.3468 166.194C25.3132 166.204 25.3262 166.265 25.3599 166.254Z" fill="#101010"/>
<path d="M177.13 154.028C177.493 153.395 178.181 152.981 178.314 152.215C178.361 151.946 178.057 151.604 177.788 151.821C177.162 152.317 176.501 152.736 176.064 153.43C175.651 154.095 176.733 154.718 177.124 154.029L177.13 154.028Z" fill="#101010"/>
<path d="M166.463 82.1277C166.495 81.9754 166.527 81.8231 166.559 81.6708C166.596 81.4977 166.619 81.3259 166.562 81.1555C166.515 81.0247 166.442 80.9032 166.313 80.8281C166.191 80.759 166.042 80.7536 165.91 80.7871C165.731 80.8254 165.6 80.9334 165.471 81.0548C165.36 81.1608 165.242 81.2674 165.131 81.3734C164.754 81.7296 164.887 82.3804 165.31 82.6227C165.74 82.8642 166.366 82.6389 166.471 82.1337L166.463 82.1277Z" fill="#101010"/>
<path d="M134.099 76.9227C134.041 77.0233 133.964 77.1326 133.914 77.2392C134.279 77.4465 134.651 77.653 135.017 77.8602C135.099 77.6759 135.172 77.5196 135.171 77.3098C135.175 76.8759 134.666 76.5882 134.297 76.8148C134.125 76.9201 134.019 77.0729 133.907 77.2332C133.448 77.909 134.557 78.5294 135.009 77.8542C135.073 77.753 135.129 77.6323 135.186 77.5317C135.567 76.8163 134.5 76.212 134.091 76.91L134.099 76.9227Z" fill="#101010"/>
<path d="M79.8294 72.3867C79.4957 72.7657 79.0243 73.1856 79.0734 73.7432C79.1003 74.0793 79.3399 74.3128 79.6724 74.3269C80.2224 74.3531 80.6336 73.8715 81.0041 73.5226C81.3124 73.2275 81.3088 72.6518 80.9895 72.3653C80.6709 72.0855 80.139 72.0372 79.8354 72.3793L79.8294 72.3867Z" fill="#101010"/>
<path d="M61.1904 122.264C61.4793 122.181 61.8015 122.095 61.9552 121.808C62.1255 121.486 61.9989 120.896 61.6471 120.756C61.4431 120.674 61.2787 120.718 61.141 120.894C61.016 121.063 61.0435 121.27 61.0764 121.463C61.0784 121.483 61.0804 121.503 61.0824 121.523C61.0429 121.399 61.0717 121.416 61.0764 121.463C61.0777 121.476 61.0731 121.497 61.0804 121.503C61.0971 121.4 61.1011 121.372 61.0924 121.421C61.0817 121.449 61.0938 121.434 61.1091 121.385C61.1586 121.272 61.0724 121.423 61.1432 121.321C61.1793 121.277 61.1853 121.269 61.1673 121.291C61.2488 121.229 61.2742 121.213 61.2361 121.237C61.2227 121.238 61.2107 121.253 61.198 121.261C61.1412 121.301 61.3284 121.214 61.2562 121.235C61.1512 121.266 61.0462 121.297 60.9413 121.327C60.6979 121.392 60.5242 121.681 60.6032 121.93C60.6822 122.18 60.9417 122.343 61.2045 122.27L61.1904 122.264Z" fill="#101010"/>
<path d="M60.4002 89.4036C60.2411 89.5685 60.0486 89.7368 59.933 89.9313C59.6317 90.4288 60.2672 91.0424 60.7558 90.7293C60.9457 90.6019 61.1088 90.4095 61.2678 90.2445C61.4884 90.0193 61.4942 89.6055 61.2567 89.3923C61.0126 89.1797 60.6388 89.1562 60.4069 89.4029L60.4002 89.4036Z" fill="#101010"/>
<path d="M55.3982 139.045C56.2326 138.813 55.873 137.514 55.0386 137.747C54.2042 137.98 54.5638 139.278 55.3982 139.045Z" fill="#101010"/>
<path d="M97.4943 185.574C97.3953 185.598 97.3029 185.621 97.2053 185.657C97.3625 185.676 97.5197 185.694 97.677 185.712C97.6629 185.707 97.6482 185.694 97.6341 185.689C97.4187 185.562 97.143 185.576 96.9323 185.698C96.5624 185.918 96.362 186.413 96.6104 186.801C96.763 187.044 97.0073 187.188 97.2829 187.242C97.7861 187.341 98.3795 187.329 98.744 186.92C99.0115 186.622 98.8728 186.182 98.5027 186.063C98.4606 186.047 98.3555 186.01 98.5456 186.086C98.4827 186.065 98.4385 186.029 98.3696 186.015C98.3207 186 98.2732 185.998 98.2177 185.983C98.0524 185.952 97.8945 185.927 97.7306 185.91C97.7921 185.917 97.847 185.925 97.9086 185.933C97.8055 185.916 97.7025 185.899 97.6048 185.868C97.4582 185.822 97.7895 185.958 97.6469 185.884C97.6329 185.879 97.6188 185.874 97.6108 185.861C97.5332 185.828 97.7808 186.006 97.7125 185.932L97.8283 186.076C97.8283 186.076 97.827 186.063 97.8196 186.057C97.8458 186.115 97.8719 186.173 97.8913 186.233C97.8913 186.233 97.89 186.219 97.8893 186.212C97.8953 186.273 97.9021 186.34 97.9148 186.4C97.9148 186.4 97.9135 186.386 97.9128 186.379C97.9054 186.441 97.8981 186.503 97.8901 186.558C97.8808 186.6 97.83 186.699 97.7945 186.75C97.7116 186.867 97.7531 186.809 97.7838 186.779C97.7337 186.818 97.6902 186.856 97.6401 186.895C97.7404 186.817 97.8414 186.746 97.9035 186.624C97.9657 186.503 97.987 186.379 97.993 186.236C97.8894 186.416 97.7925 186.595 97.6888 186.775C97.8239 186.707 97.5584 186.822 97.6688 186.777C97.7142 186.758 97.7664 186.74 97.8126 186.728C98.1136 186.63 98.3443 186.302 98.2371 185.974C98.1305 185.653 97.8214 185.467 97.4849 185.548L97.4943 185.574Z" fill="#101010"/>
<path d="M124.16 189.871C124.229 190.02 124.304 190.168 124.373 190.31C124.407 190.388 124.407 190.456 124.353 190.251C124.427 190.515 124.729 190.702 124.998 190.614C125.266 190.526 125.434 190.251 125.359 189.968C125.356 189.941 125.378 190.162 125.371 190.095C125.369 190.075 125.367 190.048 125.365 190.028C125.348 189.867 125.332 189.699 125.316 189.538C125.293 189.317 125.204 189.102 124.997 188.994C124.848 188.921 124.69 188.889 124.525 188.933C124.374 188.975 124.23 189.091 124.149 189.228C124.035 189.436 124.056 189.651 124.158 189.857L124.16 189.871Z" fill="#101010"/>
<path d="M167.365 161.953C168.278 161.699 167.885 160.269 166.965 160.524C166.045 160.779 166.445 162.208 167.365 161.953Z" fill="#101010"/>
<path d="M178.31 179.457C178.351 179.453 178.331 179.386 178.297 179.397C178.263 179.407 178.276 179.468 178.31 179.457Z" fill="#101010"/>
<path d="M186.386 143.114C186.427 143.11 186.407 143.043 186.373 143.053C186.34 143.063 186.353 143.124 186.386 143.114Z" fill="#101010"/>
<path d="M178.971 141.781C179.181 141.658 179.358 141.464 179.486 141.261C179.724 140.872 179.707 140.365 179.447 139.991C179.297 139.776 179.019 139.628 178.75 139.716C178.475 139.804 178.322 140.029 178.296 140.31C178.317 140.111 178.314 140.213 178.298 140.262C178.288 140.297 178.246 140.41 178.3 140.276C178.354 140.142 178.281 140.291 178.258 140.327L178.371 140.174C178.34 140.211 178.31 140.241 178.272 140.272C178.322 140.233 178.379 140.186 178.429 140.148C178.391 140.178 178.346 140.197 178.308 140.221L178.508 140.133C178.45 140.159 178.391 140.172 178.324 140.185L178.552 140.162C178.552 140.162 178.518 140.159 178.504 140.16C177.938 140.176 177.506 140.721 177.663 141.275C177.82 141.828 178.467 142.082 178.959 141.795L178.971 141.781Z" fill="#101010"/>
<path d="M189.617 111.168C189.658 111.164 189.637 111.097 189.604 111.108C189.57 111.118 189.583 111.179 189.617 111.168Z" fill="#101010"/>
<path d="M174.765 97.0747C174.806 97.0706 174.786 97.0036 174.752 97.0138C174.718 97.0241 174.731 97.085 174.765 97.0747Z" fill="#101010"/>
<path d="M180.466 82.6919C180.508 82.6877 180.487 82.6208 180.453 82.631C180.42 82.6413 180.433 82.7021 180.466 82.6919Z" fill="#101010"/>
<path d="M158.416 85.1761C158.366 85.0117 158.315 84.8406 158.265 84.6762C158.134 84.2421 157.648 83.918 157.191 84.0723C156.733 84.2199 156.467 84.6734 156.589 85.149C156.633 85.3208 156.677 85.4858 156.714 85.6583C156.827 86.1078 157.358 86.4205 157.803 86.2743C158.248 86.1281 158.559 85.6564 158.417 85.1828L158.416 85.1761Z" fill="#101010"/>
<path d="M169.375 92.3319C169.078 92.6734 168.825 93.051 168.557 93.41C168.605 93.3442 168.659 93.2778 168.706 93.212C168.676 93.2489 168.653 93.2852 168.623 93.3221C169.022 93.2617 169.422 93.2081 169.822 93.1478C169.807 93.1357 169.792 93.1236 169.772 93.1189C169.958 93.561 170.144 94.0032 170.33 94.4453C170.342 94.3628 170.361 94.2796 170.379 94.1897C170.424 93.9683 170.45 93.7489 170.475 93.5296C170.464 93.6188 170.453 93.7147 170.442 93.804C170.509 93.5329 170.544 93.2719 170.55 92.9935C170.561 92.7077 170.573 92.4219 170.485 92.1462C170.416 91.9295 170.279 91.7738 170.067 91.6865C169.877 91.6107 169.62 91.6026 169.443 91.7288C169.305 91.8307 169.186 91.9307 169.078 92.0635C168.964 92.2037 168.857 92.3567 168.751 92.5096C168.692 92.5968 168.619 92.6787 168.574 92.7645C168.528 92.8437 168.504 92.941 168.451 93.0208C168.504 92.9477 168.558 92.8746 168.618 92.8008C168.48 92.9772 168.369 93.1443 168.274 93.3435C168.24 93.4146 168.2 93.4864 168.167 93.5642C168.064 93.744 168.016 93.9386 168.016 94.1486C168.018 94.3653 168.072 94.5699 168.185 94.7551C168.396 95.1066 168.79 95.3314 169.203 95.3308C169.621 95.3295 170.017 95.0934 170.223 94.7271C170.43 94.3608 170.411 93.9086 170.205 93.5362C170.204 93.5228 170.189 93.5107 170.189 93.504C170.195 93.8355 170.195 94.1743 170.201 94.5057C170.406 94.0515 170.609 93.5906 170.758 93.1217C170.867 92.7923 170.681 92.3501 170.368 92.1918C170.055 92.0334 169.617 92.0501 169.376 92.3386L169.375 92.3319Z" fill="#101010"/>
<path d="M190.882 52.0391C190.965 52.0998 191.048 52.1604 191.131 52.2135C191.048 52.1529 190.965 52.0998 190.882 52.0391Z" fill="#101010"/>
<path d="M213.532 56.1076C213.986 55.7132 213.857 54.2566 213.895 53.6952C213.955 52.7469 213.993 51.7986 214.008 50.8504C214.046 49.0903 214.076 47.3303 214.107 45.5779C214.137 43.6206 214.137 41.6634 214.16 39.7061C214.167 38.9551 214.258 38.1585 214.19 37.4151C214.152 36.9978 213.834 36.3454 213.464 36.9675C213.237 37.3392 213.373 38.1661 213.358 38.591C213.328 39.4861 213.305 40.3889 213.29 41.2841C213.252 43.0668 213.222 44.8496 213.161 46.6324C213.101 48.3772 213.085 50.1221 213.017 51.8593C212.98 52.8304 212.942 53.8014 212.866 54.7725C212.843 55.0759 212.7 56.8359 213.539 56.1076H213.532Z" fill="#101010"/>
<path d="M219.157 55.9566C219.596 54.0221 220.269 52.1407 220.852 50.2441C221.01 49.7282 221.169 49.2048 221.313 48.6813C221.404 48.3475 221.744 47.6268 221.668 47.2627C221.608 46.9668 221.343 46.7317 221.025 46.8834C220.7 47.0427 220.677 47.6193 220.594 47.9151C220.065 49.8724 219.407 51.7917 218.839 53.7414C218.597 54.5834 218.227 55.5697 218.242 56.4573C218.242 56.7683 218.279 57.3448 218.779 57.1324C219.096 56.9959 219.112 56.2221 219.165 55.9566H219.157Z" fill="#101010"/>
<path d="M224.613 57.8479C225.052 56.7403 225.505 55.6327 225.974 54.5403C226.141 54.161 226.512 53.6375 226.103 53.2734C225.748 52.9547 225.415 53.2051 225.195 53.501C224.583 54.343 224.265 55.6858 223.902 56.6644C223.766 57.0362 223.402 57.6051 223.682 57.9844C223.932 58.3258 224.454 58.25 224.613 57.8479Z" fill="#101010"/>
<path d="M186.29 81.9999C183.975 81.1275 181.94 79.9364 180.011 78.3736C179.103 77.6378 178.218 76.8564 177.401 76.0219C177.212 75.8247 176.562 74.8688 176.259 74.8991C175.495 74.975 176.554 75.9536 176.736 76.1509C178.362 77.873 180.283 79.3902 182.303 80.6344C183.362 81.2868 184.489 81.7723 185.639 82.2275C185.897 82.3261 186.812 82.8571 187.069 82.7358C187.682 82.4399 186.403 82.053 186.282 82.0075L186.29 81.9999Z" fill="#101010"/>
<path d="M211.032 98.3066C210.465 97.8893 209.905 97.4569 209.315 97.07C208.914 96.7969 208.505 96.5314 208.082 96.2886C207.847 96.1521 207.235 95.6742 206.962 95.7045C206.002 95.8183 207.378 96.5542 207.636 96.6907C208.332 97.0776 208.99 97.5176 209.633 97.988C210.904 98.9135 212.159 99.8694 213.46 100.742C213.657 100.871 214.217 101.227 214.202 100.689C214.202 100.385 213.4 100.021 213.158 99.8542C212.439 99.3535 211.736 98.83 211.025 98.3142L211.032 98.3066Z" fill="#101010"/>
<path d="M212.183 16.3354C213.212 15.3416 214.233 14.3402 215.27 13.354C215.814 12.8381 216.359 12.3222 216.896 11.8064C217.214 11.5029 218.258 10.8505 218.364 10.3953C218.53 9.69738 217.819 9.87945 217.479 10.1298C216.911 10.5546 216.397 11.1236 215.882 11.6167C214.914 12.565 213.931 13.4905 212.97 14.4464C211.979 15.4326 210.958 16.3885 209.974 17.3898C209.445 17.9285 208.893 18.4292 208.355 18.9526C207.977 19.3168 207.16 19.863 206.911 20.3409C206.676 20.7885 206.911 21.1223 207.417 20.9402C207.947 20.7582 208.711 19.6961 209.127 19.3016C210.163 18.3305 211.162 17.3216 212.183 16.3354Z" fill="#101010"/>
<path d="M203.197 23.8047C202.796 23.8047 202.463 24.4343 202.251 24.6619C201.782 25.1626 201.237 25.6102 200.73 26.0806C200.171 26.604 199.603 27.1275 199.044 27.6585C198.892 27.8026 197.478 29.0468 198.416 29.0013C198.779 28.9861 199.513 27.9089 199.77 27.6509C200.299 27.1123 200.852 26.5964 201.389 26.0578C201.895 25.5495 202.425 25.0488 202.909 24.5102C202.932 24.4799 203.613 23.8047 203.197 23.8047Z" fill="#101010"/>
<path d="M259.87 93.8463C259.772 93.5353 259.613 92.9587 259.371 92.7767C258.728 92.2912 258.032 91.8739 257.404 91.4263C257.442 91.4491 257.336 91.3732 257.434 91.4491C257.079 91.1987 257.442 91.4491 257.336 91.3808C257.389 91.4187 257.291 91.3504 257.298 91.3504C256.126 90.5311 254.514 89.4615 253.191 88.5587C252.063 87.7925 250.861 87.1401 249.749 86.3511C249.786 86.3739 249.022 85.8959 249.022 85.8277C249.022 85.6152 247.343 84.8111 247.139 84.6897C245.293 83.6049 243.409 82.5959 241.609 81.4428C238.038 79.1517 234.339 77.0883 230.935 74.5545C230.443 74.1903 229.846 73.8489 229.407 73.4165C228.666 72.6807 229.263 71.9372 229.566 71.1179C230.345 68.9786 231.124 66.8316 231.903 64.6923C232.569 62.8564 233.439 61.0054 233.923 59.0254C234.135 58.1454 234.301 57.0833 234.233 56.173C234.158 55.1564 233.689 54.2916 233.273 53.3812C232.788 52.3267 232.335 51.2646 232.062 50.1343C231.797 49.057 231.82 48.0025 231.646 46.9177C231.457 45.7494 230.806 44.7253 230.163 43.7542C229.884 43.3294 229.589 42.9197 229.278 42.5177C229.12 42.3128 228.953 42.108 228.787 41.9032C228.711 41.8046 228.008 40.9473 228.378 41.3949C228.106 41.0611 227.077 40.128 227.077 39.8018C226.01 38.5425 224.982 37.2832 224.573 35.6445C224.081 33.6873 224.149 31.4645 222.803 29.8107C221.547 28.2783 219.588 27.5879 217.757 27.0417C216.789 26.7534 215.828 26.4879 214.837 26.2907C213.786 26.0782 212.923 26.101 212.364 25.0844C212.122 24.6369 211.917 24.1589 211.728 23.681C211.675 23.5368 211.539 23.2713 211.516 23.1044C211.433 22.4368 211.282 23.1348 211.63 22.5355C211.857 22.1486 212.371 21.8148 212.689 21.5037C213.12 21.0865 213.544 20.6616 213.967 20.2368C215.586 18.6134 217.152 16.9444 218.703 15.2526C220.17 13.6595 221.706 12.1271 223.09 10.4581C223.756 9.65398 224.437 8.86501 225.156 8.10638C225.799 7.42362 226.767 6.79396 226.744 5.76981C226.729 4.87463 225.98 3.86566 225.496 3.15255C224.936 2.33324 224.21 1.61254 223.416 1.01323C222.228 0.118048 220.307 -0.602647 219.24 0.747707C217.969 2.356 216.449 3.79739 215.095 5.3374C213.695 6.93051 212.25 8.49328 210.798 10.0257C209.307 11.6037 207.719 13.1209 206.115 14.5775C205.381 15.2451 204.693 15.9354 204.012 16.6485C203.634 17.043 203.248 17.4375 202.855 17.8168C202.666 17.9989 202.469 18.1809 202.28 18.363C202.166 18.4692 202.053 18.583 201.932 18.6892C201.796 18.9623 201.629 18.9775 201.44 18.7499C201.077 18.674 200.706 18.3934 200.336 18.2871C199.799 18.1354 199.261 18.0596 198.709 18.052C197.658 18.0368 196.606 18.1809 195.555 18.2568C193.437 18.4161 191.311 18.4616 189.185 18.5527C186.765 18.6589 184.298 18.8561 181.885 18.5982C180.743 18.4768 179.593 18.3934 178.527 17.9382C177.581 17.5361 176.711 17.2251 175.66 17.3844C174.487 17.5665 173.587 18.3099 172.687 19.0154C171.696 19.7892 170.637 20.5327 169.759 21.4279C168.004 23.2182 167.134 25.2513 166.491 27.641C166.627 27.1403 166.294 28.2707 166.264 28.3693C166.135 28.7714 165.999 29.1734 165.856 29.5679C165.621 30.2128 165.379 30.8576 165.137 31.4948C164.577 32.9817 164.002 34.4535 163.185 35.819C162.459 37.0404 161.082 37.8294 159.94 38.6866C158.775 39.559 157.58 40.5301 156.861 41.8273C155.923 43.5342 155.855 46.288 156.226 48.1694C156.611 50.1191 157.413 52.046 157.565 54.0336C157.678 53.7226 157.64 54.3371 157.648 54.4812C157.663 54.7695 157.663 55.0654 157.671 55.3536C157.693 56.355 157.61 57.3716 157.678 58.373C157.784 59.9054 158.541 61.1723 160.008 61.673C159.554 62.113 159.168 62.7426 158.707 63.2206C158.2 63.744 157.693 64.2675 157.194 64.7985C156.18 65.8834 155.121 66.9151 154.092 67.9772C153.245 68.8572 152.337 69.6613 151.702 70.7158C150.658 72.4455 149.788 74.2662 148.676 75.9579C147.632 77.551 146.906 79.349 145.832 80.9193C145.537 81.3518 145.211 81.769 145.325 82.338C145.484 83.1497 146.248 83.5063 146.997 83.3166C147.814 83.1118 148.616 82.5125 149.342 82.1104C150.25 81.6097 151.15 81.0938 152.035 80.5552C153.676 79.5538 155.31 78.5752 156.99 77.6345C157.882 77.1338 158.987 76.6634 159.743 75.9655C160.417 75.3434 161.135 74.6986 161.801 74.0462C163.306 72.5744 164.857 71.1179 166.294 69.5779C168.284 72.6882 170.243 75.9427 172.74 78.6814C174.041 80.1076 175.364 81.5793 176.87 82.8007C178.33 83.9918 179.964 85.0235 181.613 85.9339C185.047 87.8304 188.762 89.2035 192.302 90.8725C195.714 92.4808 198.876 95.0222 201.697 97.5029C207.439 102.54 216.895 105.863 218.211 113.426C218.741 116.484 218.514 120.004 224.013 119.715C225.541 119.632 226.109 121.931 227.191 123.008C227.834 123.645 228.424 124.54 229.18 125.041C229.543 125.284 229.929 125.337 230.33 125.026C230.95 124.548 230.564 123.827 230.239 123.281C229.43 121.916 228.053 120.823 226.956 119.685C224.989 117.629 223.166 115.384 221.328 113.237C220.844 112.668 219.845 111.537 219.195 110.877C218.499 110.02 217.742 109.178 217.054 108.313C215.654 106.553 213.982 105.044 212.341 103.511C208.71 100.113 205.026 96.7215 201.115 93.6491C199.246 92.1774 197.272 90.8042 195.214 89.6132C192.99 88.3235 190.433 87.5801 188.073 86.5863C185.827 85.638 183.534 84.7504 181.439 83.4911C179.162 82.118 177.339 80.6083 175.561 78.6283C173.738 76.6028 172.233 74.4179 170.697 72.1648C169.865 70.9434 169.161 69.6461 168.39 68.3868C167.959 67.6813 167.316 66.8241 167.028 66.0958C165.659 63.122 165.644 59.5261 164.38 56.4385C163.677 54.7164 162.678 53.1309 161.695 51.5605C161.226 50.8095 160.749 50.066 160.174 49.3832C159.758 48.8825 159.199 47.9798 158.419 48.2908C158.419 47.1074 158.336 45.9087 158.48 44.7329C158.631 43.466 159.093 42.6542 160.008 41.7894C160.833 41.008 161.854 40.4163 162.754 39.7259C163.632 39.0432 164.766 38.0494 165.946 38.0114C166.423 37.9963 166.877 38.2542 167.255 38.5197C167.807 38.9066 168.072 39.1039 167.898 39.7714C167.694 40.5452 167.3 41.4556 166.688 41.9942C166.476 42.1839 166.03 42.3128 165.999 42.6315C165.916 43.3977 166.847 42.9577 167.119 42.7604C167.989 42.1232 168.496 40.9473 168.76 39.9383C169.192 40.4163 169.214 40.5983 169.078 41.2052C168.972 41.6832 168.836 42.1687 168.632 42.6163C168.526 42.8515 168.163 43.4204 168.17 43.4129C167.868 43.8529 168.208 44.437 168.76 43.9211C169.426 43.3066 169.661 42.0473 169.835 41.2052C171.597 43.3142 173.746 44.786 175.962 46.326C178.095 47.8053 180.327 49.0494 182.702 50.0812C185.615 51.3405 188.293 53.1612 190.91 54.9364C191.44 55.2929 192.03 55.6798 192.65 55.2474C193.24 54.8378 193.24 54.0488 192.816 53.5178C191.969 52.4557 190.38 51.6819 189.268 50.9536C189.806 50.8777 192.945 50.4529 192.96 50.2177C192.983 49.8839 192.136 49.5805 191.871 49.5122C190.94 49.2619 189.821 49.535 188.898 49.7246C189.397 48.3667 189.964 47.0163 190.426 45.6508C190.607 45.1198 190.819 44.528 190.872 43.9666C190.895 43.7466 190.736 43.1246 190.789 42.9425C190.842 42.7604 191.424 42.3053 191.561 42.1763C193.527 40.2418 195.547 38.3528 197.529 36.4335C201.697 32.3976 206.002 28.4603 209.973 24.2196C210.488 25.6686 210.813 27.4893 212.333 28.21C213.861 28.9307 215.685 29.1583 217.288 29.6741C218.521 30.0686 220.261 30.6224 220.889 31.8666C221.449 32.9666 221.509 34.3018 221.721 35.4776C222.258 38.3983 224.021 40.4314 225.874 42.6618C226.911 43.9135 228.31 45.408 228.817 46.986C229.036 47.6536 228.938 48.4122 229.036 49.1101C229.15 49.9219 229.331 50.7412 229.558 51.5226C229.815 52.4253 230.201 53.2978 230.595 54.1398C230.92 54.8529 231.412 55.6116 231.457 56.4081C231.586 58.3502 230.527 60.3681 229.891 62.1433C230.088 61.5895 229.959 61.9461 229.838 62.2951C229.755 62.5151 229.679 62.7351 229.596 62.9551C229.392 63.5013 229.195 64.0551 228.991 64.6013C228.666 65.4889 228.348 66.3765 228.023 67.2641C228.121 66.991 227.939 67.4841 227.932 67.5068C227.826 67.7875 227.728 68.0758 227.622 68.3565C227.433 68.8648 227.251 69.3806 227.062 69.8889C226.737 69.191 226.381 68.5082 225.973 67.8558C225.647 67.3248 225.178 66.3158 224.687 65.9365C224.339 65.6634 223.839 65.7089 223.756 66.2399C223.68 66.7406 224.528 67.5599 224.785 67.9544C225.239 68.6372 225.973 70.0862 226.411 71.1255C225.579 70.42 224.747 69.7144 223.945 68.9786C223.643 68.7055 222.795 67.5296 222.425 67.5296C222.425 67.5296 222.41 67.5144 222.41 67.522C222.22 67.3096 221.615 67.0365 221.335 67.0289C220.534 67.0137 220.791 67.9089 220.957 68.4096C221.502 69.9951 222.765 71.2393 223.93 72.4C226.366 74.8048 229.301 76.9214 232.161 78.7952C234.975 80.6386 237.569 82.3228 240.361 83.9766C241.964 84.9249 243.629 85.8352 245.24 86.7835C246.904 87.7621 248.455 88.8166 250.066 89.8711C251.935 91.0849 253.773 92.1167 255.619 93.3305C256.368 93.8236 257.086 94.2863 257.919 94.6353C258.607 94.9236 259.923 94.9463 259.81 93.8539L259.87 93.8463ZM157.693 56.5447C157.693 56.3854 157.693 56.4385 157.693 56.7116C157.693 56.6585 157.693 56.5978 157.693 56.5447ZM155.477 75.5331C153.979 76.5117 152.534 77.6269 150.998 78.5448C150.832 78.6435 149.803 79.4248 149.637 79.3793C148.956 79.1897 150.401 77.9683 150.401 77.6648C150.552 77.589 150.726 77.1717 150.84 77.0048C151.165 76.5193 151.475 76.0186 151.778 75.5255C151.853 75.4041 152.118 74.8579 152.186 74.8579C152.186 74.8579 152.186 74.8503 152.194 74.8427C152.806 73.9172 153.313 72.8703 153.873 71.8993C154.138 72.8855 153.661 73.4696 154.819 73.8793C155.152 74.0007 155.378 74.122 155.598 74.4103C155.704 74.5393 155.863 74.7669 155.9 74.9338C155.984 75.3434 155.878 75.2752 155.484 75.5331H155.477ZM165.076 67.4917C163.563 68.8875 162.096 70.3213 160.613 71.7475C159.577 72.7413 158.692 73.6365 157.436 74.3345C157.209 73.8489 156.944 73.3786 156.551 73.0069C156.316 72.7869 155.968 72.6958 155.749 72.491C155.477 72.2407 155.515 72.18 155.454 71.7931C155.409 71.5124 155.348 71.2317 155.22 70.9737C155.03 70.5793 154.879 70.6399 155.106 70.2986C155.212 70.1468 155.348 70.1241 155.462 70.0331C156.105 69.5248 156.717 68.7434 157.292 68.2654L157.323 68.2351C157.338 68.2199 157.353 68.2123 157.36 68.1972C159.38 66.1716 161.37 64.0854 163.427 62.0902C163.76 63.964 164.191 65.7999 165.076 67.4992V67.4917ZM158.911 50.5743C159.985 51.9171 160.749 53.5253 161.521 55.0502C161.899 55.7936 162.247 56.5523 162.497 57.3488C162.618 57.7281 162.989 58.555 162.89 58.9647C162.641 60.0723 160.78 59.4654 160.326 58.8357C159.864 58.1909 159.978 56.8405 159.872 56.0819C159.774 55.3233 159.577 54.3143 159.418 53.7529C159.252 53.146 159.078 52.5391 158.896 51.9322C158.957 52.1446 158.843 51.7502 158.843 51.735C158.851 51.7729 158.881 51.8791 158.881 51.8791C158.722 51.4771 158.321 50.4377 158.374 49.9901C158.548 50.1798 158.73 50.377 158.904 50.5667L158.911 50.5743ZM220.518 2.81876C220.723 2.59117 220.882 2.23462 221.116 2.04496C221.434 1.77944 221.32 1.73392 221.729 1.96151C222.273 2.26496 222.758 2.72014 223.181 3.16773C223.605 3.61531 223.976 4.09325 224.286 4.62429C224.414 4.84429 224.535 5.07946 224.649 5.30705C224.876 5.76223 224.823 5.74705 224.475 6.10361C224.323 5.73188 223.582 3.66842 223.053 4.04015C222.652 4.31325 223.355 5.14015 223.491 5.41326C223.612 5.65602 223.832 6.03533 223.885 6.30085C223.96 6.69534 223.93 6.68016 223.62 6.99879C223.317 6.28568 223.083 5.64085 222.629 4.99602C222.41 4.68498 222.168 4.32842 221.88 4.07049C221.615 3.83532 221.131 3.63049 221.237 4.2298C221.282 4.49532 221.759 4.86705 221.925 5.07946C222.19 5.42843 222.447 5.80016 222.637 6.18706C222.788 6.49809 223 6.93051 223.022 7.27189C223.06 7.78776 222.508 8.16707 222.145 8.57673C221.653 7.46155 220.836 6.55878 220.012 5.68636C219.777 5.43602 219.543 5.19326 219.3 4.9505C219.232 4.88222 219.164 4.81394 219.096 4.75325C218.809 4.6167 218.816 4.46498 219.119 4.30566C219.369 3.78221 220.14 3.24359 220.526 2.81876H220.518ZM171.87 39.7335C170.349 37.9052 168.526 35.4093 165.871 35.47C166.665 33.8542 167.27 32.1548 167.898 30.4631C168.549 28.7031 168.776 26.632 169.767 25.0238C170.871 23.2258 172.49 22.0423 174.101 20.7451C174.744 20.2292 175.433 19.5313 176.303 19.4858C177.15 19.4403 177.937 20.032 178.731 20.2596C178.466 20.5023 177.778 21.2458 178.065 21.6403C178.458 22.1789 178.822 21.4734 179.026 21.2079C179.313 20.8437 179.676 20.5099 180.153 20.563C180.38 20.5858 180.471 20.7527 180.683 20.7906C180.917 20.8361 181.053 20.6692 181.303 20.692C181.099 20.9423 180.751 21.4354 180.781 21.792C180.804 22.0955 181.03 22.3382 181.363 22.1637C181.636 22.0196 181.726 21.4886 181.938 21.2458C182.15 21.003 182.392 20.8589 182.71 20.8134C183.686 20.6692 184.82 20.8134 185.811 20.7754C186.855 20.7299 187.907 20.7451 188.951 20.6844C191.016 20.5782 193.096 20.563 195.154 20.3203C196.758 20.1306 198.914 19.4175 200.449 20.123C198.308 22.1561 196.289 24.2955 194.261 26.4348C192.317 28.4755 190.267 30.4176 188.353 32.4962C187.869 33.0273 187.355 33.5204 186.84 34.0211C186.515 34.3321 186.084 34.939 185.683 35.0907C184.836 35.4169 183.429 35.2273 182.543 35.2045C181.462 35.1818 180.599 34.5976 179.623 34.2031C178.935 33.9224 178.088 33.5507 177.543 33.1107C177.498 33.0804 177.467 33.0652 177.422 33.0348C176.802 32.6631 176.174 32.2914 175.576 31.8893C175.009 31.5024 174.472 30.6376 173.799 31.3203C173.239 31.8817 173.904 32.5266 174.305 32.9742C174.464 33.1486 174.631 33.3383 174.805 33.4976C175.017 33.6873 175.886 34.0742 175.924 34.2486C176.015 34.7342 175.364 34.6811 175.115 34.6128C174.85 34.5369 174.366 34.1197 174.094 34.1424C173.534 34.2031 173.912 34.7038 174.154 34.8707C174.54 35.1287 175.009 35.25 175.463 35.3107C174.926 37.3363 175.206 39.999 173.859 41.7211C173.133 41.1294 172.505 40.4314 171.885 39.7259L171.87 39.7335ZM176.772 43.868C176.204 43.4735 175.644 43.0639 175.077 42.6618C175.085 42.6466 175.1 42.6618 175.122 42.6922C175.319 42.8363 176.34 39.7032 176.416 39.377C176.658 38.2314 176.703 36.9494 177.18 35.8721C177.52 35.1059 177.649 35.3107 178.262 35.69C178.814 36.0314 179.381 36.3425 179.964 36.6307C181 37.139 182.142 37.5638 183.315 37.5183C181.189 39.6956 178.92 41.7135 176.772 43.868ZM186.424 49.0874C186.386 49.186 185.297 48.5336 185.131 48.4425C185.978 47.5701 186.939 46.7812 187.808 45.9315C187.332 46.9784 186.855 48.0177 186.432 49.0874H186.424ZM208.891 21.8299C205.011 25.6003 201.13 29.3707 197.325 33.2169C193.467 37.1163 189.458 40.8487 185.615 44.7556C185.062 45.317 184.472 45.8405 183.898 46.3791C183.58 46.6749 183.133 47.3729 182.763 47.3577C182.188 47.3349 181.273 46.6294 180.766 46.3487C180.062 45.9618 179.366 45.5522 178.678 45.1273C183.882 40.3025 188.898 35.3107 193.959 30.3265C196.576 27.7472 199.035 25.0086 201.667 22.4292C204.254 19.8954 206.932 17.4602 209.527 14.9264C212.432 12.0892 215.132 9.03949 217.735 5.92154C218.355 6.51327 218.96 7.12775 219.52 7.78017C219.891 8.22018 220.806 9.23674 220.783 9.88157C220.76 10.4581 219.353 11.4671 218.907 11.9147C218.196 12.6126 217.508 13.3257 216.812 14.0388C214.24 16.7016 211.562 19.2354 208.907 21.8148L208.891 21.8299Z" fill="#101010"/>
<path d="M251.264 94.9832C249.04 93.1549 246.581 91.5542 244.221 89.9231C241.936 88.3528 239.712 86.699 237.337 85.2728C236.913 85.0148 236.21 84.4231 235.711 84.3852C235.355 84.3548 235.022 84.6203 235.249 85.0148C235.461 85.3941 236.437 85.7204 236.823 85.9555C237.443 86.3273 238.056 86.7217 238.668 87.1238C241.112 88.7169 243.48 90.4314 245.87 92.0928C247.148 92.9804 248.389 93.9135 249.645 94.8239C250.008 95.0894 250.484 95.6052 250.901 95.7721C251.544 96.0301 251.748 95.3701 251.279 94.9832H251.264Z" fill="#101010"/>
</svg>
