<svg width="150" height="150" viewBox="0 0 198 198" fill="none" xmlns="http://www.w3.org/2000/svg">
<path d="M113.734 173.449C113.318 172.419 109.899 163.329 106.158 153.234C98.8372 133.515 95.1902 123.836 90.3901 111.358C88.714 106.994 87.2123 102.965 87.0514 102.389C86.8905 101.813 86.676 101.211 86.5687 101.037C86.2603 100.555 84.9731 100.622 84.4904 101.144C84.0078 101.666 80.8032 108.065 77.1964 115.656C75.8422 118.521 72.4231 125.643 69.5939 131.52C59.0149 153.449 45.4726 182.205 43.4346 187.024C42.3485 189.595 42.0401 190.585 42.2412 190.893C42.6301 191.509 44.5072 191.817 75.8153 196.556C86.6223 198.189 85.9653 198.149 87.5341 197.239C89.7733 195.927 111.562 179.527 113.787 177.466C114.699 176.622 114.686 175.806 113.72 173.449H113.734ZM48.5297 189.22L46.9073 188.979L48.0067 188.403C50.6482 187.011 66.0005 178.055 68.9503 176.194C70.7202 175.069 72.6778 173.931 73.2678 173.677C74.4879 173.142 75.4265 171.856 75.4265 170.718C75.4265 169.955 76.9953 158.161 79.0467 143.488C81.4602 126.245 83.2971 111.867 83.1094 111.68C82.6133 111.184 82.5865 111.345 77.8936 144.144C75.9628 157.666 74.26 169.313 74.0991 170.022C73.8443 171.214 73.6968 171.401 72.3426 172.258C71.5247 172.78 69.2185 174.079 67.1805 175.163C63.6943 177.037 47.2425 186.569 46.5453 187.118C46.0357 187.52 46.1564 187.185 47.3095 184.896C48.6906 182.165 59.6853 158.603 66.0274 144.787C77.2634 120.368 83.5787 106.512 83.82 105.829C83.9541 105.441 84.1016 105.133 84.1418 105.173C84.1821 105.214 84.1418 120.208 84.0882 138.468L83.9675 171.682L80.4144 171.763C77.4914 171.83 76.8612 171.91 76.8612 172.218C76.8612 172.419 77.1562 172.673 77.5048 172.753C78.0411 172.887 77.2902 173.396 72.8119 175.98C69.8755 177.68 65.0352 180.531 62.0183 182.365C59.0015 184.2 55.1131 186.529 53.3566 187.587L50.1655 189.488L48.5431 189.247L48.5297 189.22ZM53.008 189.929C52.1231 189.782 51.3454 189.621 51.2918 189.581C51.1845 189.461 52.6058 188.644 60.0473 184.507C68.4408 179.849 79.3283 173.463 79.3283 173.208C79.3283 173.034 80.5484 173.182 80.8166 173.382C80.8568 173.409 79.9183 174.052 78.7517 174.788C77.5584 175.538 75.5606 176.81 74.26 177.666C72.9728 178.51 68.6285 181.281 64.6195 183.811C60.6104 186.355 56.7221 188.832 55.9846 189.314C54.6572 190.197 54.6304 190.197 53.0214 189.943L53.008 189.929ZM56.5612 190.451C56.1589 190.304 56.6148 189.916 58.9076 188.47C60.4764 187.479 63.9089 185.311 66.5637 183.651C69.2185 181.991 73.3751 179.407 75.8153 177.907C78.269 176.408 80.83 174.828 81.5406 174.373C82.8949 173.53 84.0212 173.275 84.0078 173.838C83.9943 174.239 84.1821 174.105 77.25 178.791C74.1795 180.866 69.7146 183.744 67.3548 185.163C64.9815 186.596 62.0719 188.403 60.8652 189.206C58.6797 190.666 57.7813 190.933 56.5612 190.465V190.451ZM61.549 191.295C60.8652 191.201 60.2618 191.054 60.2082 190.974C60.1546 190.893 62.206 189.528 64.7804 187.961C67.3414 186.395 72.2488 183.289 75.6276 181.094C81.0982 177.546 83.753 175.886 83.9675 175.873C83.9943 175.873 84.0212 176.261 84.0212 176.729C84.0212 177.533 83.8603 177.693 81.8088 179.005C80.5887 179.782 75.8019 182.914 71.1895 185.953L62.7826 191.482L61.549 191.308V191.295ZM65.1424 191.857L64.11 191.67L65.0083 191.121C65.5044 190.826 68.7224 188.738 72.1549 186.502C75.5874 184.266 79.221 181.95 80.2266 181.361C81.2457 180.772 82.3988 180.063 82.8278 179.768C83.8469 179.072 83.9943 179.099 83.9809 179.956C83.9809 180.572 83.6591 180.839 81.5943 182.084C78.0009 184.24 71.9002 188.363 69.2721 190.411C67.9715 191.429 66.7514 192.192 66.5369 192.125C66.3223 192.071 65.6922 191.937 65.1156 191.844L65.1424 191.857ZM69.1783 192.553L68.0922 192.366L69.8621 191.174C73.6164 188.658 78.7786 185.244 81.2725 183.61C83.8469 181.924 83.8737 181.91 83.9675 182.566C84.0212 182.928 83.9139 183.276 83.7396 183.329C83.0558 183.557 73.8443 189.796 72.1013 191.215C70.3314 192.647 70.2107 192.714 69.1649 192.54L69.1783 192.553ZM72.6778 193.089L71.5113 192.888L74.5416 190.813C76.2042 189.675 78.9395 187.774 80.6021 186.596C82.2647 185.418 83.7128 184.454 83.82 184.454C83.9273 184.454 84.0078 184.762 84.0078 185.15C84.0078 185.766 83.5921 186.141 81.1116 187.814C79.516 188.885 77.25 190.545 76.0433 191.522C73.8846 193.263 73.8443 193.276 72.6778 193.089ZM76.5126 193.745L75.1315 193.49L78.7249 190.933C80.7093 189.528 82.6669 188.082 83.096 187.734L83.8737 187.091L83.9541 188.176C84.0212 189.059 83.9273 189.327 83.4446 189.648C83.1228 189.862 81.9161 190.813 80.8032 191.723C77.907 194.093 78.0679 194.026 76.4992 193.745H76.5126ZM80.4009 194.361L79.2612 194.2L80.4144 193.37C81.0445 192.915 82.1038 192.098 82.7206 191.576L83.8603 190.612L84.0078 191.496C84.115 192.192 84.0346 192.46 83.6189 192.768C83.3105 192.995 82.7474 193.45 82.3049 193.839C81.6345 194.414 81.3529 194.494 80.3875 194.361H80.4009ZM83.7128 194.856C83.163 194.856 83.163 194.856 83.6189 194.334C83.8737 194.053 84.1284 193.812 84.1821 193.812C84.2357 193.812 84.2759 194.053 84.2759 194.334C84.2759 194.695 84.1016 194.856 83.7128 194.856ZM90.5912 177.091C93.9566 174.574 94.4125 174.306 95.4047 174.306C96.0081 174.306 96.5176 174.346 96.5176 174.4C96.5176 174.453 95.8606 174.922 95.0561 175.458C93.8762 176.234 88.419 180.183 87.1855 181.147C86.9441 181.335 86.8771 181.214 86.8771 180.638C86.8771 179.969 87.3062 179.567 90.5912 177.104V177.091ZM86.8771 178.778V177.907C86.8771 177.144 87.038 176.944 88.1241 176.301C88.8079 175.899 89.8403 175.163 90.4035 174.694C91.1543 174.052 91.6772 173.824 92.3476 173.824H93.2594L92.6158 174.266C92.2672 174.507 91.1007 175.404 90.0414 176.274C88.9688 177.131 87.8291 178.055 87.4939 178.309L86.8771 178.791V178.778ZM98.9311 174.761C99.5344 174.842 100.111 174.989 100.218 175.083C100.326 175.176 97.4025 177.238 93.7019 179.688L86.9978 184.119L86.9173 183.182C86.8771 182.66 86.9441 182.205 87.0782 182.165C87.2123 182.124 88.8749 180.96 90.8057 179.567C97.7914 174.534 97.6975 174.587 98.9311 174.761ZM86.8771 186.502V185.11L89.3844 183.544C90.7521 182.687 94.0773 180.491 96.7321 178.684C100.956 175.806 101.707 175.377 102.618 175.377C103.195 175.377 103.865 175.471 104.133 175.578C104.495 175.725 103.249 176.703 98.5288 179.902C95.1902 182.178 91.1945 184.909 89.666 185.967L86.8637 187.894V186.502H86.8771ZM93.2058 184.427C104.428 176.85 105.97 175.873 106.802 175.873C107.459 175.873 107.512 175.926 107.191 176.234C106.882 176.542 94.1712 185.953 88.2582 190.264L86.8771 191.268V188.698L93.2058 184.427ZM104.509 181.013C101.17 183.53 95.9008 187.613 92.7365 190.103L87.0112 194.628L86.9307 193.424C86.8905 192.741 86.8905 192.192 86.9307 192.152C88.4459 191.027 107.378 177.292 108.035 176.85C108.692 176.408 109.215 176.247 109.765 176.328C110.502 176.435 110.167 176.743 104.522 181.013H104.509ZM109.725 174.186C103.892 173.543 90.9264 172.593 89.5587 172.713C89.009 172.753 89.1699 173.182 89.7867 173.356C90.0951 173.436 90.2962 173.557 90.2292 173.623C89.5453 174.226 87.105 176.14 86.9978 176.14C86.5821 176.14 86.9441 174.467 87.4403 174.065C88.0168 173.597 87.8827 172.86 87.2525 173.088C86.9844 173.195 86.8771 169.607 86.7564 154.827C86.3274 104.973 86.3274 106.499 86.7162 107.463C86.9173 107.958 88.8883 113.474 91.1141 119.685C93.3399 125.911 98.3411 139.66 102.243 150.249C106.145 160.838 109.725 170.585 110.207 171.91L111.092 174.333L109.711 174.186H109.725Z" fill="#101010"/>
<g clip-path="url(#clip0_3778_19091)">
<path d="M44.8218 92.9259C47.9085 88.8531 54.4595 80.4466 59.3606 74.2638C67.3345 64.2181 79.5377 48.4923 93.9371 29.7703C98.316 24.0732 98.8851 23.2509 98.7571 22.792C98.6877 22.5158 98.5519 22.2378 98.4728 22.2089C98.3938 22.18 94.0964 19.0336 88.9286 15.2289L79.5237 8.30878L72.7203 8.84714C63.6919 9.55375 62.9545 9.64723 63.0163 10.1894C63.0993 10.9185 64.6103 11.0493 69.1328 10.6856C71.4594 10.4963 74.5237 10.2987 75.9282 10.2429L78.4837 10.1506L76.2353 13.1053C74.9994 14.7232 74.0019 16.1909 74.0211 16.3591C74.0402 16.5274 75.2462 15.3106 76.7955 13.5338L79.5441 10.399L87.3116 16.5778C93.4861 21.4893 95.0065 22.7837 94.7159 22.8926C94.3714 23.0265 87.3092 24.7022 85.5067 25.0874L84.6283 25.2727L79.3858 21.4765C70.0479 14.7286 67.2311 12.7771 66.8946 12.8154C65.9412 12.924 67.0058 13.9579 74.9766 20.7573C79.4859 24.5992 83.1746 27.8055 83.1706 27.8533C83.1583 27.9115 71.5254 42.4929 57.2916 60.2586L31.429 92.5579L28.3995 93.3102C26.7238 93.7283 23.8228 94.3618 21.9039 94.7225C19.985 95.0831 18.3881 95.445 18.3219 95.5283C18.2556 95.6115 17.8853 95.436 17.4792 95.1129L16.7607 94.5415L19.9795 93.8718C25.9458 92.6334 29.617 91.7796 30.1897 91.4871C30.6192 91.2677 30.7745 91.0512 30.7797 90.6813C30.7785 90.2554 30.1535 89.6733 27.1652 87.2962C25.1869 85.7225 23.4338 84.464 23.3072 84.5163C23.1619 84.5708 23.1541 84.7516 23.2854 84.907C23.4397 85.0978 21.1867 85.6006 17.0059 86.3042C13.4004 86.9043 9.9549 87.4957 9.28828 87.6284C8.54688 87.7697 7.76336 87.7075 7.26191 87.4616L6.44005 87.0628L8.74945 86.6388C10.0287 86.3984 12.7099 85.913 14.768 85.527C16.826 85.1411 19.206 84.6711 20.1175 84.4442L21.7579 84.049L25.8532 78.7723C28.108 75.8737 33.665 68.7167 38.1993 62.8882C58.3511 36.9775 71.5553 19.5659 71.2533 19.3257C70.9514 19.0855 33.2164 67.2717 24.1575 79.4295L21.0771 83.5584L17.6015 83.8029C15.6757 83.937 12.4205 84.2037 10.3141 84.4153L6.50229 84.7833L8.25321 82.2829C9.22392 80.913 15.2465 73.0212 21.6441 64.7648C42.396 37.9714 61.9145 12.237 61.8548 11.7136C61.8418 11.5162 61.6589 11.4897 61.4017 11.6421C60.7088 12.043 3.3682 85.2823 3.2494 85.9019C3.14907 86.4341 3.46357 86.7013 13.9773 94.8775L24.8139 103.31L25.9145 103.081C26.5251 102.955 29.1435 102.334 31.7889 101.702C34.4239 101.06 37.1527 100.494 37.8756 100.44L39.1989 100.337L44.8114 92.9176L44.8218 92.9259ZM9.47096 89.0658L8.67963 88.4363L9.46055 88.3095C20.9455 86.3098 24.1338 85.8709 24.6024 86.2436C24.8835 86.4672 24.9755 86.6935 24.8302 86.7479C24.5666 86.8442 18.8101 88.0113 12.8166 89.177C10.4824 89.6323 10.2164 89.6247 9.47925 89.0554L9.47096 89.0658ZM11.6367 90.7885C11.2723 90.4987 11.0283 90.1856 11.0946 90.1023C11.1608 90.019 12.5854 89.7241 14.2843 89.4264C15.9748 89.1391 19.1896 88.5172 21.4013 88.0664C24.7966 87.3672 25.5279 87.3028 26.0068 87.6838C26.4858 88.0648 26.5068 88.1665 26.0896 88.3277C25.8177 88.4344 22.9582 89.0159 19.733 89.6295C16.516 90.2327 13.5112 90.8685 13.094 91.0297C12.5128 91.2474 12.1552 91.184 11.6554 90.7864L11.6367 90.7885ZM13.6463 92.3871C13.2819 92.0972 13.04 91.8028 13.125 91.7174C13.1912 91.6341 13.8723 91.4618 14.6054 91.3309C15.3468 91.1897 18.5242 90.572 21.6808 89.9378C26.6794 88.9328 27.4749 88.8516 27.9956 89.2657L28.5891 89.7379L26.766 90.1917C25.7527 90.4397 22.9948 91.0001 20.5858 91.4639C18.1664 91.9195 15.8011 92.4351 15.2718 92.609C14.5327 92.8542 14.1669 92.8012 13.6567 92.3953L13.6463 92.3871ZM15.4892 93.8531C15.2289 93.646 15.0434 93.4304 15.0931 93.3679C15.1428 93.3055 17.1384 92.8698 19.5536 92.3769C21.9688 91.884 25.0794 91.1792 26.4955 90.8096C28.657 90.2509 29.1452 90.2142 29.568 90.6016L30.0742 91.0552L28.2055 91.5238C27.1652 91.7843 24.9952 92.2683 23.3214 92.6199C21.6476 92.9716 19.3385 93.4808 18.1278 93.7418C16.5766 94.089 15.8224 94.1181 15.4788 93.8448L15.4892 93.8531ZM24.8913 100.499C24.8913 100.499 24.3754 100.293 23.8614 100.02L22.9354 99.5382L24.5074 99.2076L26.0795 98.877L25.5373 99.6868C25.229 100.139 24.9474 100.493 24.883 100.509L24.8913 100.499ZM24.6033 98.5528C22.6574 98.926 22.2771 98.9125 21.694 98.4487L21.0276 97.9186L21.881 97.6793C23.0727 97.3352 27.8533 96.4119 27.9679 96.503C28.0199 96.5444 27.7987 96.9294 27.4591 97.3563C26.9456 98.0019 26.4848 98.1964 24.6033 98.5528ZM26.2773 96.0422C24.8319 96.3205 22.9007 96.7394 21.9995 96.9746C20.5274 97.3506 20.2801 97.3409 19.5825 96.786C19.1555 96.4464 18.8451 96.1315 18.8948 96.069C18.9445 96.0065 20.4126 95.6783 22.1881 95.3056C23.9741 94.9411 26.5033 94.3689 27.8675 94.0431C29.2401 93.7068 30.3677 93.4647 30.3989 93.4896C30.4301 93.5144 30.1156 93.9953 29.685 94.5367C28.9395 95.4738 28.7403 95.5533 26.2669 96.034L26.2773 96.0422ZM37.4071 97.8232C37.1953 97.8757 35.1978 98.3779 32.9781 98.9243C30.7584 99.4707 28.9144 99.908 28.8728 99.8749C28.8311 99.8418 29.0898 99.4525 29.4459 99.0048C30.034 98.2655 30.3994 98.1481 33.5313 97.6303C35.7619 97.2626 37.1165 97.184 37.3872 97.3994C37.6891 97.6396 37.6936 97.7622 37.4071 97.8232ZM31.1687 96.839C31.8479 95.9852 35.131 95.2987 35.8474 95.8515C36.2743 96.1911 36.2619 96.2493 35.7636 96.3629C34.6215 96.6445 31.3052 97.3726 30.9791 97.4193C30.7839 97.451 30.8518 97.216 31.1583 96.8307L31.1687 96.839ZM38.9431 96.512C38.8392 96.5143 37.8818 95.9227 36.8221 95.1818C35.0629 93.9524 34.3307 93.676 34.8232 94.4248C34.9275 94.5928 34.5541 94.8058 33.8065 94.9762L32.6167 95.2537L37.4326 89.0712C44.6441 79.8131 79.7933 36.5232 83.8758 31.8824L87.4467 27.8206L89.8075 27.1824C92.5357 26.4455 94.0663 26.167 94.1023 26.3996C94.1108 26.4744 91.0754 30.3331 87.3627 34.9791C83.6396 39.6168 71.2869 55.3597 59.8826 69.9529C48.4805 84.5649 39.0761 96.5158 38.9722 96.5181L38.9431 96.512Z" fill="#101010"/>
</g>
<path d="M196.785 101.781C196.33 99.498 194.965 91.412 193.741 83.7442C190.54 63.5988 189.84 60.6363 188.266 60.4969C186.867 60.3749 182.721 60.3923 162.535 60.6189C150.745 60.7583 139.06 60.95 136.541 61.072L131.958 61.2985L130.891 62.5358C130.296 63.2155 124.524 69.6982 118.034 76.9826C111.51 84.2496 105.929 90.6452 105.58 91.2028C104.775 92.4924 104.775 93.0849 105.615 93.2941C105.982 93.3986 106.297 93.6774 106.297 93.9214C106.297 94.1654 108.571 100.735 111.352 108.525C114.133 116.315 117.212 124.993 118.174 127.816C119.276 131.04 120.151 133.045 120.501 133.184C120.815 133.306 127.917 133.532 136.349 133.689C152.564 134.003 169.742 134.561 172.103 134.874L173.537 135.066L175.899 132.26C177.193 130.709 180.867 126.37 184.068 122.571C189.823 115.775 196.05 108.159 197.065 106.695C197.554 105.981 197.537 105.563 196.785 101.763V101.781ZM124.926 130.64C124.209 130.64 123.614 130.552 123.614 130.431C123.614 130.309 127.323 125.307 131.853 119.277C139.742 108.786 140.144 108.316 141.212 108.316C142.069 108.316 142.261 108.403 142.069 108.752C141.911 108.996 138.29 114.032 134.022 119.922L126.238 130.64H124.926ZM128.949 130.971C127.655 130.971 127.323 130.866 127.463 130.5C127.55 130.239 131.171 125.15 135.527 119.155C143.223 108.56 143.451 108.281 144.588 108.281C145.41 108.281 145.672 108.403 145.497 108.699C145.375 108.926 141.964 114.049 137.94 120.044L130.611 130.971H128.949ZM133.218 130.971C132.43 130.971 131.766 130.901 131.766 130.796C131.766 130.64 142.034 115.531 145.252 110.965C146.984 108.49 147.229 108.299 148.331 108.299C148.978 108.299 149.468 108.403 149.398 108.542C148.908 109.536 147.089 112.342 141.299 121.037L134.669 130.988H133.218V130.971ZM137.066 131.302C136.209 131.302 135.527 131.232 135.527 131.145C135.527 131.058 137.923 127.503 140.827 123.268C143.73 119.033 147.211 113.91 148.541 111.906C150.902 108.351 150.99 108.264 152.249 108.264H153.544L152.826 109.658C152.442 110.425 150.71 113.091 148.996 115.565C147.281 118.057 144.255 122.606 142.244 125.69L138.605 131.302H137.066ZM141.177 131.232C140.284 131.284 139.602 131.267 139.602 131.162C139.602 130.936 145.952 121.438 150.185 115.356C152.179 112.481 154.016 109.693 154.243 109.187C154.593 108.42 154.856 108.281 155.975 108.281C157.234 108.281 157.287 108.316 156.885 109.048C156.657 109.466 155.555 111.157 154.418 112.864C153.281 114.537 150.203 119.33 147.561 123.53L142.751 131.145L141.177 131.25V131.232ZM145.375 131.302H143.678L145.917 127.677C147.876 124.523 150.535 120.393 156.972 110.581L158.459 108.316H160.103C161.73 108.281 161.748 108.299 161.275 109.03C160.873 109.658 153.386 121.386 148.226 129.507C147.106 131.267 147.054 131.302 145.392 131.302H145.375ZM169.287 131.633C168.814 131.633 168.482 131.424 168.482 131.128C168.482 130.849 168.307 130.622 168.132 130.622C167.957 130.622 167.695 130.866 167.59 131.128C167.485 131.424 166.978 131.633 166.4 131.633H165.403L166.785 129.716C167.537 128.67 168.167 127.677 168.167 127.538C168.167 126.806 167.485 127.398 165.981 129.437C164.459 131.511 164.266 131.633 163.007 131.633C162.027 131.633 161.73 131.511 161.922 131.197C162.92 129.507 166.121 124.941 166.558 124.575C167.135 124.105 167.328 122.832 166.838 122.832C166.68 122.832 166.016 123.634 165.333 124.61C164.651 125.586 163.287 127.538 162.307 128.932C160.541 131.441 160.506 131.476 158.914 131.581C158.022 131.633 157.304 131.616 157.304 131.528C157.304 131.441 159.439 128.287 162.062 124.54C166.54 118.11 167.433 116.507 166.418 116.82C166.191 116.89 163.812 120.149 161.135 124.035C156.482 130.814 156.202 131.128 155.065 131.232C153.981 131.319 153.911 131.284 154.243 130.657C154.681 129.838 157.899 124.697 160.191 121.142C163.969 115.287 165.508 112.585 165.194 112.272C164.984 112.063 164.669 112.22 164.354 112.725C164.091 113.161 161.363 117.535 158.319 122.414L152.774 131.302H148.051L148.856 129.977C152.232 124.453 162.972 108.299 163.234 108.316C164.214 108.42 164.459 108.194 164.354 107.323L164.249 106.416L161.013 106.504C159.246 106.556 153.719 106.695 148.768 106.8L139.742 107.026L138.78 103.837C138.238 102.077 137.538 99.6723 137.206 98.4524C136.104 94.4094 136.086 97.1977 137.171 102.513L138.203 107.584L134.827 112.237C132.973 114.781 129.177 119.992 126.431 123.756L121.41 130.605L120.518 127.991C112.332 104.343 109.043 94.8102 108.851 94.3397C108.658 93.8691 108.851 93.7472 110.093 93.66C110.915 93.6077 123.334 93.5729 137.731 93.6077L163.899 93.66L164.004 94.6185C164.057 95.1587 165.403 103.332 166.978 112.847C168.552 122.362 169.899 130.448 169.969 130.884C170.056 131.494 169.934 131.65 169.287 131.65V131.633ZM194.581 105.092C194.458 105.214 188.633 105.702 178.33 106.451C170.983 106.974 169.829 107.201 169.829 108.107C169.829 108.682 170.231 108.752 170.721 108.281C170.931 108.072 171.596 107.95 172.173 108.002L173.24 108.107L171.876 110.233C170.424 112.498 170.354 112.673 170.826 112.673C171.001 112.673 171.893 111.627 172.873 110.303C174.464 108.142 174.709 107.933 175.829 107.933C176.738 107.933 177.001 108.055 176.861 108.403C176.756 108.664 175.374 110.965 173.765 113.527C172.155 116.106 170.948 118.267 171.071 118.389C171.333 118.65 172.26 117.448 174.132 114.363C174.989 112.969 176.371 110.86 177.193 109.71L178.698 107.601H180.552C181.566 107.601 182.406 107.689 182.406 107.811C182.406 107.933 181.689 108.856 180.797 109.902C178.085 113.091 172.208 121.491 172.208 122.188C172.208 122.885 173.817 121.142 175.654 118.458C178.523 114.293 182.388 109.362 183.648 108.264C184.575 107.462 185.117 107.253 186.324 107.253H187.846L185.695 109.867C181.776 114.607 172.855 126.562 172.855 127.067C172.855 127.782 173.887 126.771 176.126 123.791C180.062 118.58 187.584 109.274 188.721 108.194C189.613 107.357 189.963 107.253 191.519 107.34L193.304 107.445L191.187 109.815C190.015 111.122 185.764 116.036 181.724 120.776C177.683 125.516 173.975 129.855 173.485 130.431C172.995 131.006 172.505 131.389 172.4 131.302C172.295 131.215 171.053 124.105 169.654 115.583C166.156 94.3919 165.578 91.1331 165.316 90.8717C164.914 90.4709 142.891 90.6975 125.381 91.2551C116.372 91.5514 108.746 91.7257 108.396 91.6734C107.889 91.5862 110.443 88.5714 119.836 78.1851C126.658 70.6393 131.958 65.0278 131.993 65.3241C132.046 65.6029 132.745 71.1272 133.567 77.6274C134.39 84.1276 135.194 89.5473 135.352 89.7216C135.509 89.8784 135.859 89.8784 136.104 89.7216C136.489 89.4776 136.314 87.4561 135.159 77.8017C134.39 71.406 133.672 65.7075 133.567 65.115L133.375 64.0694L150.308 63.7905C159.613 63.6337 170.546 63.4072 174.552 63.2852C178.558 63.1632 182.668 63.0238 183.665 62.9889L185.467 62.9366L183.193 66.2129C181.112 69.2103 176.843 75.0831 168.884 85.8877C166.121 89.6519 165.596 90.6975 166.505 90.6975C167.188 90.6975 168.639 89.0071 173.905 82.0712C181.147 72.5214 187.496 64.6096 187.794 64.7839C187.951 64.871 188.161 65.8818 188.283 67.0668C188.406 68.2344 189.63 75.6582 191.03 83.5874C193.828 99.5677 194.721 104.97 194.563 105.127L194.581 105.092Z" fill="#101010"/>
<path d="M157.578 166.023C156.557 165.705 153.084 163.572 152.107 162.641C151.154 161.756 149.315 158.759 148.884 157.42C148.43 156.036 147.999 156.058 147.817 157.488C147.273 161.551 144.662 163.98 139.419 165.365C137.693 165.819 137.398 165.955 137.444 166.318C137.489 166.613 137.92 166.863 138.987 167.226C141.144 167.953 142.687 168.929 143.981 170.359C145.502 172.039 146.455 173.65 147.182 175.761C148.022 178.145 148.339 178.099 149.384 175.421C150.337 172.947 151.404 171.267 152.902 169.859C154.128 168.724 156.352 167.567 157.714 167.385C159.19 167.204 159.099 166.523 157.533 166.046L157.578 166.023ZM153.742 167.748C151.926 168.611 149.838 170.563 148.839 172.288L148.203 173.378L147.658 172.356C146.887 170.881 144.685 168.838 142.801 167.839L141.166 166.977L142.733 166.114C144.866 164.934 147.204 162.573 147.908 160.893C148.385 159.713 148.453 159.645 148.634 160.121C148.748 160.416 149.043 161.075 149.293 161.62C149.883 162.936 152.743 165.774 154.196 166.477L155.308 167.022L153.765 167.771L153.742 167.748Z" fill="#101010"/>
<path d="M21.8522 20.7534C21.2847 20.5768 19.3552 19.3914 18.813 18.8744C18.2959 18.3825 17.2618 16.7179 17.0222 15.9739C16.77 15.2046 16.5304 15.2172 16.4295 16.0117C16.1269 18.269 14.6766 19.6184 11.7636 20.3876C10.8051 20.6399 10.6412 20.7155 10.6664 20.9173C10.6917 21.0812 10.9313 21.22 11.524 21.4217C12.722 21.8253 13.5795 22.3675 14.2983 23.162C15.1432 24.0952 15.6729 24.9906 16.0764 26.1634C16.543 27.4875 16.7196 27.4623 17.2997 25.9742C17.8293 24.5996 18.422 23.6664 19.2543 22.8846C19.9353 22.254 21.1712 21.6109 21.9278 21.51C22.7475 21.4091 22.6971 21.0308 21.8269 20.766L21.8522 20.7534ZM19.7209 21.7118C18.7121 22.191 17.5519 23.2755 16.997 24.2339L16.6439 24.8392L16.3413 24.2718C15.9125 23.4521 14.6893 22.3171 13.6426 21.7622L12.7346 21.283L13.6047 20.8038C14.7901 20.148 16.089 18.8365 16.48 17.9033C16.7448 17.2476 16.7826 17.2097 16.8835 17.4746C16.9466 17.6385 17.1105 18.0042 17.2492 18.3069C17.5771 19.0383 19.1661 20.6146 19.9732 21.0056L20.5911 21.3082L19.7336 21.7244L19.7209 21.7118Z" fill="#101010"/>
<path d="M145.09 26.6281C144.401 26.4139 142.06 24.9757 141.402 24.3484C140.76 23.7517 139.521 21.732 139.23 20.8293C138.924 19.896 138.633 19.9113 138.511 20.8752C138.144 23.614 136.384 25.2511 132.85 26.1844C131.687 26.4904 131.488 26.5822 131.518 26.827C131.549 27.0259 131.84 27.1942 132.559 27.439C134.012 27.9287 135.053 28.5866 135.925 29.5505C136.95 30.6827 137.593 31.769 138.082 33.192C138.648 34.7985 138.863 34.7679 139.566 32.9625C140.209 31.2947 140.928 30.1625 141.938 29.2139C142.764 28.4489 144.264 27.6686 145.182 27.5462C146.176 27.4238 146.115 26.9647 145.059 26.6434L145.09 26.6281ZM142.504 27.791C141.28 28.3724 139.872 29.6882 139.199 30.851L138.771 31.5854L138.404 30.8969C137.883 29.9024 136.399 28.5254 135.129 27.8522L134.028 27.2708L135.083 26.6893C136.522 25.8937 138.098 24.3025 138.572 23.1703C138.893 22.3747 138.939 22.3288 139.062 22.6501C139.138 22.849 139.337 23.2927 139.505 23.6599C139.903 24.5473 141.831 26.4598 142.81 26.9341L143.56 27.3013L142.519 27.8063L142.504 27.791Z" fill="#101010"/>
<path d="M94.6347 76.1097C94.1015 75.9439 92.2887 74.8301 91.7793 74.3444C91.2816 73.8823 90.3219 72.3183 90.0968 71.6192C89.8598 70.8965 89.6347 70.9084 89.5399 71.6548C89.2556 73.7756 87.893 75.0434 85.1561 75.7661C84.2556 76.0031 84.1016 76.0742 84.1253 76.2638C84.149 76.4178 84.3741 76.5481 84.931 76.7377C86.0565 77.1169 86.8622 77.6263 87.5376 78.3728C88.3314 79.2495 88.829 80.0908 89.2082 81.1927C89.6466 82.4367 89.8124 82.413 90.3575 81.0149C90.8551 79.7235 91.412 78.8467 92.1939 78.1121C92.8338 77.5197 93.9949 76.9154 94.7058 76.8206C95.4759 76.7259 95.4285 76.3704 94.611 76.1216L94.6347 76.1097ZM92.6323 77.0102C91.6845 77.4605 90.5944 78.4794 90.0731 79.3799L89.7414 79.9486L89.457 79.4154C89.0542 78.6453 87.9049 77.5789 86.9215 77.0576L86.0684 76.6074L86.8859 76.1571C87.9997 75.541 89.22 74.3088 89.5873 73.432C89.8361 72.8159 89.8717 72.7804 89.9665 73.0292C90.0257 73.1832 90.1797 73.5268 90.3101 73.8112C90.6181 74.4984 92.111 75.9794 92.8693 76.3467L93.4499 76.6311L92.6442 77.0221L92.6323 77.0102Z" fill="#101010"/>
<g clip-path="url(#clip1_3778_19091)">
<path d="M23.6255 116.626C22.0171 116.196 17.1081 115.934 16.792 116.27C16.699 116.373 16.0575 116.541 15.3509 116.654C10.5999 117.42 5.92339 120.522 3.1063 124.763C-1.0775 131.098 -1.04031 139.432 3.21786 145.785C4.16619 147.206 6.40685 149.523 7.76426 150.494C14.04 154.998 22.6121 155.222 29.2597 151.055C32.0489 149.308 34.773 146.215 36.1397 143.253C41.1324 132.387 35.1821 119.727 23.6255 116.616V116.626ZM36.4837 133.537C36.4837 134.125 35.4145 134.854 33.5364 135.536C32.7276 135.835 32.0582 136.05 32.0582 136.022C32.0582 135.994 32.5788 135.583 33.211 135.116C36.242 132.873 36.4837 132.761 36.4837 133.537ZM25.485 132.929C26.6192 131.976 26.9725 131.817 28.051 131.752C28.395 131.733 28.2649 131.892 27.4188 132.528C25.8476 133.714 24.1833 135.302 24.3321 135.461C24.3972 135.527 25.2153 134.975 26.1358 134.228C28.2277 132.537 29.4549 131.715 29.8919 131.715C30.5334 131.715 30.4311 132.023 29.5851 132.621C28.2277 133.574 24.8341 136.47 24.8341 136.667C24.8341 136.9 25.3548 136.536 27.6512 134.714C28.739 133.854 29.9756 132.864 30.4125 132.518C30.9146 132.116 31.4074 131.892 31.7514 131.892C32.2255 131.892 31.8815 132.229 28.8785 134.63C25.8476 137.068 24.6575 137.881 24.1461 137.881C24.0067 137.881 23.7278 134.835 23.672 132.705L23.6534 131.976L24.8063 131.92L25.9591 131.864L24.9085 132.827C23.5139 134.107 23.9509 134.172 25.4664 132.911L25.485 132.929ZM26.9075 136.76C27.5025 136.321 29.0923 135.078 30.4311 134.022C32.3836 132.472 32.9879 132.088 33.4528 132.088C33.7782 132.088 34.0385 132.154 34.0385 132.238C34.0385 132.397 28.237 136.807 27.6233 137.124C27.4281 137.227 26.9353 137.367 26.5356 137.442L25.8104 137.582L26.8982 136.779L26.9075 136.76ZM30.3382 135.779C31.333 135.097 32.7555 134.069 33.4993 133.499C34.8753 132.453 35.0705 132.359 35.554 132.546C36.0002 132.724 30.803 136.461 29.7896 136.695C29.4828 136.769 29.0923 136.863 28.8878 136.919C28.6925 136.975 29.3434 136.461 30.3289 135.779H30.3382ZM19.2465 117.195C19.5905 117.195 20.6132 117.317 21.515 117.466C23.4117 117.775 25.9219 118.616 27.363 119.428C31.7235 121.867 34.9403 125.987 36.0932 130.631C36.2606 131.285 36.3907 131.883 36.3907 131.939C36.3907 131.995 35.9538 131.939 35.4331 131.799C33.7782 131.36 31.3516 131.182 27.3258 131.182H23.4024L23.2908 130.491C22.2588 124.081 20.734 119.456 19.0791 117.691L18.6142 117.205H19.2372L19.2465 117.195ZM15.1556 133.752C15.8808 133.116 16.4015 132.808 16.9035 132.714C17.3033 132.649 17.6566 132.612 17.6938 132.649C17.731 132.686 16.9407 133.434 15.9645 134.303C14.3189 135.77 13.9191 136.246 14.3375 136.246C14.4304 136.246 15.1835 135.648 16.0203 134.919C18.6235 132.649 18.9025 132.462 19.9716 132.322L20.9479 132.201L18.512 134.172C17.1732 135.256 15.6856 136.414 15.2207 136.751C14.4304 137.321 14.1422 137.704 14.4955 137.704C14.6815 137.704 19.1349 134.331 20.6225 133.06C21.5057 132.303 21.9148 132.07 22.3611 132.07H22.9375L22.0357 132.883C21.5336 133.331 20.2506 134.378 19.1442 135.228C18.0378 136.069 16.5595 137.246 15.8157 137.862C15.072 138.47 14.3747 138.965 14.2631 138.965C14.1329 138.965 13.9749 138.199 13.8447 136.909C13.5565 134.116 13.5658 133.154 13.8912 133.154C14.0307 133.154 14.4211 133.097 14.7465 133.032L15.3509 132.911L14.6443 133.658C13.6123 134.751 13.9377 134.798 15.1556 133.733V133.752ZM18.1029 136.695C19.6741 135.508 21.3477 134.191 21.8218 133.761C22.296 133.34 22.7237 132.985 22.7701 132.985C22.8166 132.985 22.8538 133.303 22.8538 133.705C22.8538 134.396 22.8073 134.452 21.4499 135.368C20.6875 135.882 19.3301 136.844 18.4562 137.489C17.387 138.283 16.6153 138.713 16.104 138.806C15.6856 138.881 15.323 138.918 15.2951 138.9C15.2672 138.872 16.5223 137.881 18.0936 136.695H18.1029ZM19.7857 137.171C20.8363 136.433 21.9241 135.648 22.2216 135.415C22.9282 134.863 23.0305 134.873 23.0212 135.471C23.0212 135.91 22.7423 136.162 21.0966 137.246C19.702 138.171 18.9675 138.545 18.4004 138.619C17.9634 138.675 17.6752 138.666 17.7496 138.619C17.824 138.563 18.7351 137.909 19.7857 137.18V137.171ZM21.5057 137.545C22.2123 137.04 22.8259 136.629 22.9096 136.629C22.984 136.629 23.0491 136.788 23.0491 136.966C23.0491 137.461 21.9985 138.18 21.0594 138.33L20.2506 138.46L21.515 137.554L21.5057 137.545ZM15.5554 118.69C16.1876 117.709 16.8849 117.298 17.1546 117.747C17.2196 117.849 17.4614 117.924 17.7031 117.924C18.8374 117.924 20.6596 121.774 21.7753 126.529C22.1007 127.931 22.6679 130.883 22.6679 131.191C22.6679 131.248 21.859 131.35 20.8642 131.416C19.8694 131.481 17.8426 131.705 16.3364 131.911C14.8395 132.116 13.5658 132.247 13.51 132.182C13.2962 131.976 13.8168 124.735 14.1701 122.998C14.5513 121.11 15.1091 119.354 15.5554 118.681V118.69ZM1.03299 134.153C1.14456 131.519 1.60013 129.706 2.70651 127.379C3.7757 125.146 4.76122 123.782 6.51841 122.101C8.6661 120.045 10.5813 118.868 13.3612 117.896C14.1515 117.616 14.8953 117.392 15.0162 117.382C15.1277 117.382 14.9232 117.971 14.5606 118.7C13.4356 120.951 12.8406 124.24 12.5989 129.519L12.4594 132.5L9.83756 133.088C5.89549 133.976 2.66932 135.078 1.46067 135.938L0.940018 136.312L1.03299 134.153ZM11.7807 138.844C11.5204 139.021 11.0276 139.161 10.7022 139.152H10.1072L10.572 138.741C10.8231 138.517 11.3158 138.124 11.6598 137.862C12.0038 137.601 12.227 137.321 12.1526 137.255C12.0317 137.134 11.3065 137.601 9.96772 138.666C9.49356 139.04 9.15885 139.171 8.74977 139.124C8.20123 139.068 8.23842 139.03 9.96772 137.769C11.8272 136.414 12.7848 135.536 12.385 135.536C12.1433 135.536 9.37269 137.507 8.12685 138.573C7.6062 139.021 7.2622 139.171 6.77874 139.161C6.16512 139.161 6.15582 139.143 6.49982 138.881C8.01528 137.75 10.9997 135.396 11.7342 134.742L12.6361 133.938L12.6825 134.602C12.7104 134.966 12.8127 136.078 12.915 137.059C13.1102 138.946 13.0544 139.152 12.3292 139.161C12.1154 139.161 12.0596 139.068 12.1433 138.853C12.2549 138.554 12.2363 138.554 11.7807 138.853V138.844ZM5.80252 136.536C7.71777 134.854 8.45226 134.312 9.10307 134.144C9.55864 134.022 9.95842 133.91 9.97702 133.91C10.0049 133.91 10.0235 133.938 10.0235 133.985C10.0235 134.032 9.51215 134.462 8.89853 134.929C8.28491 135.396 6.97398 136.48 6.01636 137.311C4.64035 138.498 4.16619 138.815 3.80359 138.769C3.39451 138.722 3.62695 138.47 5.81182 136.545L5.80252 136.536ZM2.47408 138.498C2.26024 138.442 2.08359 138.339 2.08359 138.274C2.08359 138.208 2.87386 137.582 3.83149 136.881C4.78911 136.181 5.73744 135.443 5.94198 135.228C6.25809 134.891 6.62998 134.714 7.18782 134.63C7.2622 134.62 6.49982 135.359 5.48641 136.293C3.0877 138.507 2.92965 138.619 2.47408 138.498ZM6.97398 137.05C10.1537 134.424 11.1392 133.705 11.7993 133.546C12.1619 133.462 12.4966 133.378 12.5431 133.368C12.5803 133.359 12.4594 133.518 12.2735 133.742C12.0875 133.957 10.5535 135.218 8.86134 136.554C6.48122 138.432 5.67236 138.974 5.24468 138.974C4.61246 138.974 4.51949 139.077 6.98328 137.05H6.97398ZM1.73959 136.788C2.62283 136.153 5.43992 135.003 4.88208 135.499C3.441 136.797 1.66521 138.087 1.45137 138.003C0.995802 137.825 1.14456 137.208 1.73959 136.788ZM16.9686 153.213C10.0514 152.428 4.08251 147.505 1.81397 140.722C1.27472 139.105 1.25613 138.9 1.6838 139.068C1.85116 139.133 2.60424 139.311 3.34803 139.46C4.1476 139.619 6.45333 139.768 8.96361 139.834L13.2218 139.946L13.4449 141.413C13.761 143.496 14.7651 147.336 15.4438 149.056C16.0854 150.672 16.8756 152.064 17.5822 152.83L18.0471 153.335L16.9593 153.213H16.9686ZM18.5027 152.279C17.5915 151.447 16.3922 149.018 15.6484 146.458C15.1463 144.748 14.105 139.89 14.2259 139.797C14.2538 139.778 15.6205 139.619 17.2568 139.441C19.6741 139.189 21.3477 138.956 23.077 138.638C23.1513 138.629 23.1606 139.526 23.1141 140.647C22.8259 146.981 21.8683 151.139 20.39 152.522C19.7578 153.12 19.3766 153.064 18.512 152.279H18.5027ZM35.9259 140.236C35.4331 141.945 34.4383 144.076 33.49 145.468C31.8257 147.888 28.5438 150.663 25.9963 151.793C25.0759 152.204 21.8776 153.139 21.3941 153.139C21.3012 153.139 21.4685 152.812 21.766 152.391C22.389 151.522 23.0955 149.467 23.486 147.346C23.7836 145.729 24.1183 141.684 24.1183 139.684V138.488L25.4199 138.255C29.1202 137.601 33.7689 136.199 35.5168 135.209C36.6696 134.555 36.7626 134.536 36.7626 134.91C36.7626 135.994 36.307 138.918 35.9259 140.226V140.236Z" fill="#101010"/>
</g>
<defs>
<clipPath id="clip0_3778_19091">
<rect width="37.905" height="109.564" fill="white" transform="translate(70.5762) rotate(38.5007)"/>
</clipPath>
<clipPath id="clip1_3778_19091">
<rect width="37.9145" height="37.9145" fill="white" transform="translate(0 116.117)"/>
</clipPath>
</defs>
</svg>
