<svg
    xmlns="http://www.w3.org/2000/svg"
    xmlns:xlink="http://www.w3.org/1999/xlink"
    viewBox="0 0 1920 1080"
    width="1920"
    height="1080"
    preserveAspectRatio="xMidYMid meet"
    style="width: 100%; height: 100%; transform: translate3d(0px, 0px, 0px); content-visibility: visible;"
><defs><clipPath id="__lottie_element_27"><rect
                width="1920"
                height="1080"
                x="0"
                y="0"
            /></clipPath><clipPath id="__lottie_element_32"><path
                d="M0,0 L1920,0 L1920,1080 L0,1080z"
            /></clipPath><clipPath id="__lottie_element_36"><path
                d="M0,0 L1920,0 L1920,1080 L0,1080z"
            /></clipPath><clipPath id="__lottie_element_40"><path
                d="M0,0 L1920,0 L1920,1080 L0,1080z"
            /></clipPath></defs><g clip-path="url(#__lottie_element_27)"><g
            transform="matrix(1,0,0,1,960,540)"
            opacity="1"
            style="display: block;"
        ><g opacity="1" transform="matrix(1,0,0,1,0,0)"><path
                    fill="rgb(200,255,0)"
                    fill-opacity="1"
                    d=" M960,-540 C960,-540 960,540 960,540 C960,540 -960,540 -960,540 C-960,540 -960,-540 -960,-540 C-960,-540 960,-540 960,-540z"
                /></g></g><g
            clip-path="url(#__lottie_element_32)"
            transform="matrix(1,0,0,1,0,0)"
            opacity="1"
            style="display: block;"
        ><g
                transform="matrix(1,0,0,1,974.5540161132812,544)"
                opacity="1"
                style="display: block;"
            ><g
                    opacity="1"
                    transform="matrix(1,0,0,1,-54.8033447265625,0)"
                ><path
                        fill="rgb(5,5,5)"
                        fill-opacity="1"
                        d=" M743.3599853515625,0 C743.3599853515625,0 743.3599853515625,-67.5999984741211 743.3599853515625,-67.5999984741211 C743.3599853515625,-67.5999984741211 605.0399780273438,-67.5999984741211 605.0399780273438,-67.5999984741211 C605.0399780273438,-67.5999984741211 605.0399780273438,-147.67999267578125 605.0399780273438,-147.67999267578125 C605.0399780273438,-147.67999267578125 743.3599853515625,-147.67999267578125 743.3599853515625,-147.67999267578125 C743.3599853515625,-147.67999267578125 743.3599853515625,-213.72000122070312 743.3599853515625,-213.72000122070312 C743.3599853515625,-213.72000122070312 605.0399780273438,-213.72000122070312 605.0399780273438,-213.72000122070312 C605.0399780273438,-213.72000122070312 605.0399780273438,-296.3999938964844 605.0399780273438,-296.3999938964844 C605.0399780273438,-296.3999938964844 743.3599853515625,-296.3999938964844 743.3599853515625,-296.3999938964844 C743.3599853515625,-296.3999938964844 743.3599853515625,-364 743.3599853515625,-364 C743.3599853515625,-364 520.7999877929688,-364 520.7999877929688,-364 C520.7999877929688,-364 520.7999877929688,0 520.7999877929688,0 C520.7999877929688,0 743.3599853515625,0 743.3599853515625,0z"
                    /></g><g opacity="1" transform="matrix(1,0,0,1,-18,0)"><path
                        fill="rgb(5,5,5)"
                        fill-opacity="1"
                        d=" M464.4800109863281,0 C464.4800109863281,0 464.4800109863281,-74.87999725341797 464.4800109863281,-74.87999725341797 C464.4800109863281,-74.87999725341797 329.2799987792969,-74.87999725341797 329.2799987792969,-74.87999725341797 C329.2799987792969,-74.87999725341797 329.2799987792969,-364 329.2799987792969,-364 C329.2799987792969,-364 245.0399932861328,-364 245.0399932861328,-364 C245.0399932861328,-364 245.0399932861328,0 245.0399932861328,0 C245.0399932861328,0 464.4800109863281,0 464.4800109863281,0z"
                    /></g><g
                    opacity="1"
                    transform="matrix(1,0,0,1,-0.4936943054199219,0)"
                ><path
                        fill="rgb(5,5,5)"
                        fill-opacity="1"
                        d=" M65,-316.67999267578125 C65,-316.67999267578125 135.72000122070312,-97.23999786376953 135.72000122070312,-97.23999786376953 C135.72000122070312,-97.23999786376953 -5.199999809265137,-97.23999786376953 -5.199999809265137,-97.23999786376953 C-5.199999809265137,-97.23999786376953 65,-316.67999267578125 65,-316.67999267578125z M204.8800048828125,0 C204.8800048828125,0 81.12000274658203,-364 81.12000274658203,-364 C81.12000274658203,-364 49.400001525878906,-364 49.400001525878906,-364 C49.400001525878906,-364 -74.36000061035156,0 -74.36000061035156,0 C-74.36000061035156,0 -36.400001525878906,0 -36.400001525878906,0 C-36.400001525878906,0 -15.600000381469727,-65.5199966430664 -15.600000381469727,-65.5199966430664 C-15.600000381469727,-65.5199966430664 145.60000610351562,-65.5199966430664 145.60000610351562,-65.5199966430664 C145.60000610351562,-65.5199966430664 166.9199981689453,0 166.9199981689453,0 C166.9199981689453,0 204.8800048828125,0 204.8800048828125,0z"
                    /></g><g
                    opacity="1"
                    transform="matrix(1,0,0,1,-16.482702255249023,0)"
                ><path
                        fill="rgb(5,5,5)"
                        fill-opacity="1"
                        d=" M-154.9600067138672,-26 C-125.14900207519531,-48.53099822998047 -106.08000183105469,-78.1709976196289 -97.76000213623047,-114.91999816894531 C-97.76000213623047,-114.91999816894531 -136.24000549316406,-114.91999816894531 -136.24000549316406,-114.91999816894531 C-144.218994140625,-86.83999633789062 -159.5590057373047,-64.73999786376953 -182.25999450683594,-48.619998931884766 C-204.968994140625,-32.5 -234.1790008544922,-24.440000534057617 -269.8800048828125,-24.440000534057617 C-316.3389892578125,-24.440000534057617 -353.0799865722656,-39.340999603271484 -380.1199951171875,-69.16000366210938 C-407.1600036621094,-98.97100067138672 -420.67999267578125,-136.58099365234375 -420.67999267578125,-182 C-420.67999267578125,-227.75999450683594 -407.1600036621094,-265.5409851074219 -380.1199951171875,-295.3599853515625 C-353.0799865722656,-325.1709899902344 -316.3389892578125,-340.0799865722656 -269.8800048828125,-340.0799865722656 C-234.1790008544922,-340.0799865722656 -204.968994140625,-331.9309997558594 -182.25999450683594,-315.6400146484375 C-159.5590057373047,-299.34100341796875 -144.218994140625,-277.33099365234375 -136.24000549316406,-249.60000610351562 C-136.24000549316406,-249.60000610351562 -97.76000213623047,-249.60000610351562 -97.76000213623047,-249.60000610351562 C-106.08000183105469,-286.34100341796875 -125.14900207519531,-315.8999938964844 -154.9600067138672,-338.260009765625 C-184.7790069580078,-360.6199951171875 -223.0800018310547,-371.79998779296875 -269.8800048828125,-371.79998779296875 C-327.0799865722656,-371.79998779296875 -372.66900634765625,-353.77099609375 -406.6400146484375,-317.7200012207031 C-440.6189880371094,-281.6610107421875 -457.6000061035156,-236.42100524902344 -457.6000061035156,-182 C-457.6000061035156,-127.57099914550781 -440.6189880371094,-82.33100128173828 -406.6400146484375,-46.279998779296875 C-372.66900634765625,-10.220999717712402 -327.0799865722656,7.800000190734863 -269.8800048828125,7.800000190734863 C-223.0800018310547,7.800000190734863 -184.7790069580078,-3.4609999656677246 -154.9600067138672,-26z"
                    /></g><g
                    opacity="1"
                    transform="matrix(1,0,0,1,-30.515613555908203,0)"
                ><path
                        fill="rgb(5,5,5)"
                        fill-opacity="1"
                        d=" M-538.719970703125,-19.760000228881836 C-528.1489868164062,-28.945999145507812 -520.218994140625,-39.691001892089844 -514.9320068359375,-51.99700164794922 C-509.6449890136719,-64.3030014038086 -507,-78.16999816894531 -507,-93.5999984741211 C-507,-143.52000427246094 -531.6190185546875,-175.41099548339844 -580.8400268554688,-189.27999877929688 C-580.8400268554688,-189.27999877929688 -640.1199951171875,-206.9600067138672 -640.1199951171875,-206.9600067138672 C-663.3489990234375,-213.54100036621094 -680.5089721679688,-222.55999755859375 -691.5999755859375,-234 C-702.698974609375,-245.44000244140625 -708.239990234375,-260 -708.239990234375,-277.67999267578125 C-708.239990234375,-296.7409973144531 -701.219970703125,-312.08099365234375 -687.1799926757812,-323.70001220703125 C-673.1400146484375,-335.3110046386719 -654.5089721679688,-341.1199951171875 -631.280029296875,-341.1199951171875 C-605.6290283203125,-341.1199951171875 -585.6090087890625,-334.27099609375 -571.219970703125,-320.5799865722656 C-556.8389892578125,-306.8810119628906 -549.6400146484375,-287.55999755859375 -549.6400146484375,-262.6000061035156 C-549.6400146484375,-262.6000061035156 -514.280029296875,-262.6000061035156 -514.280029296875,-262.6000061035156 C-514.280029296875,-296.22100830078125 -524.7689819335938,-322.83099365234375 -545.739990234375,-342.4200134277344 C-566.718994140625,-362.0010070800781 -594.8800048828125,-371.79998779296875 -630.239990234375,-371.79998779296875 C-663.8690185546875,-371.79998779296875 -691.1690063476562,-362.9599914550781 -712.1400146484375,-345.2799987792969 C-733.1190185546875,-327.6000061035156 -743.5999755859375,-304.3710021972656 -743.5999755859375,-275.6000061035156 C-743.5999755859375,-226.72000122070312 -717.7789916992188,-195.17100524902344 -666.1199951171875,-180.9600067138672 C-666.1199951171875,-180.9600067138672 -604.760009765625,-162.24000549316406 -604.760009765625,-162.24000549316406 C-562.8189697265625,-150.4510040283203 -541.8400268554688,-127.22100067138672 -541.8400268554688,-92.55999755859375 C-541.8400268554688,-70.72000122070312 -549.1199951171875,-53.73099899291992 -563.6799926757812,-41.599998474121094 C-578.239990234375,-29.461000442504883 -598.52001953125,-23.399999618530273 -624.52001953125,-23.399999618530273 C-653.6400146484375,-23.399999618530273 -676.698974609375,-31.459999084472656 -693.6799926757812,-47.58000183105469 C-710.6690063476562,-63.70000076293945 -719.1599731445312,-85.45099639892578 -719.1599731445312,-112.83999633789062 C-719.1599731445312,-112.83999633789062 -754.52001953125,-112.83999633789062 -754.52001953125,-112.83999633789062 C-754.52001953125,-75.4000015258789 -742.9089965820312,-45.930999755859375 -719.6799926757812,-24.440000534057617 C-696.458984375,-2.940999984741211 -664.739013671875,7.800000190734863 -624.52001953125,7.800000190734863 C-588.468994140625,7.800000190734863 -559.8690185546875,-1.38100004196167 -538.719970703125,-19.760000228881836z"
                    /></g></g></g><g
            clip-path="url(#__lottie_element_36)"
            transform="matrix(1,0,0,1,0,0)"
            opacity="1"
            style="display: block;"
        ><g
                transform="matrix(0.9300000071525574,0,0,0.9300000071525574,969.9047241210938,721.7125244140625)"
                opacity="1"
                style="display: block;"
            ><g
                    opacity="1"
                    transform="matrix(1,0,0,1,14.90721321105957,0)"
                ><path
                        fill="rgb(5,5,5)"
                        fill-opacity="1"
                        d=" M658.2725219726562,0 C658.2725219726562,0 658.2725219726562,-81.52684783935547 658.2725219726562,-81.52684783935547 C658.2725219726562,-81.52684783935547 688.6868286132812,0 688.6868286132812,0 C688.6868286132812,0 704.601806640625,0 704.601806640625,0 C704.601806640625,0 734.5916137695312,-81.03184509277344 734.5916137695312,-81.03184509277344 C734.5916137695312,-81.03184509277344 734.5916137695312,0 734.5916137695312,0 C734.5916137695312,0 754.868896484375,0 754.868896484375,0 C754.868896484375,0 754.868896484375,-115.5 754.868896484375,-115.5 C754.868896484375,-115.5 731.513671875,-115.5 731.513671875,-115.5 C731.513671875,-115.5 696.6443481445312,-27.078834533691406 696.6443481445312,-27.078834533691406 C696.6443481445312,-27.078834533691406 661.8338623046875,-115.5 661.8338623046875,-115.5 C661.8338623046875,-115.5 637.9952392578125,-115.5 637.9952392578125,-115.5 C637.9952392578125,-115.5 637.9952392578125,0 637.9952392578125,0 C637.9952392578125,0 658.2725219726562,0 658.2725219726562,0z"
                    /></g><g
                    opacity="1"
                    transform="matrix(1,0,0,1,19.249797821044922,0)"
                ><path
                        fill="rgb(5,5,5)"
                        fill-opacity="1"
                        d=" M569.2994995117188,-91.3572998046875 C569.2994995117188,-91.3572998046875 586.6449584960938,-33.50840377807617 586.6449584960938,-33.50840377807617 C586.6449584960938,-33.50840377807617 552.012939453125,-33.50840377807617 552.012939453125,-33.50840377807617 C552.012939453125,-33.50840377807617 569.2994995117188,-91.3572998046875 569.2994995117188,-91.3572998046875z M618.9913330078125,0 C618.9913330078125,0 579.7213134765625,-115.5 579.7213134765625,-115.5 C579.7213134765625,-115.5 558.8304443359375,-115.5 558.8304443359375,-115.5 C558.8304443359375,-115.5 519.6665649414062,0 519.6665649414062,0 C519.6665649414062,0 542.1129150390625,0 542.1129150390625,0 C542.1129150390625,0 547.0147094726562,-16.43842124938965 547.0147094726562,-16.43842124938965 C547.0147094726562,-16.43842124938965 591.5842895507812,-16.43842124938965 591.5842895507812,-16.43842124938965 C591.5842895507812,-16.43842124938965 596.5449829101562,0 596.5449829101562,0 C596.5449829101562,0 618.9913330078125,0 618.9913330078125,0z"
                    /></g><g
                    opacity="1"
                    transform="matrix(1,0,0,1,12.434968948364258,0)"
                ><path
                        fill="rgb(5,5,5)"
                        fill-opacity="1"
                        d=" M509.4704284667969,0 C509.4704284667969,0 509.4704284667969,-17.447254180908203 509.4704284667969,-17.447254180908203 C509.4704284667969,-17.447254180908203 462.16632080078125,-17.447254180908203 462.16632080078125,-17.447254180908203 C462.16632080078125,-17.447254180908203 462.16632080078125,-48.80250930786133 462.16632080078125,-48.80250930786133 C462.16632080078125,-48.80250930786133 509.4704284667969,-48.80250930786133 509.4704284667969,-48.80250930786133 C509.4704284667969,-48.80250930786133 509.4704284667969,-65.93135833740234 509.4704284667969,-65.93135833740234 C509.4704284667969,-65.93135833740234 462.16632080078125,-65.93135833740234 462.16632080078125,-65.93135833740234 C462.16632080078125,-65.93135833740234 462.16632080078125,-98.11161041259766 462.16632080078125,-98.11161041259766 C462.16632080078125,-98.11161041259766 509.4704284667969,-98.11161041259766 509.4704284667969,-98.11161041259766 C509.4704284667969,-98.11161041259766 509.4704284667969,-115.5 509.4704284667969,-115.5 C509.4704284667969,-115.5 440.9695129394531,-115.5 440.9695129394531,-115.5 C440.9695129394531,-115.5 440.9695129394531,0 440.9695129394531,0 C440.9695129394531,0 509.4704284667969,0 509.4704284667969,0z"
                    /></g><g
                    opacity="1"
                    transform="matrix(1,0,0,1,7.305309295654297,0)"
                ><path
                        fill="rgb(5,5,5)"
                        fill-opacity="1"
                        d=" M395.91070556640625,0 C395.91070556640625,0 395.91070556640625,-96.44911193847656 395.91070556640625,-96.44911193847656 C395.91070556640625,-96.44911193847656 428.9918518066406,-96.44911193847656 428.9918518066406,-96.44911193847656 C428.9918518066406,-96.44911193847656 428.9918518066406,-115.5 428.9918518066406,-115.5 C428.9918518066406,-115.5 341.9039306640625,-115.5 341.9039306640625,-115.5 C341.9039306640625,-115.5 341.9039306640625,-96.44911193847656 341.9039306640625,-96.44911193847656 C341.9039306640625,-96.44911193847656 374.820068359375,-96.44911193847656 374.820068359375,-96.44911193847656 C374.820068359375,-96.44911193847656 374.820068359375,0 374.820068359375,0 C374.820068359375,0 395.91070556640625,0 395.91070556640625,0z"
                    /></g><g
                    opacity="1"
                    transform="matrix(1,0,0,1,-0.5559138655662537,0)"
                ><path
                        fill="rgb(5,5,5)"
                        fill-opacity="1"
                        d=" M221.28245544433594,0 C221.28245544433594,0 221.28245544433594,-82.75048828125 221.28245544433594,-82.75048828125 C221.28245544433594,-82.75048828125 267.85247802734375,0 267.85247802734375,0 C267.85247802734375,0 289.7681579589844,0 289.7681579589844,0 C289.7681579589844,0 289.7681579589844,-115.5 289.7681579589844,-115.5 C289.7681579589844,-115.5 269.49090576171875,-115.5 269.49090576171875,-115.5 C269.49090576171875,-115.5 269.49090576171875,-32.808372497558594 269.49090576171875,-32.808372497558594 C269.49090576171875,-32.808372497558594 222.92086791992188,-115.5 222.92086791992188,-115.5 C222.92086791992188,-115.5 201.0052032470703,-115.5 201.0052032470703,-115.5 C201.0052032470703,-115.5 201.0052032470703,0 201.0052032470703,0 C201.0052032470703,0 221.28245544433594,0 221.28245544433594,0z"
                    /></g><g
                    opacity="1"
                    transform="matrix(1,0,0,1,-1.926254391670227,0)"
                ><path
                        fill="rgb(5,5,5)"
                        fill-opacity="1"
                        d=" M126.87805938720703,-57.976409912109375 C126.87805938720703,-57.976409912109375 126.87805938720703,-47.841060638427734 126.87805938720703,-47.841060638427734 C126.87805938720703,-47.841060638427734 141.22914123535156,-42.067317962646484 141.22914123535156,-42.067317962646484 C140.3849639892578,-37.14292526245117 150.29269409179688,-33.33216857910156 147.29200744628906,-30.635906219482422 C142.01841735839844,-20.049585342407227 132.16445922851562,-14.7592134475708 117.73014831542969,-14.7592134475708 C105.62376403808594,-14.7592134475708 95.96977233886719,-18.79907989501953 88.77189636230469,-26.878957748413086 C81.57101440429688,-34.95883560180664 78.02557373046875,-45.201332092285156 78.1365737915039,-57.60930252075195 C78.02557373046875,-70.40794372558594 81.47195434570312,-80.88721466064453 88.47685241699219,-89.04711151123047 C95.478759765625,-97.20401763916016 105.41939544677734,-101.28439331054688 118.29805755615234,-101.28439331054688 C126.24263763427734,-101.28439331054688 132.90147399902344,-99.4733657836914 138.27101135253906,-95.85559844970703 C143.64053344726562,-92.23483276367188 147.1080780029297,-87.45893859863281 148.67849731445312,-81.52406311035156 C148.67849731445312,-81.52406311035156 170.5672607421875,-81.52406311035156 170.5672607421875,-81.52406311035156 C169.15516662597656,-92.28927612304688 163.63882446289062,-101.13589477539062 154.0202178955078,-108.06178283691406 C144.40032958984375,-114.98466491699219 132.46047973632812,-118.44825744628906 118.20340728759766,-118.44825744628906 C99.31082153320312,-118.44825744628906 84.42359161376953,-112.60958099365234 73.54198455810547,-100.93395233154297 C62.657379150390625,-89.25660705566406 57.1917724609375,-74.72069549560547 57.14572525024414,-57.325347900390625 C57.08205032348633,-39.91237258911133 62.54637908935547,-25.51431655883789 73.54198455810547,-14.129316329956055 C84.53459167480469,-2.7443158626556396 99.13787078857422,2.9482576847076416 117.35154724121094,2.9482576847076416 C132.95619201660156,2.9482576847076416 145.61671447753906,-1.0130128860473633 155.32997131347656,-8.941407203674316 C165.04322814941406,-16.86680030822754 171.21957397460938,-27.908294677734375 173.8621368408203,-42.067317962646484 C173.8621368408203,-42.067317962646484 185.52597045898438,-42.067317962646484 185.52597045898438,-42.067317962646484 C185.52597045898438,-42.067317962646484 185.52597045898438,-57.976409912109375 185.52597045898438,-57.976409912109375 C185.52597045898438,-57.976409912109375 126.87805938720703,-57.976409912109375 126.87805938720703,-57.976409912109375z"
                    /></g><g
                    opacity="1"
                    transform="matrix(1,0,0,1,-8.666934967041016,0)"
                ><path
                        fill="rgb(5,5,5)"
                        fill-opacity="1"
                        d=" M42.2994384765625,0 C42.2994384765625,0 42.2994384765625,-115.5 42.2994384765625,-115.5 C42.2994384765625,-115.5 22.182193756103516,-115.5 22.182193756103516,-115.5 C22.182193756103516,-115.5 22.182193756103516,0 22.182193756103516,0 C22.182193756103516,0 42.2994384765625,0 42.2994384765625,0z"
                    /></g><g
                    opacity="1"
                    transform="matrix(1,0,0,1,-15.009520530700684,0)"
                ><path
                        fill="rgb(5,5,5)"
                        fill-opacity="1"
                        d=" M-4.7455573081970215,-6.364651679992676 C1.1330572366714478,-11.32986068725586 4.429789066314697,-17.736160278320312 5.145211696624756,-25.58612060546875 C5.8606343269348145,-36.21023178100586 1.7697232961654663,-44.302215576171875 -7.12752103805542,-49.860774993896484 C-7.12752103805542,-56.61423110961914 -21.43777847290039,-65.28247833251953 -28.096580505371094,-67.15886688232422 C-31.378408432006836,-68.4839859008789 -41.73344421386719,-72.18489074707031 -43.120521545410156,-73.47904205322266 C-47.651973724365234,-75.66168975830078 -50.66701126098633,-78.4433822631836 -52.16735076904297,-81.8221206665039 C-53.66897201538086,-85.3884506225586 -53.70832824707031,-88.95121765136719 -52.28855514526367,-92.51158142089844 C-50.86878204345703,-96.25697326660156 -47.97879409790039,-98.91643524169922 -43.618446350097656,-100.4884033203125 C-38.75386428833008,-102.05908966064453 -33.9620475769043,-102.02397918701172 -29.241291046142578,-100.38392639160156 C-24.194814682006836,-98.74214935302734 -20.696273803710938,-95.44939422607422 -18.749540328979492,-90.50650787353516 C-16.804086685180664,-88.65314483642578 -0.4967440664768219,-86.03916931152344 -0.4967440664768219,-82.66243743896484 C-0.4967440664768219,-89.03507232666016 2.077268600463867,-94.13018798828125 -2.338655948638916,-97.9489517211914 C-6.756300926208496,-106.31433868408203 -14.043603897094727,-111.82356262207031 -24.199710845947266,-114.47378540039062 C-34.231468200683594,-117.12271881103516 -43.76750183105469,-116.68085479736328 -52.810516357421875,-113.14777374267578 C-61.61946105957031,-109.61296844482422 -67.44248962402344,-103.7171630859375 -70.27944946289062,-95.45692443847656 C-73.11769104003906,-84.35713195800781 -70.05614471435547,-75.18775177001953 -61.09523010253906,-67.9517822265625 C-61.09523010253906,-61.339027404785156 -45.6760139465332,-52.43286895751953 -38.68721389770508,-50.51043701171875 C-35.658363342285156,-49.310943603515625 -25.259998321533203,-45.56456756591797 -24.091482162475586,-44.3340950012207 C-17.250762939453125,-41.50863265991211 -13.828550338745117,-36.740264892578125 -13.828550338745117,-30.032560348510742 C-13.828550338745117,-24.742612838745117 -15.586703300476074,-20.6457576751709 -19.10186195373535,-17.74327278137207 C-22.618741989135742,-14.837788581848145 -27.554231643676758,-13.388046264648438 -33.91120147705078,-13.388046264648438 C-41.19621658325195,-13.388046264648438 -46.949459075927734,-15.487130165100098 -51.17066192626953,-19.688312530517578 C-55.394866943359375,-23.887773513793945 -57.50489807128906,-29.638614654541016 -57.50489807128906,-36.940818786621094 C-57.50489807128906,-36.940818786621094 -77.62213897705078,-36.940818786621094 -77.62213897705078,-36.940818786621094 C-77.62213897705078,-24.429235458374023 -73.74884033203125,-14.652589797973633 -65.99922943115234,-7.613309383392334 C-58.25262451171875,-0.5710296034812927 -47.58701705932617,2.9482576847076416 -34.00585174560547,2.9482576847076416 C-21.80963897705078,2.9482576847076416 -12.05544376373291,-0.1557663381099701 -4.7455573081970215,-6.364651679992676z"
                    /></g><g
                    opacity="1"
                    transform="matrix(1,0,0,1,-17.666934967041016,0)"
                ><path
                        fill="rgb(5,5,5)"
                        fill-opacity="1"
                        d=" M-90.39464569091797,0 C-90.39464569091797,0 -90.39464569091797,-16.666303634643555 -90.39464569091797,-16.666303634643555 C-90.39464569091797,-16.666303634643555 -138.36485290527344,-16.666303634643555 -138.36485290527344,-16.666303634643555 C-138.36485290527344,-16.666303634643555 -138.36485290527344,-49.18149948120117 -138.36485290527344,-49.18149948120117 C-138.36485290527344,-49.18149948120117 -90.39464569091797,-49.18149948120117 -90.39464569091797,-49.18149948120117 C-90.39464569091797,-49.18149948120117 -90.39464569091797,-65.56385040283203 -90.39464569091797,-65.56385040283203 C-90.39464569091797,-65.56385040283203 -138.36485290527344,-65.56385040283203 -138.36485290527344,-65.56385040283203 C-138.36485290527344,-65.56385040283203 -138.36485290527344,-98.90404510498047 -138.36485290527344,-98.90404510498047 C-138.36485290527344,-98.90404510498047 -90.39464569091797,-98.90404510498047 -90.39464569091797,-98.90404510498047 C-90.39464569091797,-98.90404510498047 -90.39464569091797,-115.5 -90.39464569091797,-115.5 C-90.39464569091797,-115.5 -158.4821014404297,-115.5 -158.4821014404297,-115.5 C-158.4821014404297,-115.5 -158.4821014404297,0 -158.4821014404297,0 C-158.4821014404297,0 -90.39464569091797,0 -90.39464569091797,0z"
                    /></g><g
                    opacity="1"
                    transform="matrix(1,0,0,1,-20.72244644165039,0)"
                ><path
                        fill="rgb(5,5,5)"
                        fill-opacity="1"
                        d=" M-253.6065673828125,-98.33613586425781 C-253.6065673828125,-98.33613586425781 -239.8511962890625,-98.33613586425781 -239.8511962890625,-98.33613586425781 C-233.37913513183594,-98.33613586425781 -224.19699096679688,-96.33099365234375 -220.53887939453125,-92.32112884521484 C-210.69741821289062,-88.31126403808594 -204.0881805419922,-81.56588745117188 -200.71170043945312,-72.08999633789062 C-197.33694458007812,-64.62818145751953 -196.39894104003906,-56.576576232910156 -197.89927673339844,-47.93617630004883 C-199.40089416503906,-39.29405212402344 -203.4461669921875,-32.01728057861328 -210.03265380859375,-26.104856491088867 C-216.6221466064453,-20.190711975097656 -225.189208984375,-17.23421287536621 -235.73414611816406,-17.23421287536621 C-235.73414611816406,-17.23421287536621 -253.6065673828125,-17.23421287536621 -253.6065673828125,-17.23421287536621 C-253.6065673828125,-17.23421287536621 -253.6065673828125,-98.33613586425781 -253.6065673828125,-98.33613586425781z M-236.61000061035156,0 C-227.3699951171875,0 -218.9290008544922,-1.621999979019165 -211.28199768066406,-4.868000030517578 C-203.63800048828125,-8.111000061035156 -197.4219970703125,-12.428999900817871 -192.63699340820312,-17.81999969482422 C-187.8520050048828,-23.20800018310547 -184.13999938964844,-29.340999603271484 -181.5,-36.21699905395508 C-178.86000061035156,-43.09000015258789 -177.5399932861328,-50.268001556396484 -177.5399932861328,-57.75 C-177.5399932861328,-67.86900329589844 -179.74200439453125,-77.24600219726562 -184.13999938964844,-85.88300323486328 C-188.54100036621094,-94.51699829101562 -195.33399963378906,-101.61199951171875 -204.51699829101562,-107.16799926757812 C-213.7030029296875,-112.72100067138672 -224.39999389648438,-115.5 -236.61000061035156,-115.5 C-236.61000061035156,-115.5 -271.260009765625,-115.5 -271.260009765625,-115.5 C-271.260009765625,-115.5 -271.260009765625,0 -271.260009765625,0 C-271.260009765625,0 -236.61000061035156,0 -236.61000061035156,0z"
                    /></g><g opacity="1" transform="matrix(1,0,0,1,-20,0)"><path
                        fill="rgb(5,5,5)"
                        fill-opacity="1"
                        d=" M-375.0450134277344,-105.43499755859375 C-367.125,-105.43499755859375 -360.5820007324219,-102.68399810791016 -355.4100036621094,-97.18499755859375 C-350.2409973144531,-91.68299865722656 -347.6549987792969,-84.6989974975586 -347.6549987792969,-76.2300033569336 C-347.6549987792969,-67.75800323486328 -350.2409973144531,-60.77399826049805 -355.4100036621094,-55.275001525878906 C-360.5820007324219,-49.77299880981445 -367.125,-47.025001525878906 -375.0450134277344,-47.025001525878906 C-375.0450134277344,-47.025001525878906 -403.5899963378906,-47.025001525878906 -403.5899963378906,-47.025001525878906 C-403.5899963378906,-47.025001525878906 -403.5899963378906,-105.43499755859375 -403.5899963378906,-105.43499755859375 C-403.5899963378906,-105.43499755859375 -375.0450134277344,-105.43499755859375 -375.0450134277344,-105.43499755859375z M-347.24200439453125,-104.44499969482422 C-354.447998046875,-111.81300354003906 -363.552001953125,-115.5 -374.54998779296875,-115.5 C-374.54998779296875,-115.5 -414.80999755859375,-115.5 -414.80999755859375,-115.5 C-414.80999755859375,-115.5 -414.80999755859375,0 -414.80999755859375,0 C-414.80999755859375,0 -403.5899963378906,0 -403.5899963378906,0 C-403.5899963378906,0 -403.5899963378906,-36.79499816894531 -403.5899963378906,-36.79499816894531 C-403.5899963378906,-36.79499816894531 -374.54998779296875,-36.79499816894531 -374.54998779296875,-36.79499816894531 C-374.54998779296875,-36.79499816894531 -373.8900146484375,-36.79499816894531 -373.8900146484375,-36.79499816894531 C-373.8900146484375,-36.79499816894531 -350.7900085449219,0 -350.7900085449219,0 C-350.7900085449219,0 -337.9200134277344,0 -337.9200134277344,0 C-337.9200134277344,0 -362.3399963378906,-38.61000061035156 -362.3399963378906,-38.61000061035156 C-354.531005859375,-41.138999938964844 -348.260986328125,-45.75899887084961 -343.5299987792969,-52.470001220703125 C-338.802001953125,-59.178001403808594 -336.43499755859375,-67.0979995727539 -336.43499755859375,-76.2300033569336 C-336.43499755859375,-87.66899871826172 -340.03900146484375,-97.0739974975586 -347.24200439453125,-104.44499969482422z"
                    /></g><g opacity="1" transform="matrix(1,0,0,1,-25,0)"><path
                        fill="rgb(5,5,5)"
                        fill-opacity="1"
                        d=" M-452.2650146484375,-8.003000259399414 C-444.8970031738281,-14.987000465393066 -441.2099914550781,-24.857999801635742 -441.2099914550781,-37.619998931884766 C-441.2099914550781,-37.619998931884766 -441.2099914550781,-115.5 -441.2099914550781,-115.5 C-441.2099914550781,-115.5 -452.2650146484375,-115.5 -452.2650146484375,-115.5 C-452.2650146484375,-115.5 -452.2650146484375,-38.279998779296875 -452.2650146484375,-38.279998779296875 C-452.2650146484375,-28.488000869750977 -454.9620056152344,-20.954999923706055 -460.3500061035156,-15.675000190734863 C-465.7409973144531,-10.395000457763672 -473.11199951171875,-7.755000114440918 -482.4599914550781,-7.755000114440918 C-491.8110046386719,-7.755000114440918 -499.15301513671875,-10.395000457763672 -504.48699951171875,-15.675000190734863 C-509.8240051269531,-20.954999923706055 -512.489990234375,-28.488000869750977 -512.489990234375,-38.279998779296875 C-512.489990234375,-38.279998779296875 -512.489990234375,-115.5 -512.489990234375,-115.5 C-512.489990234375,-115.5 -523.7100219726562,-115.5 -523.7100219726562,-115.5 C-523.7100219726562,-115.5 -523.7100219726562,-37.619998931884766 -523.7100219726562,-37.619998931884766 C-523.7100219726562,-24.857999801635742 -519.9970092773438,-14.987000465393066 -512.572021484375,-8.003000259399414 C-505.1470031738281,-1.0160000324249268 -495.1109924316406,2.4749999046325684 -482.4599914550781,2.4749999046325684 C-469.70098876953125,2.4749999046325684 -459.635986328125,-1.0160000324249268 -452.2650146484375,-8.003000259399414z"
                    /></g><g opacity="1" transform="matrix(1,0,0,1,-29,0)"><path
                        fill="rgb(5,5,5)"
                        fill-opacity="1"
                        d=" M-649.77001953125,-57.75 C-649.8809814453125,-71.71800231933594 -645.5910034179688,-83.572998046875 -636.9000244140625,-93.30799865722656 C-628.2119750976562,-103.04299926757812 -616.60498046875,-107.91000366210938 -602.0850219726562,-107.91000366210938 C-587.5650024414062,-107.91000366210938 -575.9609985351562,-103.04299926757812 -567.27001953125,-93.30799865722656 C-558.5819702148438,-83.572998046875 -554.2349853515625,-71.71800231933594 -554.2349853515625,-57.75 C-554.2349853515625,-43.88999938964844 -558.5819702148438,-32.09199905395508 -567.27001953125,-22.35700035095215 C-575.9609985351562,-12.621999740600586 -587.5650024414062,-7.755000114440918 -602.0850219726562,-7.755000114440918 C-616.60498046875,-7.755000114440918 -628.2119750976562,-12.621999740600586 -636.9000244140625,-22.35700035095215 C-645.5910034179688,-32.09199905395508 -649.8809814453125,-43.88999938964844 -649.77001953125,-57.75z M-542.6849975585938,-57.75 C-542.6849975585938,-74.46900177001953 -548.10400390625,-88.68800354003906 -558.93701171875,-100.40299987792969 C-569.7730102539062,-112.11799621582031 -584.156982421875,-117.9749984741211 -602.0850219726562,-117.9749984741211 C-620.0159912109375,-117.9749984741211 -634.3989868164062,-112.11799621582031 -645.2319946289062,-100.40299987792969 C-656.0679931640625,-88.68800354003906 -661.4849853515625,-74.46900177001953 -661.4849853515625,-57.75 C-661.4849853515625,-41.02799987792969 -656.0679931640625,-26.812999725341797 -645.2319946289062,-15.097999572753906 C-634.3989868164062,-3.382999897003174 -620.0159912109375,2.4749999046325684 -602.0850219726562,2.4749999046325684 C-584.156982421875,2.4749999046325684 -569.7730102539062,-3.382999897003174 -558.93701171875,-15.097999572753906 C-548.10400390625,-26.812999725341797 -542.6849975585938,-41.02799987792969 -542.6849975585938,-57.75z"
                    /></g><g opacity="1" transform="matrix(1,0,0,1,0,0)"><path
                        fill="rgb(5,5,5)"
                        fill-opacity="1"
                        d=" M-738.5599975585938,-57.255001068115234 C-738.5599975585938,-57.255001068115234 -775.35498046875,-115.5 -775.35498046875,-115.5 C-775.35498046875,-115.5 -788.3900146484375,-115.5 -788.3900146484375,-115.5 C-788.3900146484375,-115.5 -744.3350219726562,-45.869998931884766 -744.3350219726562,-45.869998931884766 C-744.3350219726562,-45.869998931884766 -767.5999755859375,0 -767.5999755859375,0 C-767.5999755859375,0 -755.3900146484375,0 -755.3900146484375,0 C-755.3900146484375,0 -696.4849853515625,-115.5 -696.4849853515625,-115.5 C-696.4849853515625,-115.5 -708.6950073242188,-115.5 -708.6950073242188,-115.5 C-708.6950073242188,-115.5 -738.5599975585938,-57.255001068115234 -738.5599975585938,-57.255001068115234z"
                    /></g></g></g><g
            clip-path="url(#__lottie_element_40)"
            transform="matrix(1,0,0,1,0,0)"
            opacity="1"
            style="display: block;"
        ><g
                transform="matrix(0.8700000047683716,0,0,0.8700000047683716,947.3587036132812,962.1699829101562)"
                opacity="1"
                style="display: block;"
            ><g opacity="1" transform="matrix(1,0,0,1,31,0)"><path
                        fill="rgb(5,5,5)"
                        fill-opacity="1"
                        d=" M738.4559936523438,0 C738.4559936523438,0 738.4559936523438,-153.45599365234375 738.4559936523438,-153.45599365234375 C738.4559936523438,-153.45599365234375 791.7239990234375,-153.45599365234375 791.7239990234375,-153.45599365234375 C791.7239990234375,-153.45599365234375 791.7239990234375,-193.1999969482422 791.7239990234375,-193.1999969482422 C791.7239990234375,-193.1999969482422 641.0280151367188,-193.1999969482422 641.0280151367188,-193.1999969482422 C641.0280151367188,-193.1999969482422 641.0280151367188,-153.45599365234375 641.0280151367188,-153.45599365234375 C641.0280151367188,-153.45599365234375 694.02001953125,-153.45599365234375 694.02001953125,-153.45599365234375 C694.02001953125,-153.45599365234375 694.02001953125,0 694.02001953125,0 C694.02001953125,0 738.4559936523438,0 738.4559936523438,0z"
                    /></g><g
                    opacity="1"
                    transform="matrix(1,0,0,1,10.668701171875,0)"
                ><path
                        fill="rgb(5,5,5)"
                        fill-opacity="1"
                        d=" M518.6160278320312,0 C518.6160278320312,0 518.6160278320312,-76.72799682617188 518.6160278320312,-76.72799682617188 C518.6160278320312,-76.72799682617188 585.4080200195312,-76.72799682617188 585.4080200195312,-76.72799682617188 C585.4080200195312,-76.72799682617188 585.4080200195312,0 585.4080200195312,0 C585.4080200195312,0 630.1199951171875,0 630.1199951171875,0 C630.1199951171875,0 630.1199951171875,-193.1999969482422 630.1199951171875,-193.1999969482422 C630.1199951171875,-193.1999969482422 585.4080200195312,-193.1999969482422 585.4080200195312,-193.1999969482422 C585.4080200195312,-193.1999969482422 585.4080200195312,-115.09200286865234 585.4080200195312,-115.09200286865234 C585.4080200195312,-115.09200286865234 518.6160278320312,-115.09200286865234 518.6160278320312,-115.09200286865234 C518.6160278320312,-115.09200286865234 518.6160278320312,-193.1999969482422 518.6160278320312,-193.1999969482422 C518.6160278320312,-193.1999969482422 473.90399169921875,-193.1999969482422 473.90399169921875,-193.1999969482422 C473.90399169921875,-193.1999969482422 473.90399169921875,0 473.90399169921875,0 C473.90399169921875,0 518.6160278320312,0 518.6160278320312,0z"
                    /></g><g
                    opacity="1"
                    transform="matrix(1,0,0,1,5.335845947265625,0)"
                ><path
                        fill="rgb(5,5,5)"
                        fill-opacity="1"
                        d=" M351.4280090332031,-101.56800079345703 C351.4280090332031,-101.56800079345703 351.4280090332031,-84.73200225830078 351.4280090332031,-84.73200225830078 C351.4280090332031,-84.73200225830078 351.4280090332031,-67.89600372314453 351.4280090332031,-67.89600372314453 C351.4280090332031,-67.89600372314453 385.9280090332031,-67.89600372314453 385.9280090332031,-67.89600372314453 C379.3039855957031,-44.893001556396484 362.4679870605469,-33.395999908447266 335.4200134277344,-33.395999908447266 C318.3080139160156,-33.395999908447266 304.5509948730469,-39.33000183105469 294.1579895019531,-51.198001861572266 C283.760986328125,-63.066001892089844 278.6549987792969,-78.1989974975586 278.8399963378906,-96.5999984741211 C278.6549987792969,-115.73500061035156 283.57501220703125,-131.281005859375 293.6059875488281,-143.24400329589844 C303.63299560546875,-155.2030029296875 318.12298583984375,-161.1840057373047 337.07598876953125,-161.1840057373047 C348.4830017089844,-161.1840057373047 357.91400146484375,-158.60499572753906 365.3659973144531,-153.45599365234375 C372.8179931640625,-148.30299377441406 377.4630126953125,-141.58799743652344 379.3039855957031,-133.30799865722656 C379.3039855957031,-133.30799865722656 428.156005859375,-133.30799865722656 428.156005859375,-133.30799865722656 C426.5,-152.2570037841797 417.2539978027344,-167.8990020751953 400.4179992675781,-180.22799682617188 C383.5820007324219,-192.55299377441406 362.37298583984375,-198.72000122070312 336.79998779296875,-198.72000122070312 C304.4129943847656,-198.72000122070312 278.88299560546875,-188.875 260.2099914550781,-169.18800354003906 C241.5330047607422,-149.4969940185547 232.1959991455078,-125.02799987792969 232.1959991455078,-95.77200317382812 C232.01100158691406,-66.33100128173828 241.3470001220703,-42.09000015258789 260.2099914550781,-23.04599952697754 C279.0690002441406,-4.001999855041504 303.77099609375,5.519999980926514 334.3160095214844,5.519999980926514 C360.81201171875,5.519999980926514 382.4779968261719,-0.8709999918937683 399.3139953613281,-13.661999702453613 C416.1499938964844,-26.448999404907227 427.052001953125,-44.527000427246094 432.0199890136719,-67.89600372314453 C432.0199890136719,-67.89600372314453 450.2359924316406,-67.89600372314453 450.2359924316406,-67.89600372314453 C450.2359924316406,-67.89600372314453 450.2359924316406,-101.56800079345703 450.2359924316406,-101.56800079345703 C450.2359924316406,-101.56800079345703 351.4280090332031,-101.56800079345703 351.4280090332031,-101.56800079345703z"
                    /></g><g
                    opacity="1"
                    transform="matrix(1,0,0,1,-10.885818481445312,0)"
                ><path
                        fill="rgb(5,5,5)"
                        fill-opacity="1"
                        d=" M217.21600341796875,0 C217.21600341796875,0 217.21600341796875,-193.1999969482422 217.21600341796875,-193.1999969482422 C217.21600341796875,-193.1999969482422 172.50399780273438,-193.1999969482422 172.50399780273438,-193.1999969482422 C172.50399780273438,-193.1999969482422 172.50399780273438,0 172.50399780273438,0 C172.50399780273438,0 217.21600341796875,0 217.21600341796875,0z"
                    /></g><g
                    opacity="1"
                    transform="matrix(1,0,0,1,-29.551467895507812,0)"
                ><path
                        fill="rgb(5,5,5)"
                        fill-opacity="1"
                        d=" M31.323999404907227,0 C31.323999404907227,0 31.323999404907227,-125.02799987792969 31.323999404907227,-125.02799987792969 C31.323999404907227,-125.02799987792969 98.39199829101562,0 98.39199829101562,0 C98.39199829101562,0 144.20799255371094,0 144.20799255371094,0 C144.20799255371094,0 144.20799255371094,-193.1999969482422 144.20799255371094,-193.1999969482422 C144.20799255371094,-193.1999969482422 101.4280014038086,-193.1999969482422 101.4280014038086,-193.1999969482422 C101.4280014038086,-193.1999969482422 101.4280014038086,-68.1719970703125 101.4280014038086,-68.1719970703125 C101.4280014038086,-68.1719970703125 34.36000061035156,-193.1999969482422 34.36000061035156,-193.1999969482422 C34.36000061035156,-193.1999969482422 -11.456000328063965,-193.1999969482422 -11.456000328063965,-193.1999969482422 C-11.456000328063965,-193.1999969482422 -11.456000328063965,0 -11.456000328063965,0 C-11.456000328063965,0 31.323999404907227,0 31.323999404907227,0z"
                    /></g><g
                    opacity="1"
                    transform="matrix(1,0,0,1,-22.040481567382812,0)"
                ><path
                        fill="rgb(5,5,5)"
                        fill-opacity="1"
                        d=" M-173.8603973388672,-174.90850830078125 C-160.92694091796875,-174.90850830078125 -150.2445831298828,-170.4167022705078 -141.80563354492188,-161.43650817871094 C-133.37039184570312,-152.4523162841797 -129.15138244628906,-141.0435028076172 -129.15138244628906,-127.20450592041016 C-129.15138244628906,-113.36150360107422 -133.37039184570312,-101.95268249511719 -141.80563354492188,-92.97249603271484 C-150.2445831298828,-83.98831176757812 -160.92694091796875,-79.50049591064453 -173.8603973388672,-79.50049591064453 C-173.8603973388672,-79.50049591064453 -220.33740234375,-79.50049591064453 -220.33740234375,-79.50049591064453 C-220.33740234375,-79.50049591064453 -220.33740234375,-174.90850830078125 -220.33740234375,-174.90850830078125 C-220.33740234375,-174.90850830078125 -173.8603973388672,-174.90850830078125 -173.8603973388672,-174.90850830078125z M-126.60614776611328,-174.61575317382812 C-138.2492218017578,-186.51382446289062 -152.89625549316406,-192.58917236328125 -170.54180908203125,-192.8334503173828 C-171.1568145751953,-193.07774353027344 -234.17877197265625,-193.1999969482422 -234.92344665527344,-193.1999969482422 C-234.92344665527344,-193.1999969482422 -241.0323944091797,-14.349868774414062 -241.0323944091797,-14.349868774414062 C-241.0323944091797,-14.349868774414062 -223.6583709716797,0 -223.6583709716797,0 C-223.6583709716797,0 -220.33740234375,-56.97654342651367 -220.33740234375,-56.97654342651367 C-220.33740234375,-56.97654342651367 -175.36936950683594,-60.95350646972656 -175.36936950683594,-60.95350646972656 C-175.36936950683594,-60.95350646972656 -172.60488891601562,-60.95350646972656 -172.60488891601562,-60.95350646972656 C-172.60488891601562,-60.95350646972656 -134.5798797607422,0 -134.5798797607422,0 C-134.5798797607422,0 -110.87889862060547,0 -110.87889862060547,0 C-110.87889862060547,0 -151.2144012451172,-64.33800506591797 -151.2144012451172,-64.33800506591797 C-138.28822326660156,-68.66474151611328 -127.9232177734375,-76.43025207519531 -120.11940002441406,-87.63475036621094 C-112.31958770751953,-98.83525085449219 -108.4154052734375,-112.02531433105469 -108.4154052734375,-127.20450592041016 C-108.4154052734375,-146.4215087890625 -114.4818344116211,-162.22525024414062 -126.60614776611328,-174.61575317382812z"
                    /></g><g
                    opacity="1"
                    transform="matrix(1,0,0,1,-25.5675048828125,0)"
                ><path
                        fill="rgb(5,5,5)"
                        fill-opacity="1"
                        d=" M-285.7218017578125,0 C-285.7218017578125,0 -285.7218017578125,-18.5059871673584 -285.7218017578125,-18.5059871673584 C-285.7218017578125,-18.5059871673584 -373.9568176269531,-18.5059871673584 -373.9568176269531,-18.5059871673584 C-373.9568176269531,-18.5059871673584 -373.9568176269531,-86.81550598144531 -373.9568176269531,-86.81550598144531 C-373.9568176269531,-86.81550598144531 -285.7218017578125,-86.81550598144531 -285.7218017578125,-86.81550598144531 C-285.7218017578125,-86.81550598144531 -285.7218017578125,-105.25999450683594 -285.7218017578125,-105.25999450683594 C-285.7218017578125,-105.25999450683594 -373.9568176269531,-105.25999450683594 -373.9568176269531,-105.25999450683594 C-373.9568176269531,-105.25999450683594 -373.9568176269531,-174.9495086669922 -373.9568176269531,-174.9495086669922 C-373.9568176269531,-174.9495086669922 -285.7218017578125,-174.9495086669922 -285.7218017578125,-174.9495086669922 C-285.7218017578125,-174.9495086669922 -285.7218017578125,-193.1999969482422 -285.7218017578125,-193.1999969482422 C-285.7218017578125,-193.1999969482422 -394.65179443359375,-193.1999969482422 -394.65179443359375,-193.1999969482422 C-394.65179443359375,-193.1999969482422 -394.65179443359375,0 -394.65179443359375,0 C-394.65179443359375,0 -285.7218017578125,0 -285.7218017578125,0z"
                    /></g><g
                    opacity="1"
                    transform="matrix(1,0,0,1,-39.439178466796875,0)"
                ><path
                        fill="rgb(5,5,5)"
                        fill-opacity="1"
                        d=" M-486.6883850097656,0 C-486.6883850097656,0 -419.7843933105469,-193.1999969482422 -419.7843933105469,-193.1999969482422 C-419.7843933105469,-193.1999969482422 -442.00286865234375,-193.1999969482422 -442.00286865234375,-193.1999969482422 C-442.00286865234375,-193.1999969482422 -496.8418884277344,-30.794981002807617 -496.8418884277344,-30.794981002807617 C-496.8418884277344,-30.794981002807617 -551.4254150390625,-193.1999969482422 -551.4254150390625,-193.1999969482422 C-551.4254150390625,-193.1999969482422 -573.6438598632812,-193.1999969482422 -573.6438598632812,-193.1999969482422 C-573.6438598632812,-193.1999969482422 -506.7398681640625,0 -506.7398681640625,0 C-506.7398681640625,0 -486.6883850097656,0 -486.6883850097656,0z"
                    /></g><g
                    opacity="1"
                    transform="matrix(1,0,0,1,-47.09454345703125,0)"
                ><path
                        fill="rgb(5,5,5)"
                        fill-opacity="1"
                        d=" M-754.7160034179688,-93.30977630615234 C-755.63232421875,-115.82084655761719 -749.354736328125,-135.27378845214844 -735.8837280273438,-151.66029357910156 C-722.4439086914062,-168.04678344726562 -704.1055297851562,-176.6807861328125 -680.87646484375,-177.56227111816406 C-657.647705078125,-178.4437713623047 -638.6431884765625,-171.34725952148438 -623.8601684570312,-156.2727508544922 C-609.0946655273438,-141.1982421875 -601.3355102539062,-122.40128326416016 -600.5904541015625,-99.89022064208984 C-599.845703125,-77.54671478271484 -606.2041625976562,-58.18170928955078 -619.65771484375,-41.79520797729492 C-633.114990234375,-25.408710479736328 -651.4567260742188,-16.774715423583984 -674.6854858398438,-15.893223762512207 C-697.91455078125,-15.011731147766113 -716.9157104492188,-22.108240127563477 -731.6812744140625,-37.1827507019043 C-746.4642944335938,-52.25726318359375 -754.1425170898438,-70.96627044677734 -754.7160034179688,-93.30977630615234z M-578.1237182617188,-96.5999984741211 C-578.1237182617188,-124.60800170898438 -587.21240234375,-148.4182586669922 -605.3814697265625,-168.0279998779297 C-623.5542602539062,-187.63743591308594 -647.6859130859375,-197.4425048828125 -677.770751953125,-197.4425048828125 C-707.8595581054688,-197.4425048828125 -731.9909057617188,-187.63743591308594 -750.1599731445312,-168.0279998779297 C-768.332763671875,-148.4182586669922 -777.417724609375,-124.60800170898438 -777.417724609375,-96.5999984741211 C-777.417724609375,-68.58799743652344 -768.332763671875,-44.78144454956055 -750.1599731445312,-25.172000885009766 C-731.9909057617188,-5.562260150909424 -707.8595581054688,4.242498874664307 -677.770751953125,4.242498874664307 C-647.6859130859375,4.242498874664307 -623.5542602539062,-5.562260150909424 -605.3814697265625,-25.172000885009766 C-587.21240234375,-44.78144454956055 -578.1237182617188,-68.58799743652344 -578.1237182617188,-96.5999984741211z"
                    /></g></g></g></g></svg>
