<svg width="36" height="36" viewBox="0 0 36 36" fill="none" xmlns="http://www.w3.org/2000/svg">
<rect x="0.0233154" width="35.062" height="35.062" rx="8" fill="#1B1B1E"/>
<path d="M22.1594 9.35938H14.1194C11.5027 9.35938 9.3739 11.4881 9.3739 14.1048V22.145C9.3739 24.7616 11.5027 26.8903 14.1194 26.8903H22.1595C24.7761 26.8903 26.9049 24.7616 26.9049 22.145V14.1048C26.9049 11.4881 24.7761 9.35938 22.1594 9.35938Z" fill="white"/>
<path d="M18.1381 13.3281C15.4949 13.3281 13.3446 15.4784 13.3446 18.1216C13.3446 20.7648 15.4949 22.9151 18.1381 22.9151C20.7813 22.9151 22.9316 20.7648 22.9316 18.1216C22.9316 15.4784 20.7813 13.3281 18.1381 13.3281ZM18.1381 21.8874C16.0617 21.8874 14.3723 20.1981 14.3723 18.1216C14.3723 16.0453 16.0617 14.3559 18.1381 14.3559C20.2146 14.3559 21.9038 16.0453 21.9038 18.1216C21.9038 20.1981 20.2146 21.8874 18.1381 21.8874Z" fill="#1B1B1E"/>
<path d="M23.0472 11.625C22.2661 11.625 21.6307 12.2604 21.6307 13.0414C21.6307 13.8225 22.2661 14.458 23.0472 14.458C23.8283 14.458 24.4637 13.8225 24.4637 13.0414C24.4637 12.2603 23.8283 11.625 23.0472 11.625ZM23.0472 13.4301C22.8329 13.4301 22.6585 13.2557 22.6585 13.0414C22.6585 12.827 22.8329 12.6527 23.0472 12.6527C23.2616 12.6527 23.436 12.827 23.436 13.0414C23.436 13.2557 23.2616 13.4301 23.0472 13.4301Z" fill="#1B1B1E"/>
</svg>
