<svg width="36" height="36" viewBox="0 0 36 36" fill="none" xmlns="http://www.w3.org/2000/svg">
<rect x="0.0439453" y="0.0078125" width="35.062" height="35.062" rx="8" fill="#1B1B1E"/>
<path d="M24.5868 24.5336V19.3976C24.5868 16.8735 24.0434 14.9453 21.0986 14.9453C19.6788 14.9453 18.7322 15.7166 18.3466 16.4528H18.3115V15.1732H15.5244V24.5336H18.4342V19.8885C18.4342 18.6614 18.6621 17.487 20.1696 17.487C21.6595 17.487 21.677 18.8718 21.677 19.9586V24.5161H24.5868V24.5336Z" fill="white"/>
<path d="M10.792 15.1875H13.7018V24.5479H10.792V15.1875Z" fill="white"/>
<path d="M12.2462 10.5156C11.3172 10.5156 10.5635 11.2694 10.5635 12.1984C10.5635 13.1274 11.3172 13.8987 12.2462 13.8987C13.1753 13.8987 13.929 13.1274 13.929 12.1984C13.929 11.2694 13.1753 10.5156 12.2462 10.5156Z" fill="white"/>
</svg>
