<svg width="125" height="44" viewBox="0 0 125 44" fill="none" xmlns="http://www.w3.org/2000/svg">
<path d="M54.7612 9.11389L50.2388 12.1047L50.0781 9.27378L54.5988 6.28125L54.7612 9.11389Z" fill="#809A1D"/>
<mask id="mask0_5800_2463" style="mask-type:luminance" maskUnits="userSpaceOnUse" x="44" y="1" width="11" height="9">
<path d="M54.6022 6.28603L50.0798 9.27856C49.9208 6.49136 47.5734 4.22593 44.8438 4.22593L49.3661 1.2334C52.0941 1.2334 54.4415 3.49883 54.6022 6.28603Z" fill="white"/>
</mask>
<g mask="url(#mask0_5800_2463)">
<path d="M54.6022 6.28896L50.0798 9.28149C49.9208 6.49429 47.5734 4.22886 44.8438 4.22886L49.3661 1.23633C52.0941 1.23633 54.4415 3.50176 54.6022 6.28896Z" fill="#809A1D"/>
</g>
<path d="M49.3641 1.23145L44.8418 4.22229H43.6055L48.1261 1.23145H49.3641Z" fill="#809A1D"/>
<mask id="mask1_5800_2463" style="mask-type:luminance" maskUnits="userSpaceOnUse" x="41" y="1" width="8" height="4">
<path d="M41.0469 4.98837L45.5692 1.99584C46.2999 1.51279 47.1793 1.2334 48.1382 1.2334L43.6159 4.22593C42.6569 4.22593 41.7775 4.50532 41.0469 4.98837Z" fill="white"/>
</mask>
<g mask="url(#mask1_5800_2463)">
<path d="M48.1304 1.23633L43.608 4.22886C42.6491 4.22886 41.7697 4.50825 41.0391 4.9913L45.5614 1.99877C46.292 1.51572 47.1715 1.23633 48.1304 1.23633Z" fill="#809A1D"/>
</g>
<mask id="mask2_5800_2463" style="mask-type:luminance" maskUnits="userSpaceOnUse" x="40" y="1" width="6" height="5">
<path d="M40.1914 5.69754C40.4417 5.42488 40.7258 5.18419 41.0353 4.97886L45.5577 1.98633C45.2482 2.19166 44.9658 2.43235 44.7138 2.70501C43.2069 3.70308 41.7 4.69947 40.1914 5.69754Z" fill="white"/>
</mask>
<g mask="url(#mask2_5800_2463)">
<path d="M43.4684 6.27652L38.946 9.26905C38.8429 7.46141 39.6851 5.87258 41.0364 4.97886L45.5588 1.98633C44.2091 2.88005 43.3652 4.46888 43.4684 6.27652Z" fill="#858585"/>
</g>
<mask id="mask3_5800_2463" style="mask-type:luminance" maskUnits="userSpaceOnUse" x="48" y="9" width="7" height="12">
<path d="M53.4599 17.3409L48.9375 20.3335C49.9522 17.7735 50.4021 14.9307 50.2414 12.1048L54.7638 9.1123C54.9245 11.9382 54.4746 14.7809 53.4599 17.3409Z" fill="white"/>
</mask>
<g mask="url(#mask3_5800_2463)">
<path d="M53.4599 17.3409L48.9375 20.3335C49.9522 17.7735 50.4021 14.9307 50.2414 12.1048L54.7638 9.1123C54.9245 11.9382 54.4746 14.7809 53.4599 17.3409Z" fill="#809A1D"/>
</g>
<mask id="mask4_5800_2463" style="mask-type:luminance" maskUnits="userSpaceOnUse" x="38" y="2" width="7" height="8">
<path d="M38.946 9.26912C38.8665 7.87552 39.3485 6.61152 40.1925 5.69761C41.6993 4.69954 43.2062 3.70315 44.7148 2.70508C43.8709 3.62068 43.3889 4.88299 43.4684 6.27659C42.112 7.17368 40.3024 8.37035 38.946 9.26912Z" fill="white"/>
</mask>
<g mask="url(#mask4_5800_2463)">
<path d="M43.4684 6.27359L38.946 9.26612C38.8429 7.45848 39.6851 5.86965 41.0364 4.97593L45.5588 1.9834C44.2091 2.87712 43.3652 4.46595 43.4684 6.27359Z" fill="#858585"/>
</g>
<mask id="mask5_5800_2463" style="mask-type:luminance" maskUnits="userSpaceOnUse" x="37" y="0" width="8" height="10">
<path d="M40.3427 3.94663L44.8651 0.954102C43.1857 2.06494 42.1388 4.04088 42.2674 6.28949L37.745 9.28202C37.6165 7.0351 38.6633 5.05747 40.3427 3.94663Z" fill="white"/>
</mask>
<g mask="url(#mask5_5800_2463)">
<path d="M42.2674 6.29047L37.745 9.283C37.6165 7.03607 38.6633 5.05845 40.3427 3.94761L44.8651 0.955078C43.1857 2.06592 42.1388 4.04186 42.2674 6.29047Z" fill="#809A1D"/>
</g>
<path d="M43.6148 8.85806L39.0925 11.8506L38.9453 9.27378L43.4677 6.28125L43.6148 8.85806Z" fill="#808080"/>
<path d="M42.4117 8.85806L37.8893 11.8506L37.7422 9.27378L42.2646 6.28125L42.4117 8.85806Z" fill="#809A1D"/>
<mask id="mask6_5800_2463" style="mask-type:luminance" maskUnits="userSpaceOnUse" x="37" y="8" width="7" height="13">
<path d="M42.0888 17.9442L37.5664 20.9368C38.7401 18.1227 39.2712 14.9803 39.0919 11.8548L43.6143 8.8623C43.7935 11.9878 43.2608 15.1284 42.0888 17.9442Z" fill="white"/>
</mask>
<g mask="url(#mask6_5800_2463)">
<path d="M42.0888 17.9442L37.5664 20.9368C38.7401 18.1227 39.2712 14.9803 39.0919 11.8548L43.6143 8.8623C43.7935 11.9878 43.2608 15.1284 42.0888 17.9442Z" fill="#858585"/>
</g>
<path d="M35.8682 8.9136L31.3458 11.9061L31.1953 9.27378L35.7177 6.28125L35.8682 8.9136Z" fill="#809A1D"/>
<mask id="mask7_5800_2463" style="mask-type:luminance" maskUnits="userSpaceOnUse" x="25" y="1" width="11" height="9">
<path d="M35.7272 6.28603L31.2048 9.27856C31.0458 6.49136 28.6984 4.22593 25.9688 4.22593L30.4911 1.2334C33.2191 1.2334 35.5682 3.49883 35.7272 6.28603Z" fill="white"/>
</mask>
<g mask="url(#mask7_5800_2463)">
<path d="M35.7272 6.28896L31.2048 9.28149C31.0458 6.49429 28.6984 4.22886 25.9688 4.22886L30.4911 1.23633C33.2191 1.23633 35.5682 3.50176 35.7272 6.28896Z" fill="#809A1D"/>
</g>
<mask id="mask8_5800_2463" style="mask-type:luminance" maskUnits="userSpaceOnUse" x="36" y="8" width="7" height="13">
<path d="M40.9755 17.4073L36.4531 20.3999C37.5609 17.7507 38.0581 14.7986 37.8907 11.8548L42.413 8.8623C42.5805 11.8043 42.0833 14.7582 40.9755 17.4073Z" fill="white"/>
</mask>
<g mask="url(#mask8_5800_2463)">
<path d="M40.9755 17.4073L36.4531 20.3999C37.5609 17.7507 38.0581 14.7986 37.8907 11.8548L42.413 8.8623C42.5805 11.8043 42.0833 14.7582 40.9755 17.4073Z" fill="#809A1D"/>
</g>
<path d="M30.4852 1.23145L25.9645 4.22229H24.7266L29.2489 1.23145H30.4852Z" fill="#809A1D"/>
<mask id="mask9_5800_2463" style="mask-type:luminance" maskUnits="userSpaceOnUse" x="22" y="1" width="8" height="4">
<path d="M22.1562 4.98837L26.6786 1.99584C27.4092 1.51279 28.2887 1.2334 29.2476 1.2334L24.7252 4.22593C23.7663 4.22593 22.8869 4.50532 22.1562 4.98837Z" fill="white"/>
</mask>
<g mask="url(#mask9_5800_2463)">
<path d="M29.2437 1.23633L24.7213 4.22886C23.7624 4.22886 22.883 4.50825 22.1523 4.9913L26.6747 1.99877C27.4053 1.51572 28.2848 1.23633 29.2437 1.23633Z" fill="#809A1D"/>
</g>
<mask id="mask10_5800_2463" style="mask-type:luminance" maskUnits="userSpaceOnUse" x="29" y="8" width="7" height="13">
<path d="M34.4169 17.483L29.8945 20.4756C31.0124 17.8213 31.5097 14.8625 31.3422 11.9154L35.8646 8.92285C36.0337 11.8699 35.5348 14.8288 34.4169 17.483Z" fill="white"/>
</mask>
<g mask="url(#mask10_5800_2463)">
<path d="M34.4169 17.484L29.8945 20.4765C31.0124 17.8223 31.5097 14.8634 31.3422 11.9164L35.8646 8.92383C36.0337 11.8709 35.5348 14.8298 34.4169 17.484Z" fill="#809A1D"/>
</g>
<mask id="mask11_5800_2463" style="mask-type:luminance" maskUnits="userSpaceOnUse" x="20" y="1" width="7" height="7">
<path d="M20.3438 7.3032C20.6888 6.33879 21.3264 5.52754 22.1568 4.97886L26.6791 1.98633C25.8487 2.53501 25.2111 3.34795 24.8661 4.31067C23.3592 5.30874 21.8523 6.30513 20.3438 7.3032Z" fill="white"/>
</mask>
<g mask="url(#mask11_5800_2463)">
<path d="M24.5895 6.27652L20.0671 9.26905C19.9639 7.46141 20.8062 5.87258 22.1575 4.97886L26.6798 1.98633C25.3302 2.88005 24.4863 4.46888 24.5895 6.27652Z" fill="#858585"/>
</g>
<path d="M45.9738 36.1893L41.4531 39.1818L48.9352 20.3363L53.4575 17.3438L45.9738 36.1893Z" fill="#809A1D"/>
<mask id="mask12_5800_2463" style="mask-type:luminance" maskUnits="userSpaceOnUse" x="20" y="4" width="5" height="6">
<path d="M20.0596 9.28748C20.019 8.59068 20.1204 7.92586 20.3369 7.32163C21.8438 6.32356 23.3507 5.32717 24.8593 4.3291C24.6428 4.93333 24.543 5.59815 24.5819 6.29495C23.2256 7.19203 21.4159 8.38871 20.0596 9.28748Z" fill="white"/>
</mask>
<g mask="url(#mask12_5800_2463)">
<path d="M24.5817 6.28628L20.0593 9.27881C19.9561 7.47118 20.7984 5.88234 22.1497 4.98862L26.672 1.99609C25.3224 2.88981 24.4785 4.47865 24.5817 6.28628Z" fill="#858585"/>
</g>
<mask id="mask13_5800_2463" style="mask-type:luminance" maskUnits="userSpaceOnUse" x="18" y="0" width="8" height="10">
<path d="M21.4521 3.94663L25.9745 0.954102C24.2951 2.06494 23.2482 4.04088 23.3768 6.28949L18.8544 9.28202C18.7258 7.0351 19.7727 5.05747 21.4521 3.94663Z" fill="white"/>
</mask>
<g mask="url(#mask13_5800_2463)">
<path d="M23.3768 6.29047L18.8544 9.283C18.7258 7.03607 19.7727 5.05845 21.4521 3.94761L25.9745 0.955078C24.2951 2.06592 23.2482 4.04186 23.3768 6.29047Z" fill="#809A1D"/>
</g>
<path d="M24.7359 8.85806L20.2135 11.8506L20.0664 9.27378L24.5888 6.28125L24.7359 8.85806Z" fill="#808080"/>
<mask id="mask14_5800_2463" style="mask-type:luminance" maskUnits="userSpaceOnUse" x="39" y="36" width="7" height="6">
<path d="M44.2255 38.3422L39.7031 41.3347C40.476 40.8231 41.0933 40.0791 41.4536 39.1703L45.9759 36.1777C45.6157 37.0849 44.9984 37.8305 44.2255 38.3422Z" fill="white"/>
</mask>
<g mask="url(#mask14_5800_2463)">
<path d="M44.2255 38.3393L39.7031 41.3318C40.476 40.8201 41.0933 40.0762 41.4536 39.1673L45.9759 36.1748C45.6157 37.082 44.9984 37.8276 44.2255 38.3393Z" fill="#809A1D"/>
</g>
<path d="M23.5328 8.85806L19.0104 11.8506L18.8633 9.27378L23.3857 6.28125L23.5328 8.85806Z" fill="#809A1D"/>
<mask id="mask15_5800_2463" style="mask-type:luminance" maskUnits="userSpaceOnUse" x="37" y="38" width="8" height="5">
<path d="M44.2186 38.3613L39.6962 41.3539C38.9538 41.8453 38.0692 42.1213 37.1289 42.1213L41.6513 39.1288C42.5916 39.1288 43.4761 38.8528 44.2186 38.3613Z" fill="white"/>
</mask>
<g mask="url(#mask15_5800_2463)">
<path d="M44.2186 38.3633L39.6962 41.3558C38.9538 41.8473 38.0692 42.1233 37.1289 42.1233L41.6513 39.1308C42.5916 39.1308 43.4761 38.8547 44.2186 38.3633Z" fill="#858585"/>
</g>
<path d="M41.655 39.1191L37.1326 42.11H36.6016L41.1239 39.1191H41.655Z" fill="#808080"/>
<path d="M36.2629 31.8574L31.7422 34.8483L37.5702 20.9359L42.0926 17.9434L36.2629 31.8574Z" fill="#808080"/>
<mask id="mask16_5800_2463" style="mask-type:luminance" maskUnits="userSpaceOnUse" x="37" y="39" width="8" height="5">
<path d="M44.927 39.3955L40.4046 42.388C39.4795 43.0007 38.3752 43.344 37.2031 43.344L41.7255 40.3515C42.8975 40.3515 44.0019 40.0065 44.927 39.3955Z" fill="white"/>
</mask>
<g mask="url(#mask16_5800_2463)">
<path d="M44.927 39.3936L40.4046 42.3861C39.4795 42.9987 38.3752 43.3421 37.2031 43.3421L41.7255 40.3495C42.8975 40.3495 44.0019 40.0045 44.927 39.3936Z" fill="#809A1D"/>
</g>
<path d="M41.7253 40.3506L37.2046 43.3431H36.6719L41.1942 40.3506H41.7253Z" fill="#809A1D"/>
<path d="M35.1474 31.3187L30.625 34.3112L36.453 20.3971L40.9754 17.4062L35.1474 31.3187Z" fill="#809A1D"/>
<mask id="mask17_5800_2463" style="mask-type:luminance" maskUnits="userSpaceOnUse" x="31" y="31" width="11" height="12">
<path d="M32.2756 39.7476C31.2846 38.2564 31.0833 36.4336 31.7412 34.8548L36.2636 31.8623C35.6057 33.441 35.8069 35.2638 36.798 36.755C35.2911 37.7531 33.7842 38.7495 32.2756 39.7476C33.7825 38.7495 35.2894 37.7531 36.798 36.755C37.7941 38.2395 39.4126 39.1265 41.1259 39.1265L36.6035 42.119C34.8903 42.119 33.2718 41.2321 32.2756 39.7476Z" fill="white"/>
</mask>
<g mask="url(#mask17_5800_2463)">
<path d="M41.1259 39.1236L36.6035 42.1161C34.8903 42.1161 33.2718 41.2291 32.2756 39.7446C31.2846 38.2534 31.0833 36.4306 31.7412 34.8519L36.2636 31.8594C35.6057 33.4381 35.8069 35.2609 36.798 36.7521C37.7941 38.2366 39.4126 39.1236 41.1259 39.1236Z" fill="#858585"/>
</g>
<path d="M49.365 1.23145C52.0929 1.23145 54.4404 3.49688 54.601 6.28407L54.7634 9.11503C54.9241 11.9409 54.4742 14.7837 53.4594 17.3436L45.9757 36.1892C45.2688 37.9682 43.5775 39.1211 41.658 39.1211H41.1269C39.4137 39.1211 37.7952 38.2341 36.7991 36.7496C35.808 35.2584 35.6067 33.4356 36.2646 31.8569L42.0926 17.9428C43.2664 15.1287 43.7974 11.9864 43.6181 8.86088L43.471 6.28407C43.312 3.49688 45.4007 1.23145 48.1287 1.23145H49.365Z" fill="#D1FF27"/>
<path d="M16.8903 7.27239L12.368 10.2649L12.3477 9.90979L16.87 6.91895L16.8903 7.27239Z" fill="#809A1D"/>
<mask id="mask18_5800_2463" style="mask-type:luminance" maskUnits="userSpaceOnUse" x="18" y="8" width="7" height="13">
<path d="M23.2099 17.9442L18.6875 20.9368C19.8612 18.1227 20.3923 14.9803 20.213 11.8548L24.7354 8.8623C24.9146 11.9878 24.3819 15.1284 23.2099 17.9442Z" fill="white"/>
</mask>
<g mask="url(#mask18_5800_2463)">
<path d="M23.2099 17.9442L18.6875 20.9368C19.8612 18.1227 20.3923 14.9803 20.213 11.8548L24.7354 8.8623C24.9146 11.9878 24.3819 15.1284 23.2099 17.9442Z" fill="#858585"/>
</g>
<mask id="mask19_5800_2463" style="mask-type:luminance" maskUnits="userSpaceOnUse" x="30" y="31" width="12" height="13">
<path d="M41.1891 40.3605L36.6668 43.3531C34.5358 43.3531 32.5249 42.2507 31.2853 40.406C30.0456 38.5546 29.797 36.2841 30.6172 34.3216L35.1396 31.3291C34.3193 33.2899 34.5679 35.5621 35.8076 37.4135C37.0473 39.2581 39.0565 40.3605 41.1891 40.3605Z" fill="white"/>
</mask>
<g mask="url(#mask19_5800_2463)">
<path d="M41.1891 40.3625L36.6668 43.355C34.5358 43.355 32.5249 42.2526 31.2853 40.4079C30.0456 38.5565 29.797 36.2861 30.6172 34.3236L35.1396 31.3311C34.3193 33.2919 34.5679 35.564 35.8076 37.4154C37.0473 39.2601 39.0565 40.3625 41.1891 40.3625Z" fill="#809A1D"/>
</g>
<path d="M49.2957 0C52.6866 0 55.6074 2.82085 55.8052 6.28297L55.9676 9.11392C56.1384 12.1165 55.6598 15.1377 54.5791 17.8576L47.1021 36.7081C46.2244 38.9197 44.1154 40.3487 41.7291 40.3487H41.198C39.0671 40.3487 37.0562 39.2462 35.8165 37.4016C34.5768 35.5502 34.3282 33.2797 35.1485 31.3172L40.9765 17.4031C42.0842 14.7539 42.5814 11.8018 42.414 8.85809L42.2669 6.28128C42.069 2.82085 44.6634 0 48.0594 0H49.2957ZM54.7634 9.1156L54.6011 6.28465C54.4421 3.49746 52.0947 1.23202 49.365 1.23202H48.1287C45.4007 1.23202 43.3121 3.49746 43.471 6.28465L43.6182 8.86146C43.7974 11.9869 43.2647 15.1276 42.0927 17.9434L36.2647 31.8575C35.6068 33.4362 35.808 35.259 36.7991 36.7502C37.7952 38.2347 39.4138 39.1217 41.127 39.1217H41.658C43.5776 39.1217 45.2705 37.9688 45.9758 36.1897L53.4595 17.3442C54.4742 14.7842 54.9241 11.9415 54.7634 9.1156Z" fill="#809A1D"/>
<mask id="mask20_5800_2463" style="mask-type:luminance" maskUnits="userSpaceOnUse" x="17" y="8" width="7" height="13">
<path d="M22.1005 17.4073L17.5781 20.3999C18.6859 17.7507 19.1831 14.7986 19.0157 11.8548L23.538 8.8623C23.7055 11.8043 23.2083 14.7582 22.1005 17.4073Z" fill="white"/>
</mask>
<g mask="url(#mask20_5800_2463)">
<path d="M22.1005 17.4073L17.5781 20.3999C18.6859 17.7507 19.1831 14.7986 19.0157 11.8548L23.538 8.8623C23.7055 11.8043 23.2083 14.7582 22.1005 17.4073Z" fill="#809A1D"/>
</g>
<mask id="mask21_5800_2463" style="mask-type:luminance" maskUnits="userSpaceOnUse" x="3" y="1" width="14" height="9">
<path d="M3.5625 5.08262L8.08487 2.09177C8.90681 1.54814 9.89449 1.2334 10.9735 1.2334C14.0431 1.2334 16.6848 3.78833 16.8641 6.91887L12.3417 9.9114C12.1624 6.78085 9.52242 4.22593 6.45113 4.22593C5.37382 4.22593 4.38444 4.54067 3.5625 5.0843V5.08262Z" fill="white"/>
</mask>
<g mask="url(#mask21_5800_2463)">
<path d="M16.8641 6.9218L12.3417 9.91433C12.1624 6.78378 9.52242 4.22886 6.45113 4.22886C5.37381 4.22886 4.38444 4.5436 3.5625 5.08723L8.08656 2.0947C8.9085 1.55107 9.89618 1.23633 10.9752 1.23633C14.0448 1.23633 16.6865 3.79125 16.8658 6.9218" fill="#809A1D"/>
</g>
<mask id="mask22_5800_2463" style="mask-type:luminance" maskUnits="userSpaceOnUse" x="10" y="7" width="7" height="9">
<path d="M14.538 12.0949L10.0156 15.0875C11.5394 14.0793 12.4882 12.2902 12.3715 10.2621L16.8939 7.26953C17.0089 9.29765 16.0618 11.0868 14.538 12.0949Z" fill="white"/>
</mask>
<g mask="url(#mask22_5800_2463)">
<path d="M14.538 12.093L10.0156 15.0855C11.5394 14.0774 12.4882 12.2882 12.3715 10.2601L16.8939 7.26758C17.0089 9.2957 16.0618 11.0848 14.538 12.093Z" fill="#809A1D"/>
</g>
<mask id="mask23_5800_2463" style="mask-type:luminance" maskUnits="userSpaceOnUse" x="7" y="12" width="8" height="4">
<path d="M7.09375 15.9596C8.60064 14.9615 10.1075 13.9651 11.6161 12.967C11.6296 12.967 11.6432 12.967 11.6584 12.967C11.6652 12.967 11.6736 12.967 11.6804 12.967C12.7408 12.962 13.7166 12.6473 14.5301 12.1104L10.0078 15.1029C9.19427 15.6415 8.22011 15.9545 7.15802 15.9596C7.13603 15.9596 7.11574 15.9596 7.09375 15.9596Z" fill="white"/>
</mask>
<g mask="url(#mask23_5800_2463)">
<path d="M14.5292 12.1053L10.0068 15.0978C9.19334 15.6364 8.21919 15.9495 7.15709 15.9545C5.64343 15.9545 4.21603 15.3671 3.10319 14.2984C1.98359 13.2229 1.32232 11.7939 1.23438 10.264L5.75674 7.27148C5.84469 8.80141 6.50596 10.2304 7.62556 11.3058C8.7384 12.3746 10.1658 12.962 11.6795 12.962C12.7399 12.957 13.7157 12.6422 14.5292 12.1053Z" fill="#858585"/>
</g>
<path d="M26.5285 36.2764L22.0078 39.2672L29.8991 20.4671L34.4215 17.4746L26.5285 36.2764Z" fill="#809A1D"/>
<mask id="mask24_5800_2463" style="mask-type:luminance" maskUnits="userSpaceOnUse" x="7" y="13" width="9" height="5">
<path d="M15.2255 13.1445L10.7031 16.1371C9.71373 16.7918 8.52648 17.1738 7.23438 17.1806L11.7567 14.188C13.0489 14.1796 14.2361 13.7993 15.2255 13.1445Z" fill="white"/>
</mask>
<g mask="url(#mask24_5800_2463)">
<path d="M15.2255 13.1426L10.7031 16.1351C9.71373 16.7898 8.52648 17.1719 7.23438 17.1786L11.7567 14.1861C13.0489 14.1777 14.2361 13.7973 15.2255 13.1426Z" fill="#809A1D"/>
</g>
<mask id="mask25_5800_2463" style="mask-type:luminance" maskUnits="userSpaceOnUse" x="4" y="12" width="8" height="4">
<path d="M4.98607 15.5404C4.98607 15.5404 5.00298 15.5286 5.01143 15.5236C5.76065 15.027 6.50987 14.5322 7.25909 14.0357C8.00831 13.5392 8.75753 13.0444 9.50674 12.5479C10.1697 12.8188 10.88 12.9636 11.6123 12.972C10.1054 13.9701 8.59855 14.9664 7.08997 15.9645C6.35935 15.9561 5.64903 15.8114 4.98438 15.5404H4.98607Z" fill="white"/>
</mask>
<g mask="url(#mask25_5800_2463)">
<path d="M14.5253 12.1053L10.0029 15.0978C9.18943 15.6364 8.21528 15.9495 7.15318 15.9545C5.63952 15.9545 4.21212 15.3671 3.09929 14.2984C1.97969 13.2229 1.31841 11.7939 1.23047 10.264L5.75284 7.27148C5.84078 8.80141 6.50206 10.2304 7.62166 11.3058C8.73449 12.3746 10.1619 12.962 11.6756 12.962C12.736 12.957 13.7118 12.6422 14.5253 12.1053Z" fill="#858585"/>
</g>
<mask id="mask26_5800_2463" style="mask-type:luminance" maskUnits="userSpaceOnUse" x="1" y="2" width="8" height="8">
<path d="M3.5653 5.07288L8.08767 2.08203C6.56725 3.08683 5.61847 4.87596 5.73516 6.90913L1.21279 9.89997C1.0961 7.86849 2.04488 6.07936 3.5653 5.07288Z" fill="white"/>
</mask>
<g mask="url(#mask26_5800_2463)">
<path d="M5.73516 6.90717L1.21279 9.89802C1.0961 7.86653 2.04488 6.07741 3.5653 5.07092L8.08767 2.08008C6.56725 3.08488 5.61847 4.874 5.73516 6.90717Z" fill="#858585"/>
</g>
<path d="M5.75751 7.27239L1.23514 10.2649L1.21484 9.90979L5.73721 6.91895L5.75751 7.27239Z" fill="#808080"/>
<mask id="mask27_5800_2463" style="mask-type:luminance" maskUnits="userSpaceOnUse" x="0" y="1" width="8" height="9">
<path d="M2.87334 4.03843L7.39402 1.0459C5.54719 2.26782 4.39208 4.44405 4.53245 6.91651L0.01177 9.90904C-0.130294 7.4349 1.02482 5.26035 2.87334 4.03843Z" fill="white"/>
</mask>
<g mask="url(#mask27_5800_2463)">
<path d="M4.53414 6.92112L0.01177 9.91197C-0.130294 7.43783 1.02482 5.26328 2.87334 4.04136L7.39402 1.04883C5.54719 2.27075 4.39208 4.44698 4.53245 6.91944" fill="#809A1D"/>
</g>
<path d="M4.55438 7.27239L0.0320136 10.2649L0.0117188 9.90979L4.53409 6.91895L4.55438 7.27239Z" fill="#809A1D"/>
<mask id="mask28_5800_2463" style="mask-type:luminance" maskUnits="userSpaceOnUse" x="1" y="7" width="9" height="9">
<path d="M3.10319 14.2954C1.98359 13.22 1.32232 11.791 1.23438 10.2611L5.75674 7.26855C5.84469 8.79848 6.50596 10.2274 7.62556 11.3029C8.1769 11.8314 8.80435 12.2438 9.48085 12.5232C7.97396 13.5212 6.46706 14.5176 4.95848 15.5157C4.28198 15.2346 3.65284 14.8239 3.10319 14.2954Z" fill="white"/>
</mask>
<g mask="url(#mask28_5800_2463)">
<path d="M14.5292 12.1024L10.0068 15.0949C9.19334 15.6335 8.21919 15.9466 7.15709 15.9516C5.64343 15.9516 4.21603 15.3642 3.10319 14.2954C1.98359 13.22 1.32232 11.791 1.23438 10.2611L5.75674 7.26855C5.84469 8.79848 6.50596 10.2274 7.62556 11.3029C8.7384 12.3717 10.1658 12.9591 11.6795 12.9591C12.7399 12.954 13.7157 12.6393 14.5292 12.1024Z" fill="#858585"/>
</g>
<path d="M10.9094 0C14.642 0 17.8553 3.10361 18.0735 6.91581L18.0938 7.27094C18.3103 11.0663 15.4673 14.1699 11.7584 14.1918C9.92003 14.1918 8.18144 13.4765 6.83184 12.1805C5.46701 10.8727 4.66198 9.12738 4.55543 7.27094L4.53514 6.91581C4.31697 3.10361 7.17685 0 10.9094 0ZM16.8896 7.26926L16.8693 6.91412C16.6901 3.78358 14.05 1.22865 10.9788 1.22865C7.90915 1.22865 5.56002 3.78358 5.7376 6.91412L5.7579 7.26926C5.84584 8.79918 6.50712 10.2281 7.62672 11.3036C8.73955 12.3724 10.167 12.9598 11.6485 12.9598C14.7282 12.9429 17.0672 10.388 16.8879 7.26926" fill="#809A1D"/>
<path d="M10.9756 1.23145C14.0452 1.23145 16.6869 3.78637 16.8662 6.91691L16.8865 7.27205C17.0641 10.3908 14.7268 12.9457 11.6792 12.9626C10.1655 12.9626 8.73812 12.3752 7.62529 11.3064C6.50569 10.2309 5.84442 8.80197 5.75647 7.27205L5.73618 6.91691C5.55691 3.78637 7.90603 1.23145 10.9773 1.23145H10.9756Z" fill="#D1FF27"/>
<mask id="mask29_5800_2463" style="mask-type:luminance" maskUnits="userSpaceOnUse" x="20" y="36" width="7" height="6">
<path d="M24.8192 38.3441L20.2969 41.3366C21.0444 40.8418 21.6465 40.1298 22.0101 39.263L26.5325 36.2705C26.1689 37.1373 25.5668 37.8492 24.8192 38.3441Z" fill="white"/>
</mask>
<g mask="url(#mask29_5800_2463)">
<path d="M24.8192 38.3421L20.2969 41.3346C21.0444 40.8398 21.6465 40.1279 22.0101 39.2611L26.5325 36.2686C26.1689 37.1353 25.5668 37.8473 24.8192 38.3421Z" fill="#809A1D"/>
</g>
<mask id="mask30_5800_2463" style="mask-type:luminance" maskUnits="userSpaceOnUse" x="0" y="7" width="12" height="11">
<path d="M11.7549 14.1894L7.23254 17.1819C5.39416 17.1819 3.65557 16.4666 2.30596 15.1707C0.941136 13.8629 0.137798 12.1175 0.03125 10.2611L4.55362 7.26855C4.66017 9.125 5.4652 10.8704 6.83002 12.1781C8.17794 13.4741 9.91653 14.1894 11.7566 14.1894H11.7549Z" fill="white"/>
</mask>
<g mask="url(#mask30_5800_2463)">
<path d="M11.7549 14.1894L7.23254 17.1819C5.39416 17.1819 3.65557 16.4666 2.30596 15.1707C0.941136 13.8629 0.137798 12.1175 0.03125 10.2611L4.55362 7.26855C4.66017 9.125 5.4652 10.8704 6.83002 12.1781C8.17794 13.4741 9.91653 14.1894 11.7566 14.1894" fill="#809A1D"/>
</g>
<mask id="mask31_5800_2463" style="mask-type:luminance" maskUnits="userSpaceOnUse" x="17" y="38" width="8" height="5">
<path d="M17.7188 42.0957C19.2256 41.0976 20.7325 40.1012 22.2411 39.1032C23.1798 39.1032 24.0677 38.8254 24.8118 38.334L20.2894 41.3265C19.5453 41.8197 18.6574 42.0957 17.7188 42.0957Z" fill="white"/>
</mask>
<g mask="url(#mask31_5800_2463)">
<path d="M24.8191 38.3476L20.2967 41.3401C19.5525 41.8333 18.6646 42.1093 17.726 42.1093C16.0128 42.1093 14.3943 41.2223 13.3981 39.7378C12.402 38.2466 12.2058 36.4238 12.8637 34.8451L17.3861 31.8525C16.7282 33.4313 16.9244 35.2541 17.9205 36.7453C18.9166 38.2298 20.5352 39.1167 22.2484 39.1167C23.187 39.1167 24.0749 38.839 24.8191 38.3476Z" fill="#858585"/>
</g>
<path d="M17.3817 31.8574L12.8594 34.8483L18.6891 20.9359L23.2097 17.9434L17.3817 31.8574Z" fill="#808080"/>
<path d="M16.2646 31.3187L11.7422 34.3112L17.5702 20.3971L22.0926 17.4062L16.2646 31.3187Z" fill="#809A1D"/>
<mask id="mask32_5800_2463" style="mask-type:luminance" maskUnits="userSpaceOnUse" x="12" y="31" width="11" height="12">
<path d="M13.402 39.7476C12.4059 38.2564 12.2097 36.4336 12.8676 34.8548L17.39 31.8623C16.7321 33.441 16.9283 35.2638 17.9244 36.755C16.4175 37.7531 14.9106 38.7495 13.402 39.7476C14.9089 38.7495 16.4158 37.7531 17.9244 36.755C18.9205 38.2395 20.5391 39.1265 22.2523 39.1265C20.7454 40.1246 19.2385 41.121 17.7299 42.119C16.0167 42.119 14.3982 41.2321 13.402 39.7476Z" fill="white"/>
</mask>
<g mask="url(#mask32_5800_2463)">
<path d="M24.823 38.3573L20.3006 41.3499C19.5564 41.843 18.6685 42.119 17.7299 42.119C16.0167 42.119 14.3982 41.2321 13.402 39.7476C12.4059 38.2564 12.2097 36.4336 12.8676 34.8548L17.39 31.8623C16.7321 33.441 16.9283 35.2638 17.9244 36.755C18.9205 38.2395 20.5391 39.1265 22.2523 39.1265C23.1909 39.1265 24.0788 38.8488 24.823 38.3573Z" fill="#858585"/>
</g>
<mask id="mask33_5800_2463" style="mask-type:luminance" maskUnits="userSpaceOnUse" x="11" y="31" width="15" height="13">
<path d="M25.5156 39.4012L20.9933 42.3937C20.0665 43.008 18.9604 43.3531 17.7918 43.3531C15.6608 43.3531 13.6499 42.2507 12.4103 40.406C11.1706 38.5546 10.922 36.2841 11.7422 34.3216L16.2646 31.3291C15.4443 33.2899 15.6929 35.5621 16.9326 37.4135C18.1723 39.2581 20.1815 40.3605 22.3141 40.3605C23.4828 40.3605 24.5889 40.0155 25.5156 39.4012Z" fill="white"/>
</mask>
<g mask="url(#mask33_5800_2463)">
<path d="M25.5156 39.4031L20.9933 42.3957C20.0665 43.01 18.9604 43.355 17.7918 43.355C15.6608 43.355 13.6499 42.2526 12.4103 40.4079C11.1706 38.5565 10.922 36.2861 11.7422 34.3236L16.2646 31.3311C15.4443 33.2919 15.6929 35.564 16.9326 37.4154C18.1723 39.2601 20.1815 40.3625 22.3141 40.3625C23.4828 40.3625 24.5889 40.0175 25.5156 39.4031Z" fill="#809A1D"/>
</g>
<path d="M30.4145 0C33.8055 0 36.7262 2.82085 36.9241 6.28297L37.0746 8.91531C37.2539 12.0509 36.7229 15.1983 35.539 18.0141L27.646 36.8209C26.7429 38.9652 24.6525 40.3503 22.3152 40.3503C20.1842 40.3503 18.1734 39.2479 16.9337 37.4033C15.694 35.5519 15.4454 33.2814 16.2656 31.3189L22.0937 17.4048C23.2014 14.7556 23.6986 11.8035 23.5312 8.85977L23.3841 6.28297C23.1879 2.82085 25.7822 0 29.1782 0H30.4145ZM35.8705 8.91531L35.72 6.28297C35.561 3.49577 33.2135 1.23034 30.4839 1.23034H29.2476C26.5196 1.23034 24.4309 3.49577 24.5899 6.28297L24.7371 8.85977C24.9163 11.9853 24.3836 15.1259 23.2116 17.9417L17.3836 31.8558C16.7257 33.4345 16.9219 35.2573 17.918 36.7485C18.9141 38.233 20.5326 39.12 22.2459 39.12C24.1282 39.12 25.8059 38.0058 26.5315 36.2773L34.4245 17.4772C35.5424 14.823 36.0396 11.8641 35.8722 8.917" fill="#809A1D"/>
<path d="M30.4813 1.23313C33.2093 1.23313 35.5584 3.49856 35.7174 6.28576L35.8679 8.91811C36.0371 11.8652 35.5381 14.8241 34.4202 17.4783L26.5272 36.2784C25.8017 38.0069 24.124 39.1211 22.2416 39.1211C20.5284 39.1211 18.9099 38.2341 17.9138 36.7496C16.9176 35.2584 16.7214 33.4356 17.3793 31.8569L23.2073 17.9428C24.381 15.1287 24.9121 11.9864 24.7328 8.86088L24.5857 6.28407C24.4267 3.49688 26.5154 1.23145 29.2434 1.23145H30.4796L30.4813 1.23313Z" fill="#D1FF27"/>
<path d="M79.8014 0.09375L76.6804 9.6767H73.0505L71.2417 3.99294L69.4328 9.6767H65.8029L62.6758 0.09375H65.386L67.6792 7.14651L69.9295 0.09375H72.5477L74.798 7.14651L77.0912 0.09375H79.8014Z" fill="white"/>
<path d="M90.3729 5.4882H82.4692C82.6532 6.77163 83.4442 7.40723 85.1855 7.40723C86.792 7.40723 87.583 6.97331 87.8344 6.34382H90.4342C90.1583 8.40342 88.4414 9.68074 85.1855 9.68074C81.9296 9.68074 79.8633 8.03061 79.8633 4.84037C79.8633 1.65013 81.8438 0 85.1855 0C86.5897 0 87.6995 0.342248 88.5395 0.904514C90.4526 2.15128 90.6243 4.18032 90.471 5.49431H90.3729V5.4882ZM82.5735 3.77084H87.8037C87.583 3.04968 87.0986 2.2674 85.1855 2.2674C83.7017 2.2674 82.8862 2.7991 82.5735 3.77084Z" fill="white"/>
<path d="M79.8031 12.9062L76.6821 22.4892H73.0522L71.2433 16.8054L69.4345 22.4892H65.8046L62.6836 12.9062H65.3938L67.687 19.959L69.9312 12.9062H72.5494L74.7997 19.959L77.0929 12.9062H79.8031Z" fill="white"/>
<path d="M88.1119 14.3024V12.8906H90.7975V22.4858H88.1119V21.1474H88.026C87.3577 21.9785 86.2233 22.4858 84.3654 22.4858C80.2082 22.4858 79.7422 18.9839 79.7422 17.6882C79.7422 16.2887 80.1837 12.8906 84.3777 12.8906C86.2111 12.8906 87.3331 13.4468 88.0015 14.3024H88.1119ZM87.9463 17.6882C87.9463 16.3926 87.4742 15.1275 85.1503 15.1275C82.575 15.1275 82.3052 16.9426 82.3052 17.6882C82.3052 18.3788 82.5934 20.249 85.1442 20.249C87.468 20.249 87.9402 19.1428 87.9402 17.6882H87.9463Z" fill="white"/>
<path d="M102.719 17.6977V22.4892H100.046V17.6977C100.046 16.9521 100.211 15.137 97.642 15.137C95.3242 15.137 94.9747 16.5671 94.9747 17.8689V22.4892H92.2891V12.9062H94.9747V14.3119H95.1035C95.7412 13.4685 96.6487 12.9062 98.4207 12.9062C102.609 12.9062 102.719 16.3043 102.719 17.6977Z" fill="white"/>
<path d="M107.6 18.5291V18.7186C107.6 20.112 108.25 19.9103 110.819 19.7759V22.3122C110.819 22.3122 110.292 22.4894 107.6 22.4894C104.908 22.4894 104.914 20.3504 104.914 18.9569V15.1127H103.59V12.9248H104.914V10.1562H107.606V12.9248H110.819V15.1127H107.606V18.523L107.6 18.5291Z" fill="white"/>
<path d="M73.7796 24.9531V37.3046H71.094V35.9662H70.9713C70.303 36.7974 69.1686 37.3046 67.3107 37.3046C63.1535 37.3046 62.6875 33.8027 62.6875 32.507C62.6875 31.1075 63.129 27.7094 67.323 27.7094C69.1564 27.7094 70.2785 28.2656 70.9468 29.1212H71.1001V24.9531H73.7919H73.7796ZM70.8855 32.507C70.8855 31.2114 70.4134 29.9463 68.0895 29.9463C65.5142 29.9463 65.2444 31.7614 65.2444 32.507C65.2444 33.1976 65.5326 35.0678 68.0833 35.0678C70.4072 35.0678 70.8855 33.9555 70.8855 32.507Z" fill="white"/>
<path d="M85.5838 33.1132H77.6802C77.8641 34.3966 78.6551 35.0322 80.3965 35.0322C82.003 35.0322 82.7939 34.5983 83.0453 33.9688H85.6451C85.3692 36.0284 83.6524 37.3057 80.3965 37.3057C77.1406 37.3057 75.0742 35.6556 75.0742 32.4654C75.0742 29.2751 77.0547 27.625 80.3965 27.625C81.8006 27.625 82.9104 27.9672 83.7505 28.5295C85.6635 29.7763 85.8352 31.8053 85.6819 33.1193H85.5838V33.1132ZM77.7844 31.3958H83.0147C82.7939 30.6747 82.3095 29.8924 80.3965 29.8924C78.9126 29.8924 78.0971 30.4241 77.7844 31.3958Z" fill="white"/>
<path d="M96.6564 34.468C96.6564 36.8454 94.8966 37.3098 91.8553 37.3098C89.6173 37.3098 88.0782 36.9187 87.2811 36.1425C86.5944 35.4764 86.6005 34.6635 86.6066 34.1807V33.9974H89.3659V34.0829C89.3659 34.9019 89.9974 35.2686 91.7817 35.2686C92.8548 35.2686 93.891 35.1402 93.891 34.5168C93.891 33.7957 92.9283 33.6612 91.8676 33.539C91.7204 33.5207 91.5794 33.5084 91.4445 33.4901C88.5933 33.1234 86.8274 32.5184 86.8274 30.6054C86.8274 29.267 87.6245 27.6719 91.4261 27.6719C95.5281 27.6719 96.3927 29.432 96.3927 30.9049V30.9844H93.658V30.8988C93.658 30.141 92.9958 29.7437 91.4261 29.7437C89.8564 29.7437 89.6111 30.2693 89.6111 30.5627C89.6111 30.9843 89.9177 31.2227 91.6407 31.4733L91.8614 31.5038C94.1056 31.8277 96.6502 32.1944 96.6502 34.468H96.6564Z" fill="white"/>
<path d="M97.9375 27.0975V24.7812H100.611V27.0975H97.9375ZM97.9375 37.31V27.782H100.611V37.31H97.9375Z" fill="white"/>
<path d="M113.098 27.8281V36.3904C113.098 38.3645 112.718 41.9275 107.794 41.9275C103.343 41.9275 102.491 39.599 102.491 38.175H105.152C105.213 38.6945 105.685 39.6846 107.776 39.6846C109.591 39.6846 110.406 38.5356 110.406 36.7816V36.0849H110.284C109.615 36.916 108.481 37.4233 106.623 37.4233C102.466 37.4233 102 33.9214 102 32.6257C102 31.2262 102.441 27.8281 106.636 27.8281C108.469 27.8281 109.591 28.3843 110.259 29.2338H110.413V27.8281H113.104H113.098ZM110.204 32.6257C110.204 31.3239 109.732 30.065 107.408 30.065C104.833 30.065 104.563 31.8801 104.563 32.6257C104.563 33.3163 104.851 35.1865 107.402 35.1865C109.726 35.1865 110.204 34.0803 110.204 32.6257Z" fill="white"/>
<path d="M124.999 32.518V37.3095H122.325V32.518C122.325 31.7724 122.491 29.9573 119.915 29.9573C117.598 29.9573 117.248 31.3874 117.248 32.6892V37.3095H114.562V27.7266H117.248V29.1322H117.377C118.015 28.2888 118.922 27.7266 120.694 27.7266C124.882 27.7266 124.992 31.1246 124.992 32.518H124.999Z" fill="white"/>
</svg>
