<svg width="36" height="36" viewBox="0 0 36 36" fill="none" xmlns="http://www.w3.org/2000/svg">
<rect width="35.062" height="35.062" rx="8" fill="#1B1B1E"/>
<path d="M25.3796 11.1289C25.1209 10.9307 24.7744 10.9138 24.498 11.0825C24.2223 11.2521 23.6115 11.3356 23.1215 11.4031C23.02 11.4174 22.92 11.4309 22.8233 11.4453C22.1375 10.8497 21.2615 10.5156 20.3581 10.5156C18.3232 10.5156 16.6534 12.164 16.535 14.2376C14.6895 13.9119 12.9996 12.9047 11.802 11.3913C11.6239 11.1652 11.3475 11.0547 11.0687 11.0926C10.7914 11.1331 10.5545 11.3213 10.4425 11.5895C10.3909 11.7127 9.94122 12.8709 9.94122 15.7358C9.94122 18.2168 11.8117 20.0398 13.0947 20.999C12.217 21.4166 11.2057 21.5701 10.245 21.4588C9.86949 21.4166 9.51813 21.6477 9.39402 22.0181C9.26991 22.3892 9.40691 22.8009 9.72443 23.011C11.2395 24.0115 12.9907 24.5404 14.7894 24.5404C20.566 24.5404 24.062 19.7901 24.1917 15.1065C24.3577 14.8542 24.6744 14.3633 25.2095 13.502C25.4239 13.1552 25.6036 12.4078 25.6915 11.9936C25.7616 11.6663 25.6383 11.3263 25.3796 11.1289Z" fill="white"/>
</svg>
